<svg width="51" height="54" viewBox="0 0 51 54" fill="none" xmlns="http://www.w3.org/2000/svg">
<path d="M24.7791 7.75767C25.3353 7.78804 25.8845 7.80093 26.4413 7.78599C28.5284 7.73428 30.2312 8.5353 31.7487 9.94282C32.0934 10.2774 32.3903 10.567 32.6269 10.9885C32.8362 11.316 32.8362 11.316 33.2141 11.3728C33.3517 11.3803 33.4892 11.3878 33.631 11.3955C35.6002 11.5626 37.1528 12.4528 38.5592 13.8167C38.6543 13.9002 38.6543 13.9002 38.7513 13.9853C40.7797 15.8297 42.1389 19.3644 42.2693 22.0558C42.2799 22.4168 42.2849 22.7774 42.2866 23.1387C42.2872 23.2533 42.2878 23.3678 42.2884 23.4859C42.2825 24.1414 42.2125 24.7466 42.0832 25.3885C42.0324 25.7017 42.0581 25.9572 42.1283 26.2658C42.7449 29.3408 42.1943 32.6176 40.4592 35.2448C40.1603 35.6488 39.8429 36.0302 39.5092 36.4059C39.4004 36.5298 39.4004 36.5298 39.2894 36.6562C38.2866 37.7297 36.8539 38.658 35.3718 38.8663C35.0724 38.981 34.9934 39.2 34.8383 39.4736C34.2255 40.4759 33.5156 41.0987 32.4369 41.5782C32.3672 41.5782 32.2975 41.5782 32.2257 41.5782C32.2267 41.6685 32.2276 41.7588 32.2286 41.8519C32.237 42.703 32.2435 43.5541 32.2476 44.4052C32.2498 44.8428 32.2528 45.2804 32.2576 45.718C32.2622 46.1402 32.2647 46.5625 32.2658 46.9848C32.2666 47.1459 32.2681 47.307 32.2704 47.4681C32.2734 47.6938 32.2739 47.9194 32.2737 48.1451C32.2746 48.2735 32.2755 48.402 32.2765 48.5343C32.2159 48.9251 32.1106 49.0439 31.8035 49.2839C31.5117 49.4298 31.2709 49.3995 30.9459 49.396C30.8302 49.3951 30.7145 49.3941 30.5954 49.3931C30.5064 49.3919 30.4174 49.3907 30.3257 49.3894C30.3306 49.4927 30.3355 49.596 30.3406 49.7024C30.369 50.7357 30.2536 51.4026 29.6726 52.2658C29.068 52.857 28.3731 53.1998 27.5261 53.2081C27.4066 53.2095 27.2872 53.2109 27.1641 53.2123C26.9701 53.2134 26.9701 53.2134 26.7722 53.2146C26.639 53.2155 26.5059 53.2163 26.3686 53.2172C26.0863 53.2187 25.8039 53.2198 25.5216 53.2206C25.162 53.2218 24.8026 53.2254 24.4431 53.2296C24.0979 53.2331 23.7528 53.2335 23.4076 53.2344C23.2796 53.2363 23.1516 53.2381 23.0197 53.24C21.9936 53.2374 21.2231 53.0139 20.4565 52.3149C19.905 51.686 19.7535 50.9755 19.7634 50.1613C19.7639 50.0872 19.7644 50.0131 19.7649 49.9368C19.7661 49.7543 19.768 49.5719 19.77 49.3894C19.6835 49.3919 19.5969 49.3943 19.5078 49.3968C19.394 49.3987 19.2803 49.4006 19.1631 49.4026C19.0504 49.4051 18.9377 49.4075 18.8216 49.41C18.5053 49.3895 18.3406 49.3548 18.0811 49.1783C17.8261 48.7958 17.8413 48.6127 17.8363 48.1571C17.8353 48.086 17.8342 48.0149 17.8331 47.9417C17.8299 47.7069 17.8281 47.4722 17.8263 47.2374C17.8243 47.0746 17.8222 46.9118 17.8201 46.7489C17.8147 46.3205 17.8105 45.892 17.8066 45.4636C17.8023 45.0263 17.7969 44.589 17.7916 44.1518C17.7814 43.2939 17.7725 42.4361 17.7644 41.5782C17.6555 41.5248 17.6555 41.5248 17.5443 41.4704C17.4492 41.4234 17.354 41.3764 17.2559 41.328C17.1615 41.2815 17.0671 41.2351 16.9698 41.1872C16.228 40.7984 15.7091 40.2371 15.33 39.5C14.8783 38.7279 14.1355 38.618 13.329 38.3752C11.2573 37.6889 9.80512 35.6143 8.81847 33.7802C8.17868 32.4386 7.83077 30.9316 7.7629 29.4523C7.75842 29.3579 7.75395 29.2634 7.74934 29.1661C7.70983 28.0435 7.79862 26.9052 8.02102 25.8032C8.0569 25.3846 7.98652 25.0656 7.89556 24.6593C7.29428 21.435 8.52748 17.88 10.3029 15.2153C11.6551 13.3477 13.3473 11.9633 15.652 11.4371C16.1808 11.3569 16.7035 11.3634 17.2366 11.3889C17.2619 11.3132 17.2873 11.2376 17.3133 11.1596C18.0114 9.60925 19.8384 8.59785 21.3534 8.01105C22.5032 7.67265 23.5946 7.69126 24.7791 7.75767ZM20.163 10.7048C19.4709 11.2977 18.8677 11.9775 18.3978 12.7611C18.3978 12.8308 18.3978 12.9004 18.3978 12.9722C18.0593 13.0807 17.7342 13.0895 17.3808 13.0976C15.4201 13.1536 13.8656 13.9172 12.5113 15.3427C10.6197 17.4956 9.54403 20.4646 9.63653 23.3168C9.77043 23.2633 9.77043 23.2633 9.90702 23.2088C10.0268 23.1617 10.1465 23.1146 10.2699 23.0661C10.3874 23.0196 10.505 22.973 10.6261 22.9251C11.033 22.7804 11.4332 22.6765 11.8532 22.5779C11.8606 22.5195 11.868 22.4611 11.8756 22.4009C12.1604 20.2011 12.1604 20.2011 12.5921 19.4112C12.6353 19.3296 12.6784 19.2479 12.7228 19.1638C13.1462 18.4482 13.7524 17.9866 14.4922 17.6167C14.862 17.5893 15.1428 17.5805 15.4884 17.7223C15.7031 17.9972 15.7125 18.2315 15.6937 18.5746C15.6304 18.8929 15.4887 19.0103 15.2311 19.2001C15.1309 19.2611 15.0308 19.322 14.9276 19.3848C14.2245 19.891 13.8818 20.5016 13.6951 21.3422C13.6229 21.938 13.6311 22.531 13.65 23.1303C13.6524 23.2181 13.6547 23.3059 13.6572 23.3964C13.6603 23.4751 13.6634 23.5538 13.6666 23.635C13.6477 23.8446 13.6477 23.8446 13.4366 24.1613C13.1018 24.2729 12.8382 24.285 12.4866 24.2998C11.6642 24.3612 10.835 24.5009 10.2171 25.0915C9.22611 26.4749 9.45325 29.1447 9.71323 30.7301C10.0875 32.5753 10.9636 34.1188 12.2755 35.4559C12.3402 35.5232 12.405 35.5906 12.4717 35.66C13.3026 36.4571 14.5219 37.0874 15.6801 37.0673C16.6954 36.9691 17.402 36.3911 18.0811 35.667C18.1939 35.5107 18.3042 35.3525 18.411 35.192C18.6272 34.8864 18.7721 34.758 19.1433 34.684C19.5589 34.717 19.5589 34.717 19.8822 34.9281C20.0867 35.2448 20.0867 35.2448 20.1197 35.5746C19.8765 36.608 18.9237 37.4246 18.0811 37.9892C17.7007 38.2144 17.315 38.4243 16.92 38.6226C17.9217 39.9069 19.1409 40.2936 20.72 40.5226C22.0182 40.6365 23.049 40.2554 24.2034 39.6782C24.2034 29.7505 24.2034 19.8229 24.2034 9.5944C22.6499 9.43905 21.3962 9.7156 20.163 10.7048ZM25.9979 9.5944C25.9979 19.5569 25.9979 29.5194 25.9979 39.7837C27.8865 40.6422 29.4218 40.7586 31.3813 40.1004C32.0007 39.8381 32.6277 39.4542 33.0702 38.9393C33.1457 38.7175 33.1457 38.7175 33.1758 38.517C33.0966 38.4823 33.0174 38.4476 32.9358 38.4119C31.7632 37.867 30.7058 37.0605 30.1146 35.8781C30.0667 35.2191 30.0667 35.2191 30.2334 34.9413C30.5175 34.7708 30.7336 34.7302 31.0646 34.717C31.4832 34.8672 31.6786 35.1363 31.9355 35.4823C32.6125 36.3777 33.4293 36.9434 34.548 37.1448C35.8606 37.1468 37.1321 36.2264 38.0314 35.3503C39.7937 33.4873 40.6239 31.0372 40.5647 28.4891C40.5316 27.8886 40.4649 27.2937 40.3823 26.6982C40.3579 26.5154 40.3393 26.3319 40.3219 26.1483C40.2585 25.6448 40.1358 25.3671 39.7665 25.0123C38.9988 24.4276 38.23 24.3366 37.2838 24.2891C37.0247 24.2704 36.8016 24.2345 36.5536 24.1613C36.4749 23.6206 36.447 23.1084 36.4622 22.5614C36.4904 21.3823 36.3194 20.4788 35.4852 19.5906C35.2921 19.4159 35.0973 19.28 34.8779 19.1407C34.548 18.8834 34.548 18.8834 34.4358 18.5074C34.4421 18.1637 34.4534 17.9962 34.6536 17.7223C34.9764 17.5609 35.2558 17.5509 35.6036 17.6167C36.7041 18.0947 37.3648 18.8795 37.8207 19.9691C38.1333 20.8212 38.1895 21.676 38.2425 22.5779C38.3406 22.6047 38.4387 22.6315 38.5398 22.6591C39.1981 22.8424 39.8404 23.0221 40.4592 23.3168C40.6564 20.6221 39.4875 17.6784 37.7807 15.6243C36.6686 14.3404 35.2971 13.4504 33.598 13.1833C33.1834 13.1563 32.773 13.1375 32.3577 13.131C31.947 13.0673 31.8447 12.9784 31.5924 12.6556C31.4621 12.475 31.3347 12.2923 31.2098 12.108C30.3815 10.9624 29.2731 10.0758 27.9045 9.65378C27.2747 9.56657 26.6337 9.5944 25.9979 9.5944ZM24.0669 41.6326C22.7286 42.3665 21.1291 42.2292 19.6645 42.106C19.6645 42.6285 19.6645 43.151 19.6645 43.6893C23.2175 43.6893 26.7706 43.6893 30.4313 43.6893C30.4313 43.2017 30.4313 42.714 30.4313 42.2115C30.1863 42.2189 30.1863 42.2189 29.9365 42.2264C28.3324 42.2601 27.0026 42.1858 25.5427 41.466C24.9307 41.194 24.6355 41.317 24.0669 41.6326ZM19.6645 45.4838C19.6645 46.1805 19.6645 46.8772 19.6645 47.5949C23.2175 47.5949 26.7706 47.5949 30.4313 47.5949C30.4313 46.8983 30.4313 46.2016 30.4313 45.4838C26.8782 45.4838 23.3252 45.4838 19.6645 45.4838ZM21.5645 49.3894C21.4502 50.5558 21.4502 50.5558 21.8152 51.0453C22.1823 51.3688 22.3442 51.4085 22.8212 51.4154C22.929 51.417 23.0368 51.4187 23.1479 51.4205C23.6418 51.4252 24.1357 51.4295 24.6297 51.4319C24.8901 51.4337 25.1506 51.4366 25.411 51.4406C25.7864 51.4464 26.1617 51.4487 26.5372 51.4502C26.6533 51.4526 26.7695 51.455 26.8891 51.4575C27.5851 51.4614 27.5851 51.4614 28.1809 51.1408C28.7363 50.52 28.5312 50.5033 28.5312 49.3894C26.2322 49.3894 23.9332 49.3894 21.5645 49.3894Z" fill="#626262"/>
<path d="M35.3918 27.4336C35.9988 27.9688 36.5895 28.6265 36.7641 29.4391C36.7047 29.8548 36.7047 29.8548 36.553 30.178C36.1636 30.4376 35.844 30.461 35.3918 30.3891C35.1415 30.2125 35.0018 30.011 34.8224 29.7657C34.2568 28.9722 34.2568 28.9722 33.3863 28.6013C32.9808 28.5432 32.7631 28.6736 32.4362 28.9113C32.232 29.1507 32.232 29.1507 32.047 29.4193C31.5592 30.0537 30.9785 30.4528 30.2195 30.7058C29.9561 30.7241 29.6981 30.735 29.4345 30.7388C29.2953 30.7428 29.1561 30.7467 29.0126 30.7508C28.6362 30.7058 28.6362 30.7058 28.3814 30.512C28.1637 30.215 28.1159 30.018 28.1084 29.6502C28.2777 29.2777 28.3978 29.1406 28.7417 28.9113C28.9303 28.8935 29.1197 28.8833 29.3091 28.8784C29.7797 28.8419 29.7797 28.8419 30.18 28.6013C30.3041 28.4413 30.3041 28.4413 30.4307 28.278C31.7769 26.6338 33.5325 26.1666 35.3918 27.4336Z" fill="#626262"/>
<path d="M18.6169 27.1363C19.1509 27.5037 19.5257 27.9654 19.9129 28.4813C20.0713 28.71 20.0713 28.71 20.2996 28.8058C20.4688 28.8193 20.6382 28.8299 20.8076 28.8388C21.1653 28.8734 21.3554 28.9114 21.6785 29.0829C21.9542 29.4209 21.9962 29.6381 21.9885 30.0725C21.8021 30.3682 21.6687 30.5491 21.3552 30.7058C20.3305 30.8047 19.4594 30.6507 18.6437 29.9999C18.3597 29.7417 18.156 29.4569 17.9378 29.1422C17.6779 28.7972 17.5121 28.632 17.0801 28.5617C16.5984 28.5584 16.227 28.6978 15.8662 29.0169C15.552 29.3795 15.2894 29.7678 15.0416 30.178C14.7757 30.4211 14.6856 30.4308 14.3357 30.4485C14.0164 30.428 13.8711 30.3953 13.5902 30.2308C13.3731 29.8533 13.3402 29.5388 13.4384 29.1225C13.6163 28.7783 13.8356 28.4787 14.0718 28.1724C14.1349 28.0788 14.198 27.9852 14.2631 27.8888C15.4195 26.6663 17.1332 26.2832 18.6169 27.1363Z" fill="#626262"/>
<path d="M19.9809 14.7667C20.8949 15.2245 21.4384 15.8793 21.8149 16.8185C22.1127 17.7232 22.0557 18.5376 21.6698 19.4112C21.1317 20.3153 20.3638 20.926 19.3475 21.2057C19.0003 21.2412 19.0003 21.2412 18.6482 21.2453C18.5314 21.2483 18.4147 21.2513 18.2944 21.2544C17.9066 21.1952 17.7891 21.0906 17.553 20.7835C17.432 20.4041 17.4141 20.2275 17.5728 19.8598C17.8884 19.4681 18.2161 19.3942 18.701 19.3255C19.2404 19.2236 19.5015 19.0742 19.8753 18.6723C20.0942 18.2842 20.1405 17.9529 20.0864 17.5112C19.7805 16.8861 19.2605 16.5412 18.7142 16.139C18.6086 16.0334 18.6086 16.0334 18.5822 15.631C18.586 15.3307 18.6017 15.2018 18.7472 14.9316C19.1355 14.572 19.4979 14.6499 19.9809 14.7667Z" fill="#626262"/>
<path d="M31.1697 14.7667C31.4672 15.0407 31.5767 15.2132 31.6514 15.6112C31.5698 16.0459 31.3996 16.1691 31.0642 16.4556C30.9144 16.5851 30.7649 16.7149 30.6156 16.8449C30.5432 16.9062 30.4708 16.9676 30.3962 17.0308C30.1916 17.2206 30.1228 17.3349 30.089 17.6118C30.0701 18.1976 30.1338 18.532 30.5364 18.989C30.8847 19.2846 31.2113 19.3362 31.6514 19.4046C31.9973 19.4629 32.2064 19.5053 32.509 19.6883C32.712 20.0556 32.7291 20.3739 32.6475 20.7835C32.4328 21.1184 32.2832 21.1891 31.902 21.2981C30.898 21.3299 30.0609 21.0989 29.2697 20.4668C28.5266 19.7096 28.2044 19 28.168 17.9466C28.1961 16.8931 28.5135 16.162 29.24 15.3988C29.7714 14.9357 30.4602 14.4626 31.1697 14.7667Z" fill="#626262"/>
<path d="M42.5697 7.1666C42.9133 7.39564 42.9789 7.52716 43.0645 7.93189C42.8933 8.86611 41.8144 9.62684 41.1645 10.2739C41.0211 10.4179 41.0211 10.4179 40.8748 10.5648C40.7836 10.6559 40.6924 10.747 40.5984 10.8409C40.5157 10.9234 40.4331 11.0059 40.348 11.0909C40.0928 11.3292 39.9827 11.3831 39.6339 11.4219C39.2135 11.3807 39.0579 11.2713 38.7697 10.9667C38.6544 10.667 38.6451 10.5071 38.7309 10.1986C38.9204 9.82108 39.1903 9.5547 39.4888 9.2629C39.5489 9.20298 39.609 9.14306 39.671 9.08133C39.7976 8.95534 39.9247 8.82974 40.0521 8.7045C40.2475 8.51238 40.4418 8.31915 40.6359 8.12569C40.7592 8.0033 40.8827 7.88097 41.0062 7.75871C41.0644 7.70088 41.1227 7.64305 41.1828 7.58346C41.6851 7.09053 41.8671 7.00912 42.5697 7.1666Z" fill="#626262"/>
<path d="M46.2718 24.0911C46.3635 24.0906 46.4552 24.0901 46.5497 24.0896C46.7431 24.0892 46.9366 24.0902 47.1299 24.0924C47.4254 24.0952 47.7205 24.0924 48.0159 24.0891C48.2042 24.0894 48.3925 24.0901 48.5808 24.0911C48.7128 24.0895 48.7128 24.0895 48.8474 24.0879C49.3009 24.097 49.486 24.1218 49.8574 24.406C50.0652 24.689 50.0652 24.689 50.1246 25.0651C50.0569 25.4787 49.9708 25.5995 49.643 25.8501C49.3017 26.0208 48.9275 25.9752 48.5524 25.9771C48.4212 25.978 48.4212 25.978 48.2873 25.979C48.1019 25.98 47.9166 25.9806 47.7312 25.9811C47.4483 25.9821 47.1655 25.9853 46.8827 25.9887C46.7025 25.9894 46.5224 25.9899 46.3423 25.9903C46.2579 25.9916 46.1736 25.9929 46.0867 25.9943C45.6019 25.9923 45.2873 25.9527 44.8929 25.639C44.7273 25.3077 44.7502 25.0544 44.7874 24.689C45.2161 24.1 45.5948 24.0829 46.2718 24.0911Z" fill="#626262"/>
<path d="M39.9312 38.7281C40.2328 38.9499 40.5011 39.2128 40.7756 39.467C40.8668 39.5511 40.9579 39.6352 41.0518 39.7219C41.3501 40.001 41.6436 40.2843 41.9368 40.5687C41.9879 40.6165 42.039 40.6643 42.0916 40.7135C42.942 41.5093 42.942 41.5093 43.0642 41.9324C43.0723 42.2831 43.0137 42.4973 42.8142 42.7854C42.5389 42.9714 42.374 43.0398 42.0423 43.0559C41.5451 42.9164 41.2411 42.6145 40.8894 42.2544C40.8319 42.1966 40.7743 42.1388 40.715 42.0793C40.594 41.9576 40.4733 41.8355 40.353 41.713C40.1686 41.5252 39.983 41.3386 39.7972 41.1522C39.6796 41.0337 39.5621 40.915 39.4446 40.7964C39.3891 40.7404 39.3336 40.6844 39.2764 40.6267C38.9151 40.2583 38.7811 40.1085 38.7305 39.5857C38.7356 39.2313 38.7525 39.171 38.9944 38.8864C39.3674 38.6918 39.5167 38.6387 39.9312 38.7281Z" fill="#626262"/>
<path d="M10.7978 38.7281C11.1013 38.8865 11.1013 38.8865 11.3256 39.1504C11.397 39.5074 11.4217 39.6588 11.3256 39.9948C11.1929 40.1844 11.1929 40.1844 11.0164 40.3758C10.9494 40.4489 10.8825 40.522 10.8135 40.5973C10.7387 40.6772 10.6638 40.757 10.5867 40.8393C10.5064 40.927 10.4262 41.0147 10.3435 41.1051C10.0806 41.3895 9.81307 41.6688 9.54435 41.9476C9.45495 42.0445 9.36556 42.1414 9.27345 42.2412C8.52402 43.0124 8.52402 43.0124 7.95069 43.0267C7.61248 42.9974 7.53125 42.955 7.25508 42.7327C7.06244 42.339 7.05018 42.1195 7.10335 41.6837C7.27229 41.4148 7.48923 41.209 7.71937 40.9918C7.78213 40.9299 7.84489 40.8679 7.90955 40.8041C8.10975 40.6073 8.3124 40.4133 8.51517 40.2191C8.65085 40.0862 8.78638 39.9532 8.92173 39.82C10.1067 38.6604 10.1067 38.6604 10.7978 38.7281Z" fill="#626262"/>
<path d="M1.61355 23.9287C1.73752 23.9278 1.73752 23.9278 1.86399 23.9269C2.03878 23.9259 2.21358 23.9252 2.38837 23.9248C2.65503 23.9238 2.9216 23.9205 3.18824 23.9172C3.35826 23.9165 3.52828 23.9159 3.6983 23.9155C3.81741 23.9136 3.81741 23.9136 3.93892 23.9116C4.4155 23.9136 4.72107 23.9691 5.09775 24.2668C5.34494 24.6376 5.36125 24.7803 5.30887 25.2168C5.15754 25.497 5.15754 25.497 4.88664 25.7446C4.55508 25.824 4.2301 25.8186 3.89045 25.8147C3.79364 25.8152 3.69684 25.8157 3.5971 25.8162C3.39267 25.8166 3.18824 25.8156 2.98383 25.8134C2.67097 25.8106 2.35852 25.8134 2.04567 25.8168C1.84693 25.8164 1.64818 25.8157 1.44944 25.8147C1.35597 25.8158 1.2625 25.8168 1.16619 25.8179C0.519568 25.8056 0.519568 25.8056 0.183167 25.4961C-0.00429642 25.152 -0.0334053 24.97 0.0310164 24.5835C0.456146 23.9238 0.880628 23.9328 1.61355 23.9287Z" fill="#626262"/>
<path d="M8.47554 7.16658C8.73829 7.33793 8.95104 7.5482 9.17114 7.77064C9.23336 7.83175 9.29557 7.89286 9.35967 7.95582C9.49023 8.08502 9.61998 8.21504 9.74895 8.34582C9.94621 8.54488 10.1471 8.73967 10.3486 8.93445C10.4753 9.06087 10.6018 9.18751 10.7281 9.31441C10.7881 9.37207 10.8482 9.42972 10.91 9.48912C11.2159 9.80605 11.363 10.0177 11.3736 10.4667C11.3256 10.8611 11.3256 10.8611 11.1541 11.1184C10.8436 11.3226 10.6419 11.3813 10.27 11.3889C9.82111 11.167 9.48808 10.8474 9.14022 10.4945C9.05737 10.4116 9.05737 10.4116 8.97285 10.327C8.85692 10.2107 8.74126 10.0943 8.62584 9.97752C8.4488 9.79855 8.27092 9.62044 8.0929 9.44244C7.98014 9.32917 7.86744 9.21585 7.75478 9.10248C7.70157 9.04914 7.64836 8.99581 7.59353 8.94087C7.11785 8.45865 7.11785 8.45865 7.07031 8.03082C7.11086 7.61722 7.23974 7.46077 7.52553 7.16658C7.86956 6.99456 8.10782 7.07722 8.47554 7.16658Z" fill="#626262"/>
<path d="M25.5774 0.0942629C25.7929 0.282049 25.8822 0.435264 25.9239 0.718998C25.9379 0.976399 25.9408 1.23181 25.9399 1.4896C25.9404 1.58406 25.941 1.67852 25.9416 1.77584C25.9422 1.9753 25.9421 2.17475 25.9412 2.3742C25.9403 2.67935 25.9433 2.9843 25.9467 3.28943C25.9469 3.48336 25.9468 3.67729 25.9465 3.87123C25.9483 4.00797 25.9483 4.00797 25.9501 4.14748C25.9427 4.77946 25.9427 4.77946 25.6929 5.11276C25.4539 5.2791 25.3379 5.32384 25.0497 5.31934C24.9452 5.32097 24.9452 5.32097 24.8385 5.32264C24.5151 5.23673 24.4067 5.11318 24.2052 4.84433C24.1427 4.52014 24.1486 4.20052 24.1528 3.87123C24.1527 3.77676 24.1525 3.6823 24.1524 3.58498C24.1525 3.38552 24.1538 3.18606 24.156 2.98662C24.159 2.68148 24.1581 2.37654 24.1568 2.0714C24.1574 1.87746 24.1583 1.68353 24.1594 1.4896C24.1591 1.39843 24.1588 1.30727 24.1585 1.21335C24.1644 0.839379 24.1688 0.584862 24.3466 0.251155C24.7339 -0.0955415 25.1015 -0.0162222 25.5774 0.0942629Z" fill="#626262"/>
</svg>
