<svg width="51" height="50" viewBox="0 0 51 50" fill="none" xmlns="http://www.w3.org/2000/svg">
<path d="M20.5271 0.00124797C20.7414 0.00229511 20.9555 0.00124848 21.1697 1.0421e-05C22.4829 -0.00133979 23.7795 0.12851 25.0671 0.392219C25.1478 0.408711 25.2285 0.425204 25.3117 0.442197C26.1974 0.63121 27.0534 0.89333 27.9062 1.19644C27.9841 1.22405 28.0619 1.25166 28.1421 1.28011C30.0195 1.9593 31.7888 2.89278 33.3651 4.12086C33.502 4.22698 33.502 4.22698 33.6416 4.33525C35.0182 5.43374 36.2358 6.66879 37.3619 8.0201C37.78 7.60191 38.1982 7.18371 38.6291 6.75285C38.5648 6.57994 38.5004 6.40703 38.4341 6.22889C38.1247 5.28944 38.1621 4.45779 38.5316 3.53598C38.9119 2.82176 39.379 2.35428 40.0913 1.97628C40.1793 1.92671 40.1793 1.92671 40.2691 1.87614C40.9736 1.54452 41.8746 1.57485 42.6171 1.75124C43.5541 2.09736 44.1955 2.66181 44.6729 3.53598C44.7373 3.69682 44.8016 3.85767 44.8679 4.02338C46.5407 4.05555 48.2134 4.08772 49.9369 4.12086C49.9369 4.6999 49.9369 5.27894 49.9369 5.87552C48.2641 5.87552 46.5913 5.87552 44.8679 5.87552C44.7231 6.3098 44.7231 6.3098 44.5754 6.75285C44.0746 7.53766 43.2951 8.13437 42.3947 8.36395C41.4698 8.53023 40.7684 8.34839 39.8964 8.0201C39.4138 8.50263 38.9313 8.98516 38.4341 9.48231C38.6627 9.947 38.8936 10.4087 39.1435 10.8623C40.4033 13.1636 41.2228 15.6496 41.5535 18.2556C41.5627 18.3258 41.5719 18.396 41.5814 18.4684C41.6701 19.2321 41.6747 19.9978 41.6754 20.7657C41.6754 20.8367 41.6755 20.9077 41.6756 20.9808C41.6738 22.2048 41.592 23.388 41.3586 24.5919C41.3418 24.6798 41.3251 24.7677 41.3079 24.8584C40.8429 27.2355 40.0312 29.7485 38.6086 31.7345C38.5028 31.9659 38.5412 32.0553 38.6291 32.2928C38.8 32.5064 38.8 32.5064 39.0218 32.7194C39.1064 32.8041 39.191 32.8888 39.2781 32.9761C39.3726 33.0692 39.467 33.1623 39.5615 33.2554C39.6605 33.354 39.7595 33.4527 39.8584 33.5514C40.0715 33.7639 40.2851 33.976 40.4991 34.1878C40.8378 34.523 41.1755 34.8593 41.513 35.1958C42.1694 35.8499 42.8269 36.5028 43.4845 37.1556C44.3198 37.9851 45.1547 38.815 45.9886 39.6459C46.3237 39.9797 46.6594 40.3131 46.9955 40.646C47.2053 40.8541 47.4147 41.0625 47.624 41.2711C47.7206 41.3671 47.8174 41.463 47.9143 41.5587C48.5928 42.2288 49.2433 42.8852 49.6262 43.7712C49.665 43.8592 49.7038 43.9471 49.7438 44.0378C50.1164 44.9938 50.0819 46.2573 49.7419 47.2135C49.2112 48.3885 48.3069 49.264 47.1099 49.7419C46.0864 50.0893 44.8304 50.1059 43.8321 49.6692C42.6323 49.0357 41.7011 48.0523 40.7519 47.0993C40.6567 47.004 40.5615 46.9088 40.4663 46.8136C40.2109 46.5583 39.9559 46.3027 39.7009 46.0471C39.4332 45.7787 39.1652 45.5107 38.8973 45.2427C38.3914 44.7364 37.8857 44.2299 37.3801 43.7234C36.8039 43.146 36.2274 42.569 35.6508 41.992C34.4662 40.8064 33.2819 39.6204 32.0979 38.4341C32.006 38.4871 31.9141 38.5401 31.8195 38.5947C31.6968 38.6652 31.5741 38.7357 31.4513 38.8061C31.391 38.8409 31.3308 38.8757 31.2686 38.9116C26.4076 41.7 20.6056 42.398 15.2059 40.937C14.451 40.722 13.7171 40.4588 12.9884 40.1677C12.8211 40.1011 12.6527 40.0373 12.484 39.974C9.37781 38.7672 6.54522 36.4635 4.51079 33.8525C4.39732 33.714 4.39732 33.714 4.28155 33.5727C1.45968 30.0565 -0.0230385 25.5506 0.00124711 21.0619C0.00229547 20.8325 0.00124749 20.6031 9.55999e-06 20.3737C-0.00124444 19.0814 0.120813 17.8205 0.39831 16.5558C0.415055 16.4787 0.431799 16.4016 0.44905 16.3221C1.04543 13.6488 2.10497 11.0183 3.73094 8.79995C3.80583 8.69741 3.88072 8.59487 3.95789 8.48923C4.51747 7.73684 5.12988 7.04007 5.77804 6.36292C5.82877 6.30902 5.87951 6.25511 5.93178 6.19957C9.66268 2.24789 15.1039 -0.0300931 20.5271 0.00124797ZM14.4538 2.75613C14.3795 2.78274 14.3052 2.80935 14.2286 2.83676C11.6413 3.78017 9.39984 5.21577 7.43521 7.14277C7.34838 7.22583 7.26155 7.30889 7.17209 7.39447C3.65448 10.8151 1.76329 15.7085 1.66099 20.5741C1.64531 22.7981 2.0042 25.0326 2.75613 27.1264C2.78274 27.2007 2.80935 27.275 2.83676 27.3516C3.4989 29.1675 4.38703 30.868 5.58308 32.3903C5.62319 32.4416 5.66331 32.4928 5.70464 32.5456C6.82358 33.9571 8.11524 35.2397 9.57979 36.2896C9.66622 36.3517 9.66622 36.3517 9.75438 36.415C13.7835 39.2757 18.8307 40.4567 23.7145 39.7014C23.8417 39.6824 23.9689 39.6634 24.0999 39.6439C28.3337 38.9312 32.602 36.6364 35.3148 33.2677C35.3956 33.1699 35.4764 33.0721 35.5596 32.9714C37.0936 31.0902 38.269 28.9467 39.019 26.639C39.042 26.5699 39.065 26.5008 39.0886 26.4296C40.6346 21.6914 40.0384 16.49 37.8282 12.0724C37.0857 10.6313 36.1697 9.35045 35.1198 8.11758C35.0536 8.0393 34.9873 7.96101 34.9191 7.88035C34.4981 7.39372 34.0521 6.97112 33.5601 6.55789C33.4268 6.43933 33.4268 6.43933 33.2909 6.31837C28.2222 1.84075 20.8088 0.473877 14.4538 2.75613ZM40.2452 4.09764C39.9828 4.54063 39.942 4.94146 40.0197 5.44676C40.1848 5.98586 40.5285 6.27374 40.9991 6.55789C41.579 6.71514 42.0204 6.6636 42.5588 6.39948C42.9314 6.07023 43.1684 5.75868 43.2446 5.26703C43.2633 4.7833 43.1963 4.43122 42.9183 4.02338C42.5337 3.63565 42.1831 3.42727 41.6327 3.40194C41.0421 3.41156 40.616 3.63821 40.2452 4.09764ZM37.2644 33.5601C37.135 33.7147 37.0088 33.8721 36.884 34.0304C36.4083 34.6178 35.8943 35.1542 35.3574 35.6864C35.2703 35.7743 35.1831 35.8622 35.0933 35.9528C34.6098 36.4348 34.1225 36.8763 33.5601 37.2644C34.0017 37.7944 34.4709 38.2845 34.9614 38.7692C35.069 38.8762 35.069 38.8762 35.1788 38.9853C35.3539 39.1593 35.5292 39.333 35.7047 39.5064C36.0105 39.3709 36.2169 39.213 36.4521 38.9761C36.5545 38.8737 36.5545 38.8737 36.659 38.7692C36.7679 38.6588 36.7679 38.6588 36.879 38.5461C36.9542 38.4706 37.0294 38.3952 37.1068 38.3174C37.3466 38.0765 37.5858 37.835 37.8249 37.5934C37.9874 37.4298 38.15 37.2664 38.3127 37.1029C38.7111 36.7023 39.109 36.3012 39.5064 35.8996C39.3413 35.548 39.146 35.3204 38.8694 35.0452C38.7825 34.9585 38.6956 34.8718 38.6061 34.7824C38.5152 34.6927 38.4242 34.603 38.3306 34.5105C38.2383 34.4184 38.1461 34.3263 38.0539 34.2341C37.7036 33.8089 37.7036 33.8089 37.2644 33.5601ZM40.6213 37.21C40.5557 37.2758 40.4902 37.3417 40.4226 37.4095C40.3484 37.4836 40.2743 37.5578 40.1979 37.6342C40.1173 37.7152 40.0368 37.7962 39.9539 37.8797C39.8718 37.9619 39.7897 38.0442 39.7051 38.1289C39.4417 38.3929 39.1786 38.6572 38.9155 38.9215C38.7375 39.1 38.5594 39.2785 38.3814 39.4569C37.9438 39.8956 37.5065 40.3345 37.0694 40.7737C37.4494 41.2277 37.8434 41.66 38.2616 42.079C38.3192 42.1371 38.3768 42.1953 38.4362 42.2551C38.6247 42.4451 38.8137 42.6347 39.0027 42.8242C39.0677 42.8895 39.1327 42.9549 39.1998 43.0222C39.5437 43.3676 39.888 43.7127 40.2324 44.0576C40.5864 44.4121 40.9395 44.7675 41.2923 45.1231C41.5655 45.3982 41.8394 45.6726 42.1135 45.9468C42.2439 46.0775 42.374 46.2084 42.5039 46.3396C43.8408 47.7543 43.8408 47.7543 45.6477 48.2797C46.471 48.1787 47.1131 47.9369 47.664 47.3144C48.1398 46.6834 48.3077 46.001 48.2675 45.214C48.1157 44.3079 47.4592 43.6132 46.8265 42.99C46.7619 42.9252 46.6974 42.8605 46.6308 42.7937C46.42 42.5826 46.2081 42.3725 45.9961 42.1624C45.8485 42.0151 45.701 41.8677 45.5535 41.7203C45.2458 41.413 44.9376 41.1063 44.629 40.7998C44.2326 40.4062 43.837 40.0116 43.4417 39.6168C43.1378 39.3133 42.8336 39.01 42.5293 38.7069C42.3832 38.5614 42.2372 38.4158 42.0912 38.2702C41.8882 38.0679 41.6849 37.8659 41.4814 37.664C41.4207 37.6034 41.36 37.5428 41.2975 37.4803C40.9883 37.0769 40.9883 37.0769 40.6213 37.21Z" fill="#626262"/>
<path d="M31.4159 6.85031C31.5029 6.91653 31.5898 6.98276 31.6794 7.05098C35.2685 9.8557 37.6142 13.9934 38.2152 18.5054C38.7923 23.2854 37.5305 27.9395 34.5779 31.7384C34.2017 32.2151 33.8111 32.6589 33.3655 33.0727C33.2851 33.1531 33.2047 33.2335 33.1218 33.3164C33.0414 33.3968 32.961 33.4772 32.8781 33.5601C32.8292 33.6107 32.7803 33.6613 32.7299 33.7134C29.7757 36.7397 25.2655 38.2833 21.1105 38.353C17.2192 38.3842 13.5027 37.2111 10.36 34.9187C10.2843 34.8636 10.2085 34.8085 10.1304 34.7517C9.60921 34.3621 9.15273 33.932 8.70286 33.4626C8.62445 33.3842 8.54603 33.3058 8.46525 33.225C8.38281 33.1426 8.30038 33.0601 8.21545 32.9752C8.15602 32.9214 8.09658 32.8676 8.03534 32.8122C6.83435 31.6875 5.93928 30.2397 5.19354 28.7835C5.16268 28.7237 5.13181 28.6638 5.10001 28.6021C4.60316 27.6253 4.24436 26.614 3.92629 25.5666C3.89626 25.4701 3.86623 25.3736 3.83528 25.2742C2.60692 20.8954 3.40695 16.0465 5.58347 12.1143C6.60787 10.3447 7.96225 8.60285 9.58019 7.33772C9.63313 7.29595 9.68608 7.25418 9.74064 7.21115C12.1693 5.30625 14.8317 4.11271 17.8661 3.53596C17.9758 3.51384 18.0855 3.49173 18.1985 3.46894C22.8164 2.69119 27.7234 4.02582 31.4159 6.85031ZM17.5736 5.3881C17.5096 5.40219 17.4455 5.41628 17.3795 5.43079C15.1212 5.94446 12.95 6.96241 11.1399 8.41001C11.083 8.45535 11.0262 8.5007 10.9676 8.54742C9.29281 9.89924 8.00168 11.5063 6.9482 13.3815C6.85773 13.5421 6.85773 13.5421 6.76542 13.706C6.14402 14.8766 5.67348 16.1633 5.48599 17.4757C6.45105 17.4757 7.41611 17.4757 8.41041 17.4757C8.6356 17.0575 8.86078 16.6393 9.09278 16.2085C9.85884 15.4054 10.603 15.0872 11.7111 15.0357C12.6518 15.045 13.435 15.3963 14.1374 16.0196C14.8468 16.7885 15.0109 17.6823 14.9786 18.7007C14.9325 19.1185 14.8156 19.4318 14.6492 19.8153C14.684 20.1643 14.8355 20.3298 15.0799 20.5716C15.1501 20.6418 15.2204 20.7121 15.2928 20.7844C15.369 20.8592 15.4453 20.9339 15.5239 21.0109C15.6016 21.0883 15.6794 21.1656 15.7595 21.2453C16.0081 21.4923 16.2578 21.7383 16.5074 21.9842C16.6761 22.1514 16.8447 22.3187 17.0133 22.4861C17.4268 22.8963 17.8411 23.3057 18.256 23.7145C18.3213 23.6943 18.3865 23.6741 18.4538 23.6533C18.5403 23.6269 18.6268 23.6005 18.716 23.5732C18.8441 23.5339 18.8441 23.5339 18.9747 23.4938C19.9255 23.2275 20.7504 23.3765 21.6678 23.7145C21.7151 23.6661 21.7623 23.6178 21.811 23.5679C21.8763 23.5017 21.9417 23.4355 22.009 23.3672C22.0723 23.3028 22.1357 23.2383 22.2009 23.1719C22.3953 22.985 22.5918 22.8091 22.7961 22.6337C23.5336 21.99 24.221 21.2921 24.916 20.6033C25.0951 20.4263 25.2749 20.2499 25.4552 20.0741C25.7164 19.8194 25.9757 19.5628 26.2346 19.3058C26.3158 19.2273 26.397 19.1488 26.4807 19.0679C26.5543 18.994 26.6279 18.9201 26.7037 18.844C26.7691 18.7796 26.8345 18.7152 26.9019 18.6489C27.0554 18.4544 27.0554 18.4544 27.0072 18.1997C26.952 18.0265 26.8926 17.8546 26.8309 17.6836C26.5491 16.7687 26.6913 15.8539 27.0795 14.9983C27.5298 14.2139 28.1648 13.7477 29.0276 13.4912C29.9047 13.2863 30.5709 13.3796 31.4159 13.674C31.5124 13.7061 31.6089 13.7383 31.7084 13.7715C32.3517 13.1281 32.9951 12.4847 33.658 11.8218C32.9989 10.5037 31.7891 9.39406 30.6361 8.50749C30.5437 8.43423 30.4513 8.36097 30.3562 8.28549C26.7869 5.51253 21.9953 4.40306 17.5736 5.3881ZM34.3721 13.4362C34.3032 13.5056 34.2343 13.575 34.1633 13.6466C34.0888 13.7213 34.0144 13.7961 33.9377 13.8731C33.8203 13.9917 33.8203 13.9917 33.7006 14.1126C33.622 14.1917 33.5434 14.2707 33.4624 14.3522C33.2674 14.5483 33.0727 14.7447 32.8781 14.9412C32.9203 15.0632 32.9203 15.0632 32.9634 15.1876C33.3762 16.439 33.3661 17.3538 32.7746 18.5652C32.4638 19.0517 32.0099 19.3421 31.5134 19.6203C31.4545 19.6537 31.3955 19.6872 31.3348 19.7216C30.6525 20.0397 29.7329 20.0394 29.0173 19.8431C28.841 19.7713 28.6661 19.6961 28.4915 19.6203C28.0822 19.6419 27.8537 19.9264 27.583 20.2031C27.5326 20.2535 27.4821 20.3039 27.4302 20.3559C27.2638 20.5224 27.0986 20.6899 26.9333 20.8575C26.8181 20.9732 26.7028 21.0889 26.5875 21.2046C26.2843 21.5089 25.9819 21.8141 25.6798 22.1195C25.3712 22.431 25.0619 22.7417 24.7526 23.0525C24.1459 23.6623 23.5402 24.273 22.9351 24.8843C22.9553 24.9496 22.9755 25.015 22.9963 25.0823C23.0227 25.1689 23.0491 25.2555 23.0763 25.3446C23.1026 25.4301 23.1288 25.5156 23.1558 25.6036C23.4165 26.5323 23.3597 27.4371 22.8863 28.29C22.8053 28.4222 22.7241 28.5542 22.6426 28.686C22.6135 28.7545 22.5843 28.823 22.5543 28.8936C22.4181 29.1265 22.3044 29.1665 22.0577 29.2709C21.9732 29.3183 21.8886 29.3657 21.8015 29.4145C20.8802 29.9138 20.0973 30.0725 19.0701 29.8295C18.0945 29.5265 17.4978 28.9759 16.9887 28.1011C16.612 27.2938 16.6165 26.3062 16.8913 25.4692C16.9556 25.3083 17.0199 25.1475 17.0862 24.9818C15.8638 23.7593 14.6414 22.5369 13.3819 21.2775C13.0603 21.374 12.7386 21.4705 12.4071 21.5699C11.5278 21.6675 10.7495 21.6124 9.97011 21.18C9.90728 21.1458 9.84445 21.1116 9.77972 21.0764C9.08957 20.6443 8.75873 19.9829 8.5079 19.2304C7.41416 19.2304 6.32042 19.2304 5.19354 19.2304C4.63412 22.0275 5.41833 25.1959 6.65576 27.7112C6.68565 27.7727 6.71554 27.8342 6.74634 27.8976C7.36482 29.1557 8.13371 30.2754 9.09088 31.3013C9.26345 31.4869 9.42557 31.6766 9.58628 31.8724C11.9873 34.6779 15.9663 36.231 19.5602 36.5511C23.7019 36.8612 27.7665 35.5909 30.9555 32.9112C31.0431 32.8358 31.1307 32.7604 31.2209 32.6828C31.3115 32.6053 31.4021 32.5279 31.4955 32.4482C32.127 31.8931 32.6604 31.3029 33.1706 30.6357C33.2331 30.5564 33.2331 30.5564 33.2969 30.4755C35.8667 27.2154 36.9574 23.0589 36.5025 18.9464C36.2491 16.9468 35.6676 15.0241 34.6328 13.2841C34.51 13.273 34.51 13.273 34.3721 13.4362ZM28.7234 15.5973C28.3856 16.0767 28.2974 16.5086 28.394 17.0858C28.5719 17.5998 28.8431 17.8459 29.2713 18.1581C29.7375 18.3135 30.1911 18.3494 30.6581 18.1741C31.0863 17.9352 31.3645 17.6613 31.5557 17.2069C31.6793 16.7173 31.6484 16.2539 31.3992 15.8102C31.009 15.3131 30.5869 15.0895 29.9598 14.9961C29.466 15.0666 29.0689 15.2285 28.7234 15.5973ZM10.3661 17.3843C10.0638 17.815 10.025 18.1258 10.0676 18.6455C10.244 19.1595 10.4804 19.5175 10.9449 19.8153C11.4486 19.9832 11.9301 19.9767 12.4315 19.8031C12.8389 19.5253 13.1254 19.2201 13.2845 18.743C13.3256 18.1158 13.2791 17.7105 12.8515 17.2157C12.4868 16.8594 12.1656 16.697 11.6536 16.6734C11.1182 16.7278 10.7154 16.9841 10.3661 17.3843ZM18.6094 25.7433C18.368 26.2168 18.3215 26.5679 18.4205 27.0898C18.6277 27.6226 18.9047 27.9563 19.4258 28.1986C19.9392 28.3222 20.3005 28.3008 20.7905 28.1011C21.1849 27.7695 21.5281 27.4287 21.6016 26.9028C21.6286 26.3063 21.549 25.9418 21.1804 25.4692C20.7153 25.1063 20.3484 25.0151 19.7601 25.0419C19.2507 25.1222 18.9438 25.3473 18.6094 25.7433Z" fill="#626262"/>
</svg>
