<svg width="95" height="77" viewBox="0 0 95 77" fill="none" xmlns="http://www.w3.org/2000/svg">
<path d="M27.3276 0.00598737C27.5637 0.00513126 27.7997 0.00427514 28.043 0.00339309C28.6935 0.0011155 29.3441 0.00222835 29.9946 0.00393432C30.6981 0.00518095 31.4015 0.00325697 32.1049 0.00175016C33.4811 -0.000685348 34.8572 -0.000165162 36.2334 0.00142782C37.3522 0.00266909 38.471 0.00283448 39.5898 0.00223794C39.7493 0.00215384 39.9088 0.00206975 40.073 0.00198311C40.397 0.00180764 40.721 0.00162971 41.045 0.00144936C44.0803 -0.000114157 47.1156 0.00168157 50.1509 0.00463257C52.7533 0.00708432 55.3556 0.0066584 57.9579 0.00412836C60.9826 0.00118901 64.0074 3.65622e-05 67.0321 0.00172039C67.3548 0.0018952 67.6776 0.00206773 68.0004 0.00223794C68.1592 0.0023226 68.318 0.00240727 68.4816 0.0024945C69.5985 0.0029676 70.7155 0.00217014 71.8325 0.000877173C73.1944 -0.00066472 74.5563 -0.000239789 75.9183 0.00267763C76.6127 0.00411624 77.307 0.00469099 78.0014 0.00287017C78.7551 0.000923596 79.5088 0.0032537 80.2626 0.00598737C80.4806 0.00476316 80.6986 0.00353896 80.9232 0.00227765C83.1624 0.0180118 84.7536 0.509011 86.3558 2.07363C87.6387 3.44265 88.0551 4.76989 88.0537 6.62963C88.0539 6.81456 88.0539 6.81456 88.0542 7.00324C88.0545 7.415 88.0535 7.82674 88.0524 8.2385C88.0524 8.53421 88.0524 8.82991 88.0525 9.12562C88.0526 9.92757 88.0515 10.7295 88.0502 11.5315C88.049 12.3699 88.0489 13.2082 88.0487 14.0466C88.0481 15.6339 88.0466 17.2211 88.0448 18.8084C88.0427 20.6156 88.0417 22.4227 88.0408 24.2299C88.0388 27.9471 88.0356 31.6643 88.0314 35.3815C88.2179 35.3762 88.4043 35.3709 88.5964 35.3654C88.8457 35.3611 89.0949 35.3569 89.3442 35.3529C89.5879 35.3476 89.8316 35.3423 90.0827 35.3368C91.565 35.4282 92.7702 36.1336 93.7799 37.1879C94.9839 38.587 94.9605 40.1668 94.9564 41.9108C94.9578 42.1622 94.9594 42.4135 94.9612 42.6649C94.9653 43.3441 94.9658 44.0233 94.9655 44.7025C94.9654 45.2712 94.967 45.8398 94.9686 46.4085C94.9721 47.751 94.9727 49.0935 94.9714 50.436C94.9702 51.8172 94.9744 53.1983 94.9813 54.5796C94.987 55.7689 94.9891 56.9581 94.9884 58.1474C94.988 58.8563 94.989 59.565 94.9935 60.2738C94.9976 60.9408 94.9973 61.6077 94.9935 62.2747C94.9926 62.6335 94.9962 62.9923 95 63.3511C94.983 65.1279 94.5494 66.3937 93.3635 67.7375C91.6967 69.2272 89.6639 69.1549 87.5471 69.1509C87.2314 69.1523 86.9158 69.1539 86.6001 69.1557C85.9409 69.1584 85.2817 69.1583 84.6225 69.1564C83.7833 69.1542 82.9444 69.1604 82.1053 69.1689C81.454 69.1744 80.8027 69.1746 80.1514 69.1735C79.8423 69.1737 79.5332 69.1756 79.2241 69.1793C77.3128 69.1994 75.7703 69.0852 74.1518 67.9433C72.8107 66.6333 72.2786 65.2439 72.2382 63.3889C72.2383 62.9019 72.2413 62.4156 72.247 61.9287C72.248 61.6686 72.2488 61.4084 72.2494 61.1483C72.2515 60.4689 72.2569 59.7896 72.2631 59.1103C72.2698 58.2923 72.2723 57.4744 72.2756 56.6564C72.2809 55.4185 72.2916 54.1808 72.3012 52.9429C68.8202 52.9429 65.3392 52.9429 61.7527 52.9429C61.7527 55.0558 61.7527 57.1686 61.7527 59.3455C63.2947 59.3094 63.2947 59.3094 64.8364 59.2631C66.611 59.2421 66.611 59.2421 67.1745 59.7657C67.5881 60.4147 67.6144 60.7872 67.4896 61.5407C67.0791 62.0725 66.8383 62.2431 66.1942 62.4553C65.8606 62.473 65.5263 62.48 65.1922 62.481C64.9842 62.4821 64.7761 62.4831 64.5617 62.4842C64.3333 62.4844 64.1048 62.4846 63.8695 62.4848C63.5088 62.4862 63.5088 62.4862 63.1408 62.4876C62.4808 62.49 61.8209 62.4911 61.1609 62.492C60.7486 62.4925 60.3362 62.4932 59.9239 62.4941C58.6337 62.4966 57.3436 62.4983 56.0534 62.499C54.5642 62.4999 53.075 62.5031 51.5858 62.5084C50.4345 62.5123 49.2833 62.5142 48.132 62.5144C47.4445 62.5146 46.7569 62.5157 46.0694 62.5189C45.3024 62.5225 44.5356 62.5217 43.7686 62.5205C43.5409 62.5222 43.3133 62.5239 43.0787 62.5256C42.8696 62.5246 42.6604 62.5236 42.445 62.5226C42.173 62.523 42.173 62.523 41.8956 62.5234C41.2976 62.4419 40.9554 62.2578 40.4707 61.9065C40.1006 61.3577 40.1006 61.3577 40.1353 60.7175C40.2804 60.0996 40.3353 59.8882 40.8408 59.5284C41.3334 59.285 41.7083 59.3249 42.2591 59.3276C42.4461 59.3281 42.633 59.3285 42.8256 59.329C43.0638 59.3307 43.3019 59.3323 43.5473 59.3341C44.6809 59.3397 44.6809 59.3397 45.8375 59.3455C45.8375 57.2326 45.8375 55.1198 45.8375 52.9429C42.4786 52.9429 39.1197 52.9429 35.6591 52.9429C35.6655 54.2158 35.672 55.4887 35.6786 56.8002C35.6815 57.6088 35.6841 58.4175 35.6862 59.2262C35.6895 60.5084 35.6934 61.7906 35.701 63.0728C35.707 64.1071 35.7103 65.1414 35.7118 66.1757C35.7128 66.5694 35.7148 66.963 35.7178 67.3567C35.7219 67.9101 35.7224 68.4634 35.7221 69.0168C35.7241 69.1779 35.7261 69.339 35.7282 69.5049C35.7181 71.5322 35.0312 73.3726 33.6639 74.8961C32.2582 76.2116 30.4923 76.925 28.5635 76.9339C28.3677 76.9352 28.1719 76.9365 27.9701 76.9378C27.6507 76.9386 27.6507 76.9386 27.3248 76.9393C27.099 76.9405 26.8732 76.9417 26.6405 76.9429C25.8932 76.9466 25.1459 76.9487 24.3986 76.9505C24.1403 76.9513 23.882 76.952 23.6238 76.9528C22.4096 76.9563 21.1954 76.9589 19.9812 76.9604C18.5846 76.9622 17.188 76.967 15.7914 76.9744C14.7088 76.9799 13.6262 76.9826 12.5436 76.9832C11.8985 76.9836 11.2535 76.9853 10.6084 76.9899C9.887 76.995 9.16564 76.9942 8.4442 76.9929C8.1287 76.9964 8.1287 76.9964 7.80683 77C5.4784 76.9852 3.69402 76.319 2.00252 74.7589C-0.0155181 72.6956 -0.00736524 70.3195 0.00759784 67.6278C0.00634215 67.2472 0.00469359 66.8665 0.00268441 66.4859C-0.00151496 65.4574 9.31547e-05 64.4291 0.00303456 63.4006C0.00538697 62.3213 0.00320253 61.242 0.00175255 60.1627C7.1956e-05 58.3507 0.00228024 56.5386 0.00669422 54.7266C0.0117294 52.6354 0.0100994 50.5443 0.00500558 48.4532C0.000798509 46.6536 0.000215975 44.8541 0.00263358 43.0545C0.00407173 41.9815 0.00428202 40.9086 0.0012132 39.8356C-0.00147149 38.8266 0.000413627 37.8176 0.00573977 36.8086C0.00695702 36.4396 0.00662475 36.0706 0.00457353 35.7016C-0.00896798 33.0169 0.241885 30.8732 2.21144 28.8445C3.7791 27.5624 5.53636 26.9423 7.56254 26.9458C7.69263 26.9458 7.82273 26.9458 7.95677 26.9458C8.38433 26.9459 8.81187 26.9473 9.23943 26.9487C9.53684 26.9491 9.83426 26.9493 10.1317 26.9495C10.9126 26.9502 11.6936 26.952 12.4746 26.9541C13.2722 26.9559 14.0699 26.9568 14.8675 26.9577C16.4313 26.9596 17.995 26.9628 19.5588 26.9666C19.5581 26.8563 19.5574 26.7459 19.5567 26.6323C19.5403 23.9402 19.5281 21.2481 19.5204 18.556C19.5166 17.254 19.5114 15.9521 19.5029 14.6502C19.4955 13.5147 19.4908 12.3792 19.4891 11.2436C19.4882 10.6431 19.4855 10.0426 19.4805 9.44202C19.4751 8.76947 19.4744 8.09707 19.4747 7.42451C19.4721 7.22819 19.4694 7.03187 19.4667 6.8296C19.4768 4.98346 19.9233 3.39737 21.2409 2.04791C23.0983 0.335862 24.8185 -0.00810249 27.3276 0.00598737ZM23.1988 4.4174C22.6751 5.27249 22.4964 6.00893 22.4975 6.99212C22.4972 7.16859 22.497 7.34507 22.4967 7.52689C22.4974 7.71926 22.498 7.91163 22.4987 8.10984C22.4987 8.31335 22.4987 8.51686 22.4987 8.72653C22.4988 9.3996 22.5002 10.0727 22.5017 10.7457C22.502 11.2122 22.5023 11.6787 22.5025 12.1453C22.5031 13.2479 22.5046 14.3506 22.5064 15.4532C22.5085 16.7087 22.5095 17.9642 22.5104 19.2198C22.5124 21.802 22.5156 24.3843 22.5197 26.9666C22.8303 26.9692 22.8303 26.9692 23.147 26.9718C23.9252 26.9792 24.7033 26.9912 25.4814 27.0046C25.8162 27.0097 26.1511 27.0136 26.486 27.0162C29.0845 27.0375 31.3527 27.1711 33.4029 28.931C36.55 32.1416 35.5667 37.2181 35.6591 41.2353C47.751 41.2353 59.8429 41.2353 72.3012 41.2353C72.4234 40.5109 72.5455 39.7865 72.6714 39.0401C73.3194 37.4718 74.3112 36.4137 75.9147 35.7313C76.79 35.5041 77.6267 35.4992 78.5283 35.4886C78.8093 35.4833 78.8093 35.4833 79.0961 35.4779C79.6918 35.467 80.2876 35.4585 80.8834 35.4501C81.2885 35.4431 81.6936 35.4359 82.0986 35.4286C83.0892 35.4111 84.0798 35.3955 85.0705 35.3815C85.0791 31.6382 85.0856 27.895 85.0896 24.1518C85.0915 22.4137 85.0941 20.6756 85.0984 18.9375C85.1021 17.4223 85.1045 15.9071 85.1053 14.3919C85.1058 13.5898 85.1069 12.7878 85.1096 11.9858C85.1121 11.2302 85.1129 10.4747 85.1123 9.71915C85.1124 9.44247 85.1132 9.1658 85.1146 8.88913C85.2056 6.37165 85.2056 6.37165 84.0758 4.2145C83.9674 4.09612 83.8591 3.97775 83.7476 3.85578C83.088 3.26982 82.5551 3.13974 81.676 3.13794C81.4743 3.13665 81.2726 3.13535 81.0648 3.13402C80.7326 3.13468 80.7326 3.13468 80.3936 3.13536C80.1582 3.1344 79.9229 3.13344 79.6804 3.13246C79.0266 3.12986 78.3728 3.12956 77.719 3.12964C77.0141 3.12934 76.3091 3.12695 75.6042 3.12485C74.0625 3.12067 72.5208 3.11922 70.9792 3.11829C70.0165 3.1177 69.0539 3.11651 68.0913 3.11518C65.4262 3.1116 62.761 3.1086 60.0958 3.10807C59.9253 3.10804 59.7547 3.108 59.5789 3.10797C59.2331 3.1079 58.8873 3.10783 58.5415 3.10777C58.284 3.10772 58.284 3.10772 58.0213 3.10767C57.8495 3.10763 57.6776 3.1076 57.5005 3.10757C54.7156 3.10692 51.9308 3.10198 49.1459 3.09514C46.2867 3.08817 43.4276 3.08463 40.5685 3.08457C38.9631 3.08447 37.3578 3.08291 35.7525 3.07762C34.3855 3.07314 33.0186 3.0718 31.6516 3.07456C30.9542 3.07587 30.257 3.07571 29.5597 3.07156C28.8032 3.06709 28.047 3.06973 27.2906 3.07306C27.0708 3.07064 26.8509 3.06823 26.6244 3.06574C25.2331 3.07973 24.0878 3.27223 23.1988 4.4174ZM4.03675 31.517C3.88288 31.6918 3.88288 31.6918 3.7259 31.87C3.09225 32.8214 3.03403 33.7891 3.03757 34.8987C3.0366 35.05 3.03563 35.2013 3.03464 35.3571C3.03187 35.8627 3.03173 36.3682 3.03161 36.8737C3.0302 37.2367 3.02864 37.5998 3.02694 37.9628C3.02288 38.9482 3.02125 39.9336 3.02031 40.9189C3.01963 41.5349 3.01848 42.1509 3.01716 42.7669C3.01263 44.9171 3.01021 47.0672 3.00956 49.2174C3.00889 51.2198 3.00335 53.2221 2.9956 55.2245C2.98918 56.9451 2.98632 58.6657 2.98619 60.3863C2.98605 61.4133 2.98444 62.4402 2.97916 63.4672C2.97431 64.4336 2.97391 65.3999 2.97688 66.3663C2.97721 66.7201 2.97598 67.0739 2.97303 67.4277C2.92456 70.2795 2.92456 70.2795 4.34933 72.684C5.20109 73.4754 6.0354 73.8417 7.21387 73.846C7.40764 73.8476 7.60141 73.8491 7.80106 73.8507C8.01171 73.8506 8.22237 73.8504 8.43941 73.8502C8.66279 73.8515 8.88617 73.8527 9.11633 73.854C9.72776 73.8568 10.3391 73.858 10.9506 73.8583C11.3331 73.8585 11.7156 73.8593 12.0981 73.8603C13.4341 73.8637 14.7701 73.8652 16.1062 73.8649C17.349 73.8647 18.5918 73.8685 19.8347 73.8743C20.9038 73.8791 21.9728 73.8811 23.0419 73.8808C23.6795 73.8807 24.3171 73.8817 24.9547 73.8856C25.6665 73.8899 26.3783 73.8882 27.0901 73.886C27.2996 73.888 27.5092 73.8901 27.7251 73.8922C29.2244 73.8804 30.1962 73.5921 31.3564 72.6538C32.2816 71.5359 32.6239 70.5327 32.6083 69.0999C32.6102 68.8702 32.6102 68.8703 32.6122 68.636C32.6156 68.1265 32.6137 67.6172 32.6118 67.1077C32.6131 66.741 32.6147 66.3743 32.6166 66.0075C32.6208 65.0139 32.6202 64.0203 32.6186 63.0266C32.6176 62.196 32.619 61.3655 32.6203 60.535C32.6235 58.575 32.6228 56.6151 32.6197 54.6552C32.6166 52.6355 32.6195 50.616 32.6255 48.5963C32.6304 46.8602 32.6318 45.124 32.6302 43.3879C32.6293 42.3519 32.6297 41.316 32.6335 40.28C32.6369 39.3055 32.6358 38.3311 32.6313 37.3566C32.6303 36.9998 32.631 36.6431 32.6333 36.2863C32.6907 33.6757 32.6907 33.6757 31.5877 31.357C31.1747 30.9387 31.1747 30.9387 30.7203 30.7053C30.5074 30.5804 30.5074 30.5804 30.2902 30.453C29.6782 30.131 29.3299 30.0527 28.6323 30.0495C28.3404 30.0476 28.3404 30.0476 28.0427 30.0456C27.8283 30.0451 27.6139 30.0446 27.3931 30.0441C27.1679 30.0429 26.9428 30.0417 26.7109 30.0404C25.963 30.0368 25.2151 30.0347 24.4672 30.0329C24.2096 30.0321 23.9519 30.0314 23.6943 30.0306C22.4833 30.0271 21.2722 30.0245 20.0612 30.023C18.6648 30.0212 17.2684 30.0164 15.872 30.009C14.7919 30.0035 13.7119 30.0008 12.6318 30.0002C11.9872 29.9997 11.3426 29.9981 10.6979 29.9935C9.97761 29.9884 9.25737 29.9892 8.53704 29.9905C8.21884 29.987 8.21884 29.987 7.89421 29.9834C6.32321 29.9935 5.09506 30.2707 4.03675 31.517ZM75.7364 39.3831C75.3229 40.2007 75.2393 40.9231 75.2362 41.8295C75.2352 42.0192 75.2341 42.209 75.233 42.4044C75.2328 42.6107 75.2326 42.8169 75.2324 43.0294C75.2315 43.2481 75.2306 43.4669 75.2296 43.6922C75.2274 44.2909 75.226 44.8897 75.2252 45.4884C75.2246 45.8631 75.2239 46.2378 75.223 46.6125C75.2205 47.7866 75.2187 48.9607 75.218 50.1349C75.2172 51.4868 75.2139 52.8388 75.2086 54.1907C75.2046 55.238 75.2027 56.2853 75.2024 57.3326C75.2023 57.9571 75.2012 58.5815 75.1979 59.2059C75.1947 59.9034 75.195 60.6008 75.1962 61.2983C75.1945 61.503 75.1928 61.7078 75.1911 61.9187C75.1984 63.2906 75.2555 64.6438 76.28 65.6566C77.0427 66.1089 77.6235 66.1385 78.4985 66.1434C78.6195 66.1443 78.7406 66.1453 78.8653 66.1462C79.2655 66.1489 79.6656 66.1501 80.0659 66.1511C80.3445 66.1522 80.6232 66.1532 80.9019 66.1543C81.4864 66.1562 82.0708 66.1573 82.6553 66.1579C83.4027 66.1589 84.15 66.1633 84.8973 66.1685C85.4731 66.1719 86.049 66.1729 86.6248 66.1732C86.9002 66.1737 87.1757 66.1752 87.4511 66.1776C87.8373 66.1807 88.2234 66.1804 88.6096 66.1792C88.829 66.1798 89.0484 66.1805 89.2745 66.1812C90.1944 66.0794 90.7943 65.7769 91.4204 65.1078C91.8818 64.4321 91.9414 63.9293 91.945 63.1333C91.9463 62.9325 91.9476 62.7317 91.949 62.5248C91.9495 62.3045 91.95 62.0841 91.9505 61.857C91.9517 61.625 91.9529 61.3929 91.9542 61.1538C91.9581 60.3841 91.96 59.6143 91.9618 58.8446C91.9626 58.5794 91.9633 58.3143 91.9641 58.0491C91.9676 56.8034 91.9703 55.5576 91.9718 54.3119C91.9736 52.8746 91.9785 51.4373 91.986 50.0001C91.9915 48.8886 91.9943 47.7772 91.9949 46.6657C91.9953 46.0021 91.997 45.3386 92.0016 44.675C92.0068 43.9344 92.006 43.194 92.0047 42.4534C92.0071 42.2341 92.0094 42.0149 92.0119 41.7889C92.0046 40.6347 91.9737 39.9122 91.1775 39.0401C90.3605 38.3082 89.6067 38.2854 88.5322 38.2789C88.2962 38.2771 88.0602 38.2754 87.8171 38.2736C87.5599 38.2727 87.3026 38.2719 87.0454 38.2712C86.7803 38.2702 86.5152 38.2691 86.2501 38.268C85.6945 38.2661 85.1388 38.2651 84.5831 38.2644C83.8742 38.2634 83.1653 38.259 82.4564 38.2538C81.9086 38.2504 81.3609 38.2495 80.8131 38.2492C80.552 38.2486 80.2908 38.2472 80.0296 38.2448C77.6435 38.1618 77.6435 38.1618 75.7364 39.3831ZM35.6591 44.1622C35.6591 46.0939 35.6591 48.0257 35.6591 50.016C47.751 50.016 59.8429 50.016 72.3012 50.016C72.3012 48.0842 72.3012 46.1525 72.3012 44.1622C60.2093 44.1622 48.1174 44.1622 35.6591 44.1622ZM48.7984 52.9429C48.7984 55.0558 48.7984 57.1686 48.7984 59.3455C52.0352 59.3455 55.2719 59.3455 58.6067 59.3455C58.6067 57.2326 58.6067 55.1198 58.6067 52.9429C55.37 52.9429 52.1332 52.9429 48.7984 52.9429Z" fill="black"/>
</svg>
