<svg width="19" height="17" viewBox="0 0 19 17" fill="none" xmlns="http://www.w3.org/2000/svg">
<path d="M4.45966 1.75942C3.31523 1.88732 2.39918 2.79057 2.26677 3.92268C1.91108 6.96383 1.91108 10.0361 2.26677 13.0772C2.39918 14.2093 3.31523 15.1126 4.45966 15.2405C7.43649 15.5732 10.5161 15.5732 13.4929 15.2405C14.6374 15.1126 15.5534 14.2093 15.6858 13.0772C15.9414 10.8921 16.0133 8.69086 15.9016 6.49668C15.8988 6.44002 15.9199 6.38475 15.96 6.34463L16.9988 5.30585C17.1191 5.18562 17.3245 5.2608 17.3373 5.43036C17.5333 8.03528 17.4794 10.6543 17.1757 13.2515C16.9608 15.0884 15.4859 16.5271 13.6596 16.7312C10.572 17.0763 7.38061 17.0763 4.29305 16.7312C2.46667 16.5271 0.991772 15.0884 0.776923 13.2515C0.407692 10.0945 0.407692 6.90535 0.776923 3.74843C0.991772 1.91146 2.46667 0.472822 4.29305 0.268697C7.38061 -0.0763822 10.572 -0.0763822 13.6596 0.268697C14.3028 0.34059 14.9025 0.565621 15.4188 0.907255C15.5204 0.974479 15.5305 1.11732 15.4444 1.20346L14.6415 2.00635C14.5758 2.07202 14.4739 2.08307 14.3921 2.0392C14.1187 1.89271 13.8148 1.79539 13.4929 1.75942C10.5161 1.42671 7.43649 1.42671 4.45966 1.75942Z" fill="white"/>
<path d="M18.0066 2.53028C18.2995 2.23738 18.2995 1.76251 18.0066 1.46962C17.7137 1.17672 17.2388 1.17672 16.946 1.46962L8.47629 9.93929L6.00662 7.46962C5.71372 7.17672 5.23885 7.17672 4.94596 7.46962C4.65306 7.76251 4.65306 8.23738 4.94596 8.53028L7.94596 11.5303C8.23885 11.8232 8.71372 11.8232 9.00662 11.5303L18.0066 2.53028Z" fill="white"/>
</svg>
