<svg width="51" height="51" viewBox="0 0 51 51" fill="none" xmlns="http://www.w3.org/2000/svg">
<path d="M16.4717 0.00431C16.5496 0.00367697 16.6276 0.00304395 16.708 0.00239174C16.9682 0.000778031 17.2284 0.00205338 17.4887 0.00333169C17.6757 0.00278163 17.8627 0.002059 18.0497 0.00117692C18.557 -0.000671964 19.0642 4.38439e-05 19.5714 0.00133075C20.1024 0.0023586 20.6334 0.0014052 21.1644 0.000768261C22.0561 3.01456e-05 22.9478 0.00100258 23.8395 0.00293541C24.8702 0.00514378 25.9009 0.00442843 26.9316 0.00219427C27.8167 0.000352424 28.7019 9.31514e-05 29.5871 0.00115491C30.1157 0.00178733 30.6442 0.00187247 31.1728 0.000531423C31.6697 -0.000641342 32.1667 0.000173384 32.6636 0.00251746C32.8459 0.00305372 33.0282 0.00290042 33.2105 0.00200508C33.4596 0.000894918 33.7085 0.00228835 33.9575 0.00431C34.0295 0.0034048 34.1015 0.0024996 34.1757 0.00156696C34.6829 0.00954466 34.9668 0.147213 35.3593 0.461628C35.8435 0.993259 35.8209 1.48143 35.8112 2.16379C35.8112 2.27272 35.8113 2.38166 35.8113 2.49389C35.8111 2.8529 35.8079 3.21183 35.8047 3.57083C35.804 3.82015 35.8034 4.06947 35.803 4.3188C35.8014 4.97425 35.7974 5.62966 35.793 6.28509C35.7888 6.95422 35.787 7.62335 35.7849 8.29249C35.7806 9.60485 35.7737 10.9172 35.7651 12.2295C35.8346 12.2291 35.9041 12.2288 35.9757 12.2284C37.6674 12.2194 39.3591 12.2127 41.0508 12.2085C41.869 12.2064 42.6871 12.2036 43.5052 12.1989C44.2183 12.1949 44.9314 12.1922 45.6445 12.1913C46.0221 12.1908 46.3996 12.1896 46.7771 12.1866C47.1988 12.1833 47.6204 12.1833 48.0421 12.1835C48.167 12.182 48.2919 12.1805 48.4206 12.179C49.499 12.1843 49.499 12.1843 49.9677 12.6353C50.4809 13.1834 50.4311 13.7479 50.426 14.4582C50.4271 14.6409 50.4271 14.6409 50.4282 14.8273C50.4296 15.1602 50.4293 15.493 50.428 15.8258C50.427 16.1749 50.4279 16.5239 50.4286 16.8729C50.4293 17.459 50.4283 18.045 50.4264 18.631C50.4242 19.3077 50.4249 19.9843 50.4272 20.6609C50.429 21.2428 50.4293 21.8247 50.4282 22.4067C50.4276 22.7538 50.4275 23.1009 50.4288 23.448C50.4298 23.8352 50.4283 24.2222 50.426 24.6093C50.4272 24.781 50.4272 24.781 50.4285 24.9562C50.4217 25.5823 50.3888 25.9571 49.9677 26.4321C49.5095 26.8566 49.1439 26.8787 48.5479 26.8629C48.4439 26.8586 48.34 26.8543 48.2328 26.8498C48.0092 26.8463 47.7855 26.8432 47.5619 26.8403C47.2118 26.8339 46.8622 26.8253 46.5122 26.8112C45.1088 26.7019 45.1088 26.7019 43.8758 27.2383C43.6077 27.5255 43.3941 27.8357 43.191 28.1711C42.9802 28.4977 42.7185 28.7801 42.4606 29.0698C42.3592 29.1877 42.258 29.3057 42.1571 29.424C41.9518 29.6636 41.7462 29.9029 41.5405 30.1421C41.4372 30.2623 41.3339 30.3825 41.2306 30.5027C41.1806 30.5609 41.1306 30.619 41.079 30.6789C40.83 30.9693 40.5831 31.2612 40.3397 31.5564C40.2932 31.6128 40.2467 31.6692 40.1987 31.7274C40.0718 31.8817 39.9454 32.0365 39.819 32.1913C39.5379 32.511 39.4607 32.5155 39.0241 32.5507C38.7219 32.5673 38.6313 32.54 38.3924 32.3448C38.0368 31.9171 38.1545 31.4259 38.1998 30.8958C38.2814 30.1913 38.3932 29.4912 38.5042 28.7908C38.5336 28.6009 38.5629 28.4109 38.5921 28.2209C38.6633 27.7598 38.7356 27.2988 38.8085 26.8379C38.7438 26.8388 38.679 26.8397 38.6123 26.8407C37.9376 26.8497 37.2629 26.8558 36.5881 26.8602C36.3364 26.8623 36.0847 26.865 35.833 26.8685C35.4709 26.8735 35.1088 26.8758 34.7467 26.8776C34.6344 26.8797 34.5222 26.8818 34.4065 26.8839C33.796 26.8841 33.3907 26.87 32.9246 26.4321C32.5513 25.9661 32.4609 25.6113 32.4727 25.028C32.4727 24.9507 32.4726 24.8734 32.4725 24.7938C32.4728 24.5402 32.476 24.2867 32.4792 24.0331C32.4799 23.8565 32.4805 23.68 32.4809 23.5035C32.4824 23.0401 32.4864 22.5769 32.4909 22.1136C32.4958 21.557 32.4977 21.0003 32.5 20.4437C32.504 19.5993 32.5117 18.755 32.5188 17.9106C31.1462 17.9106 29.7736 17.9106 28.3594 17.9106C28.2255 18.5466 28.0916 19.1827 27.9536 19.8381C27.7185 20.8912 27.7185 20.8912 27.6371 21.2473C27.6189 21.3269 27.6006 21.4066 27.5819 21.4887C27.5632 21.5703 27.5445 21.6518 27.5253 21.7358C27.4962 21.863 27.4962 21.863 27.4665 21.9927C27.3644 22.4388 27.2621 22.8848 27.1596 23.3308C27.0543 23.7889 26.95 24.2473 26.8458 24.7057C26.7648 25.0615 26.6831 25.4172 26.6012 25.7728C26.5624 25.9418 26.5238 26.1109 26.4855 26.2801C26.4322 26.5156 26.3779 26.7508 26.3233 26.9861C26.308 27.0548 26.2926 27.1236 26.2768 27.1945C26.1774 27.6172 26.0415 27.9837 25.8233 28.3596C25.5058 28.5184 25.1526 28.5318 24.8088 28.4611C24.427 28.1518 24.3242 27.8848 24.2136 27.4121C24.1977 27.3462 24.1819 27.2802 24.1655 27.2122C24.1122 26.9884 24.061 26.7642 24.0099 26.5399C23.9722 26.3796 23.9344 26.2194 23.8966 26.0591C23.7855 25.5869 23.6767 25.1142 23.5681 24.6414C23.4822 24.2681 23.3957 23.8949 23.3091 23.5217C23.113 22.6765 22.9176 21.8312 22.7228 20.9857C22.7065 20.9153 22.6903 20.8449 22.6736 20.7724C22.5647 20.3 22.4564 19.8275 22.3483 19.355C22.306 19.1714 22.306 19.1714 22.2629 18.984C22.2374 18.8722 22.2119 18.7603 22.1856 18.645C22.1631 18.5468 22.1406 18.4487 22.1175 18.3475C22.0697 18.1135 22.0697 18.1135 22.0697 17.9106C20.6971 17.9106 19.3245 17.9106 17.9104 17.9106C17.9151 18.3575 17.9198 18.8045 17.9246 19.265C17.9272 19.6224 17.9294 19.9797 17.9314 20.3371C17.9335 20.7138 17.9364 21.0904 17.941 21.4671C17.9454 21.8302 17.9478 22.1933 17.9489 22.5564C17.9496 22.6946 17.9511 22.8329 17.9533 22.9711C17.97 24.0689 17.97 24.0689 17.743 24.569C17.2925 25.0224 16.9885 25.2343 16.3425 25.2608C16.1225 25.2608 15.9025 25.2585 15.6825 25.2544C15.5663 25.2538 15.45 25.2533 15.3303 25.2527C14.9602 25.2504 14.5902 25.2453 14.2202 25.2401C13.9688 25.2381 13.7175 25.2363 13.4661 25.2346C12.8509 25.2301 12.2358 25.2233 11.6206 25.2148C11.6283 25.2803 11.6359 25.3457 11.6437 25.4132C11.7237 26.1011 11.8025 26.7892 11.8807 27.4773C11.9099 27.7333 11.9394 27.9893 11.9693 28.2453C12.0123 28.6154 12.0543 28.9856 12.0962 29.3559C12.1095 29.4684 12.1228 29.5809 12.1365 29.6968C12.2019 30.2844 12.2457 30.8702 12.263 31.4613C12.2683 31.6338 12.2683 31.6338 12.2736 31.8099C12.2293 32.1132 12.2293 32.1132 12.0493 32.3533C11.7784 32.5521 11.5569 32.5716 11.2247 32.5828C10.5877 32.3918 10.2031 31.5868 9.86511 31.0642C9.7408 30.8737 9.61646 30.6832 9.49212 30.4927C9.42772 30.3937 9.36333 30.2947 9.29699 30.1927C9.09578 29.8857 8.8915 29.5809 8.68628 29.2765C7.43708 27.4147 7.43708 27.4147 7.10013 26.4634C6.79248 25.9181 6.38442 25.4222 5.76962 25.2325C5.46606 25.1933 5.17211 25.1802 4.86606 25.1771C4.70166 25.1705 4.70166 25.1705 4.53394 25.1638C3.64217 25.1346 2.74816 25.1576 1.85808 25.2193C1.40851 25.2435 1.13616 25.2459 0.72279 25.051C0.240585 24.6045 0.0355582 24.3121 0.00410183 23.6536C0.00169552 23.4311 0.00152705 23.2086 0.00312352 22.9861C0.00241245 22.8643 0.00170138 22.7425 0.000968755 22.617C-0.000508045 22.2841 -0.000166991 21.9513 0.001122 21.6185C0.0021524 21.2694 0.00119632 20.9204 0.000560093 20.5714C-0.000177288 19.9853 0.00079245 19.3993 0.00272724 18.8133C0.00493549 18.1366 0.00421975 17.46 0.00198577 16.7834C0.000141794 16.2015 -0.000113652 15.6196 0.000947084 15.0376C0.00157835 14.6905 0.00166752 14.3434 0.000323254 13.9963C-0.000707265 13.6091 0.000863724 13.2221 0.00312352 12.835C0.00230211 12.7206 0.0014807 12.6061 0.000634395 12.4881C0.00719951 11.8811 0.0272735 11.4758 0.46142 11.0122C1.02216 10.4726 1.65479 10.5517 2.38709 10.5603C2.51976 10.5602 2.65244 10.5602 2.78914 10.5601C3.15173 10.56 3.51426 10.5624 3.87683 10.5652C4.2562 10.5678 4.63557 10.568 5.01495 10.5685C5.73279 10.5697 6.45061 10.5731 7.16845 10.5771C7.98591 10.5817 8.80337 10.5839 9.62084 10.5859C11.3019 10.5902 12.983 10.5973 14.664 10.6064C14.6631 10.4882 14.6622 10.3701 14.6613 10.2484C14.6531 9.13491 14.647 8.0214 14.643 6.90786C14.6409 6.33538 14.638 5.76293 14.6334 5.19047C14.629 4.63794 14.6266 4.08543 14.6255 3.53288C14.6248 3.32215 14.6233 3.11142 14.6211 2.90071C14.6182 2.60537 14.6178 2.31014 14.618 2.01479C14.6165 1.92781 14.6151 1.84083 14.6136 1.75121C14.6173 1.20558 14.6962 0.886472 15.0698 0.461628C15.5337 0.0890462 15.8905 -0.00299459 16.4717 0.00431ZM16.2872 1.679C16.2872 6.49977 16.2872 11.3206 16.2872 16.2874C19.7019 16.3376 19.7019 16.3376 23.1856 16.3889C23.5251 16.7284 23.5917 16.9847 23.6944 17.4334C23.7124 17.5079 23.7303 17.5824 23.7488 17.6591C23.8073 17.9033 23.8642 18.1478 23.9211 18.3924C23.9611 18.561 24.0012 18.7295 24.0414 18.898C24.412 20.4594 24.7664 22.0247 25.1131 23.5916C25.1801 23.5916 25.247 23.5916 25.316 23.5916C25.3346 23.5101 25.3532 23.4287 25.3724 23.3447C25.5481 22.5759 25.7242 21.8072 25.9007 21.0386C25.9915 20.6435 26.082 20.2483 26.1723 19.8531C26.2594 19.4715 26.3469 19.09 26.4347 18.7086C26.4681 18.5632 26.5014 18.4178 26.5345 18.2724C26.5809 18.0683 26.6279 17.8644 26.675 17.6604C26.7016 17.5444 26.7282 17.4284 26.7556 17.3089C26.8314 17.0217 26.913 16.7585 27.0406 16.4903C29.1587 15.4313 31.7741 16.3222 34.1419 16.2874C34.1419 11.4666 34.1419 6.64586 34.1419 1.679C28.2499 1.679 22.3578 1.679 16.2872 1.679ZM1.67879 12.2295C1.67879 15.979 1.67879 19.7285 1.67879 23.5916C3.41962 23.6251 5.16046 23.6586 6.95405 23.6931C7.23831 23.9773 7.43375 24.1849 7.64642 24.5081C7.69887 24.5873 7.75132 24.6665 7.80536 24.7481C7.86064 24.8325 7.91592 24.917 7.97288 25.004C8.03061 25.0912 8.08834 25.1784 8.14782 25.2683C8.33156 25.5461 8.51467 25.8242 8.69768 26.1024C8.88181 26.3821 9.06608 26.6616 9.25079 26.9409C9.36562 27.1145 9.48011 27.2884 9.59424 27.4625C9.67147 27.5793 9.67147 27.5793 9.75027 27.6986C9.79567 27.7676 9.84108 27.8367 9.88787 27.9078C9.92404 27.9565 9.9602 28.0052 9.99747 28.0553C10.0309 28.0553 10.0644 28.0553 10.0989 28.0553C10.0485 26.9528 10.0485 26.9528 9.94041 25.8552C9.89308 25.4603 9.87917 25.0671 9.87066 24.6695C9.86805 24.5494 9.86543 24.4294 9.86273 24.3057C9.89602 23.9974 9.89602 23.9974 10.0132 23.8287C10.2771 23.6375 10.4695 23.6526 10.7937 23.6492C10.9764 23.6462 10.9764 23.6462 11.1629 23.6431C11.2945 23.6425 11.426 23.6418 11.5616 23.6412C11.6976 23.6394 11.8337 23.6376 11.9697 23.6356C12.3274 23.6308 12.6851 23.6278 13.0429 23.6251C13.4081 23.6221 13.7732 23.6174 14.1384 23.6128C14.8547 23.6039 15.5709 23.5979 16.2872 23.5916C16.2872 21.7169 16.2872 19.8421 16.2872 17.9106C16.0194 17.8436 15.7516 17.7767 15.4756 17.7077C15.0892 17.4557 14.9762 17.3175 14.7655 16.8961C14.732 15.3561 14.6985 13.8162 14.664 12.2295C10.3789 12.2295 6.09378 12.2295 1.67879 12.2295ZM35.7651 13.8527C35.7316 14.857 35.6981 15.8613 35.6636 16.8961C35.1864 17.612 35.1864 17.612 34.7506 17.8091C34.4493 17.8593 34.4493 17.8593 34.1419 17.9106C34.1419 20.321 34.1419 22.7313 34.1419 25.2148C36.1314 25.2361 36.1314 25.2361 38.1209 25.2541C38.3698 25.2574 38.6187 25.2608 38.8676 25.2643C38.9974 25.2649 39.1273 25.2656 39.2611 25.2662C39.3846 25.2683 39.5082 25.2703 39.6355 25.2724C39.7429 25.2735 39.8504 25.2746 39.9611 25.2758C40.2288 25.3162 40.2288 25.3162 40.4157 25.4558C40.8404 26.052 40.4839 27.2739 40.3746 27.9408C40.3354 28.2215 40.3218 28.4827 40.3302 28.7654C41.2022 27.9028 41.9966 26.9815 42.765 26.0264C43.2438 25.4319 43.2438 25.4319 43.4751 25.3162C45.2159 25.2827 46.9568 25.2493 48.7504 25.2148C48.7504 21.4653 48.7504 17.7158 48.7504 13.8527C44.4652 13.8527 40.1801 13.8527 35.7651 13.8527Z" fill="#626262"/>
<path d="M39.9019 34.4001C40.8449 35.014 41.555 35.786 41.8536 36.8812C41.8751 37.1671 41.8874 37.4391 41.8853 37.7245C41.8847 37.8388 41.8847 37.8388 41.8842 37.9554C41.8691 38.7282 41.7278 39.3118 41.2449 39.9247C41.3099 39.9615 41.3749 39.9984 41.4418 40.0364C42.5724 40.6935 43.3986 41.3908 43.8167 42.6751C43.9564 43.2971 43.9282 43.9397 43.9265 44.5742C43.927 44.7289 43.9275 44.8835 43.9281 45.0382C43.929 45.3606 43.9288 45.6829 43.9278 46.0053C43.9266 46.4182 43.9287 46.831 43.9316 47.2439C43.9335 47.5625 43.9334 47.8811 43.9329 48.1998C43.9328 48.352 43.9335 48.5043 43.9347 48.6566C43.9362 48.8691 43.9351 49.0814 43.9334 49.2938C43.9334 49.4145 43.9334 49.5352 43.9334 49.6596C43.8825 49.968 43.8825 49.968 43.7394 50.2097C43.3306 50.465 42.9414 50.4303 42.4686 50.4262C42.3663 50.427 42.264 50.4277 42.1585 50.4284C41.8201 50.4302 41.4818 50.429 41.1434 50.4276C40.9084 50.4279 40.6734 50.4283 40.4385 50.4288C39.9459 50.4294 39.4533 50.4285 38.9607 50.4266C38.3289 50.4243 37.6972 50.4257 37.0654 50.4281C36.5801 50.4296 36.0948 50.4291 35.6095 50.428C35.3766 50.4278 35.1436 50.4281 34.9106 50.429C34.5851 50.4301 34.2598 50.4285 33.9343 50.4262C33.8378 50.4271 33.7412 50.4279 33.6417 50.4287C33.0009 50.4205 33.0009 50.4205 32.6636 50.2095C32.4739 49.8895 32.4689 49.6687 32.4679 49.297C32.4668 49.1972 32.4668 49.1972 32.4657 49.0954C32.464 48.8757 32.4651 48.6561 32.4665 48.4363C32.4662 48.2826 32.4658 48.129 32.4653 47.9753C32.4647 47.6528 32.4656 47.3304 32.4675 47.008C32.4698 46.5975 32.4685 46.1872 32.4661 45.7767C32.4646 45.4589 32.4651 45.1412 32.4661 44.8234C32.4664 44.6723 32.4661 44.5211 32.4651 44.37C32.4584 43.0173 32.6746 41.94 33.6363 40.9391C34.1008 40.5296 34.6152 40.2187 35.158 39.9247C35.0953 39.8368 35.0325 39.7489 34.9678 39.6584C34.3971 38.7519 34.4113 37.6041 34.6084 36.5721C34.925 35.6643 35.6586 34.9239 36.4749 34.4402C37.4683 33.979 38.9014 33.9111 39.9019 34.4001ZM36.4769 36.7354C36.182 37.2687 36.1652 37.8116 36.274 38.403C36.498 38.9339 36.8494 39.4082 37.3784 39.6615C38.0093 39.8388 38.6803 39.843 39.2603 39.5189C39.7616 39.1432 40.0697 38.7351 40.1809 38.1121C40.219 37.4467 40.1109 36.9876 39.6982 36.46C39.2422 35.9796 38.8733 35.8432 38.2078 35.8097C37.4315 35.8398 36.9409 36.1163 36.4769 36.7354ZM34.8913 42.2215C34.1369 43.0578 34.1282 43.9228 34.1337 45.0058C34.1338 45.1009 34.1339 45.196 34.134 45.294C34.1345 45.6473 34.1359 46.0006 34.1372 46.3539C34.1393 47.1448 34.1414 47.9357 34.1436 48.7506C36.8218 48.7506 39.5 48.7506 42.2594 48.7506C42.2635 47.966 42.2677 47.1813 42.272 46.3729C42.2739 46.127 42.2757 45.8811 42.2776 45.6277C42.2782 45.4303 42.2787 45.2329 42.2792 45.0355C42.2802 44.935 42.2812 44.8345 42.2823 44.731C42.2825 43.8519 42.227 43.0604 41.6507 42.3594C40.7055 41.421 39.719 41.4274 38.4419 41.4276C38.2222 41.4274 38.0025 41.4255 37.7828 41.4236C36.204 41.4135 36.204 41.4135 34.8913 42.2215Z" fill="#626262"/>
<path d="M26.9146 34.4001C27.8576 35.014 28.5677 35.786 28.8663 36.8812C28.8878 37.1671 28.9001 37.4391 28.898 37.7245C28.8974 37.8388 28.8974 37.8388 28.8969 37.9554C28.8818 38.7282 28.7405 39.3118 28.2576 39.9247C28.3226 39.9615 28.3876 39.9984 28.4545 40.0364C29.5851 40.6935 30.4113 41.3908 30.8294 42.6751C30.9691 43.2971 30.9409 43.9397 30.9392 44.5742C30.9397 44.7289 30.9402 44.8835 30.9408 45.0382C30.9417 45.3606 30.9415 45.6829 30.9405 46.0053C30.9393 46.4182 30.9414 46.831 30.9443 47.2439C30.9462 47.5625 30.9461 47.8811 30.9456 48.1998C30.9455 48.352 30.9462 48.5043 30.9474 48.6566C30.9489 48.8691 30.9478 49.0814 30.9461 49.2938C30.9461 49.4145 30.9461 49.5352 30.9461 49.6596C30.8952 49.968 30.8952 49.968 30.7521 50.2097C30.3433 50.465 29.9541 50.4303 29.4813 50.4262C29.379 50.427 29.2767 50.4277 29.1712 50.4284C28.8328 50.4302 28.4945 50.429 28.1561 50.4276C27.9211 50.4279 27.6861 50.4283 27.4511 50.4288C26.9586 50.4294 26.466 50.4285 25.9734 50.4266C25.3416 50.4243 24.7099 50.4257 24.078 50.4281C23.5928 50.4296 23.1075 50.4291 22.6222 50.428C22.3893 50.4278 22.1563 50.4281 21.9233 50.429C21.5978 50.4301 21.2725 50.4285 20.947 50.4262C20.8505 50.4271 20.7539 50.4279 20.6544 50.4287C20.0136 50.4205 20.0136 50.4205 19.6763 50.2095C19.4866 49.8895 19.4816 49.6687 19.4806 49.297C19.4795 49.1972 19.4795 49.1972 19.4784 49.0954C19.4767 48.8757 19.4778 48.6561 19.4792 48.4363C19.4789 48.2826 19.4785 48.129 19.478 47.9753C19.4774 47.6528 19.4783 47.3304 19.4802 47.008C19.4825 46.5975 19.4812 46.1872 19.4788 45.7767C19.4773 45.4589 19.4778 45.1412 19.4788 44.8234C19.4791 44.6723 19.4788 44.5211 19.4778 44.37C19.4711 43.0173 19.6873 41.94 20.649 40.9391C21.1135 40.5296 21.6279 40.2187 22.1707 39.9247C22.108 39.8368 22.0452 39.7489 21.9805 39.6584C21.4098 38.7519 21.424 37.6041 21.6211 36.5721C21.9377 35.6643 22.6713 34.9239 23.4876 34.4402C24.481 33.979 25.914 33.9111 26.9146 34.4001ZM23.4896 36.7354C23.1947 37.2687 23.1779 37.8116 23.2867 38.403C23.5107 38.9339 23.8621 39.4082 24.3911 39.6615C25.022 39.8388 25.6929 39.843 26.273 39.5189C26.7743 39.1432 27.0824 38.7351 27.1936 38.1121C27.2317 37.4467 27.1236 36.9876 26.7109 36.46C26.2549 35.9796 25.886 35.8432 25.2205 35.8097C24.4442 35.8398 23.9536 36.1163 23.4896 36.7354ZM21.904 42.2215C21.1496 43.0578 21.1408 43.9228 21.1464 45.0058C21.1465 45.1009 21.1466 45.196 21.1467 45.294C21.1472 45.6473 21.1486 46.0006 21.1499 46.3539C21.152 47.1448 21.1541 47.9357 21.1563 48.7506C23.8345 48.7506 26.5127 48.7506 29.272 48.7506C29.2762 47.966 29.2804 47.1813 29.2847 46.3729C29.2866 46.127 29.2884 45.8811 29.2903 45.6277C29.2909 45.4303 29.2914 45.2329 29.2919 45.0355C29.2929 44.935 29.2939 44.8345 29.295 44.731C29.2952 43.8519 29.2397 43.0604 28.6634 42.3594C27.7182 41.421 26.7317 41.4274 25.4546 41.4276C25.2349 41.4274 25.0152 41.4255 24.7955 41.4236C23.2167 41.4135 23.2167 41.4135 21.904 42.2215Z" fill="#626262"/>
<path d="M13.9292 34.4001C14.8722 35.014 15.5823 35.786 15.8809 36.8812C15.9025 37.1671 15.9147 37.4391 15.9126 37.7245C15.9121 37.8388 15.9121 37.8388 15.9115 37.9554C15.8964 38.7282 15.7552 39.3118 15.2722 39.9247C15.3372 39.9615 15.4022 39.9984 15.4692 40.0364C16.5998 40.6935 17.4259 41.3908 17.844 42.6751C17.9838 43.2971 17.9555 43.9397 17.9538 44.5742C17.9543 44.7289 17.9548 44.8835 17.9555 45.0382C17.9564 45.3606 17.9561 45.6829 17.9551 46.0053C17.9539 46.4182 17.956 46.831 17.959 47.2439C17.9608 47.5625 17.9608 47.8811 17.9602 48.1998C17.9602 48.352 17.9608 48.5043 17.9621 48.6566C17.9636 48.8691 17.9625 49.0814 17.9608 49.2938C17.9607 49.4145 17.9607 49.5352 17.9607 49.6596C17.9099 49.968 17.9099 49.968 17.7668 50.2097C17.358 50.465 16.9687 50.4303 16.4959 50.4262C16.3936 50.427 16.2913 50.4277 16.1859 50.4284C15.8475 50.4302 15.5092 50.429 15.1708 50.4276C14.9358 50.4279 14.7008 50.4283 14.4658 50.4288C13.9732 50.4294 13.4807 50.4285 12.9881 50.4266C12.3563 50.4243 11.7245 50.4257 11.0927 50.4281C10.6074 50.4296 10.1222 50.4291 9.63689 50.428C9.40391 50.4278 9.17093 50.4281 8.93796 50.429C8.61249 50.4301 8.28713 50.4285 7.96167 50.4262C7.86512 50.4271 7.76856 50.4279 7.66907 50.4287C7.02827 50.4205 7.02827 50.4205 6.69092 50.2095C6.50125 49.8895 6.49624 49.6687 6.49525 49.297C6.49418 49.1972 6.49418 49.1972 6.49309 49.0954C6.49131 48.8757 6.49249 48.6561 6.49386 48.4363C6.49359 48.2826 6.49319 48.129 6.49268 47.9753C6.49208 47.6528 6.49295 47.3304 6.49485 47.008C6.49715 46.5975 6.49584 46.1872 6.4934 45.7767C6.49192 45.4589 6.49241 45.1412 6.49345 44.8234C6.49372 44.6723 6.4934 44.5211 6.49245 44.37C6.48579 43.0173 6.70194 41.94 7.66367 40.9391C8.12811 40.5296 8.6425 40.2187 9.18538 39.9247C9.12261 39.8368 9.05984 39.7489 8.99517 39.6584C8.42441 38.7519 8.43861 37.6041 8.63574 36.5721C8.95234 35.6643 9.68597 34.9239 10.5022 34.4402C11.4956 33.979 12.9287 33.9111 13.9292 34.4001ZM10.5042 36.7354C10.2094 37.2687 10.1925 37.8116 10.3013 38.403C10.5254 38.9339 10.8767 39.4082 11.4057 39.6615C12.0367 39.8388 12.7076 39.843 13.2877 39.5189C13.7889 39.1432 14.097 38.7351 14.2082 38.1121C14.2463 37.4467 14.1382 36.9876 13.7255 36.46C13.2695 35.9796 12.9007 35.8432 12.2351 35.8097C11.4589 35.8398 10.9682 36.1163 10.5042 36.7354ZM8.91869 42.2215C8.16421 43.0578 8.15549 43.9228 8.161 45.0058C8.16111 45.1009 8.16121 45.196 8.16131 45.294C8.16184 45.6473 8.16326 46.0006 8.16457 46.3539C8.16666 47.1448 8.16875 47.9357 8.17091 48.7506C10.8491 48.7506 13.5273 48.7506 16.2867 48.7506C16.2909 47.966 16.2951 47.1813 16.2994 46.3729C16.3012 46.127 16.3031 45.8811 16.305 45.6277C16.3056 45.4303 16.3061 45.2329 16.3065 45.0355C16.3075 44.935 16.3086 44.8345 16.3097 44.731C16.3099 43.8519 16.2544 43.0604 15.678 42.3594C14.7328 41.421 13.7464 41.4274 12.4692 41.4276C12.2495 41.4274 12.0298 41.4255 11.8101 41.4236C10.2314 41.4135 10.2314 41.4135 8.91869 42.2215Z" fill="#626262"/>
<path d="M24.8921 4.70972C25.1094 4.85208 25.1094 4.85208 25.3486 4.76678C25.4386 4.71866 25.5285 4.67054 25.6212 4.62095C25.7584 4.55074 25.8958 4.48103 26.0334 4.41172C26.0994 4.37706 26.1654 4.34241 26.2335 4.3067C27.016 3.94736 28.244 3.98617 29.0704 4.21516C29.8376 4.53479 30.4776 5.17392 30.8141 5.92986C31.1361 7.15768 30.9429 8.38597 30.3259 9.47774C29.3227 11.0829 27.8881 12.3382 26.3504 13.4152C26.2897 13.4593 26.2291 13.5034 26.1666 13.5488C25.6964 13.8661 25.3757 13.9232 24.8097 13.8527C24.4998 13.7037 24.4998 13.7037 24.2137 13.4976C24.0571 13.3856 24.0571 13.3856 23.8974 13.2713C23.7967 13.1953 23.696 13.1194 23.5923 13.0411C23.5062 12.9766 23.4202 12.9121 23.3315 12.8457C21.669 11.5547 20.2149 10.1118 19.5344 8.07016C19.3919 6.04898 19.3919 6.04898 20.0416 5.22964C21.2885 3.82844 23.3438 3.67752 24.8921 4.70972ZM26.3964 6.28413C26.2431 6.46393 26.0939 6.64732 25.9498 6.83457C25.6664 7.1105 25.5062 7.14807 25.114 7.15714C24.6774 7.04781 24.4751 6.84117 24.1946 6.49773C23.8554 6.08117 23.8554 6.08117 23.3894 5.83832C23.0742 5.8024 23.0742 5.8024 22.7363 5.80662C22.6235 5.80492 22.5106 5.80322 22.3943 5.80147C21.9456 5.85255 21.6801 6.01379 21.3795 6.34556C21.1499 6.92546 21.1645 7.47448 21.3565 8.0662C21.745 8.92173 22.3313 9.54268 22.9836 10.2006C23.0528 10.2747 23.122 10.3489 23.1932 10.4252C23.5744 10.8271 23.9877 11.1836 24.4229 11.5257C24.5227 11.6043 24.6225 11.6829 24.7253 11.7639C24.9944 11.9456 24.9944 11.9456 25.2654 11.926C26.8137 11.3037 28.3978 9.49478 29.0859 8.02301C29.2669 7.48172 29.261 6.87504 29.0514 6.34556C28.6851 5.94138 28.3176 5.7768 27.7687 5.73251C27.2048 5.74369 26.7969 5.87759 26.3964 6.28413Z" fill="#626262"/>
<path d="M40.7952 16.3857C40.8636 16.4244 40.9319 16.4631 41.0024 16.503C41.322 16.7306 41.322 16.7306 41.6174 16.6298C41.6949 16.5837 41.7723 16.5377 41.852 16.4903C42.5293 16.1614 43.4146 16.1679 44.1394 16.3536C44.715 16.6135 45.137 17.0737 45.4166 17.6347C45.7026 18.5355 45.5601 19.5303 45.1602 20.3683C44.883 20.8459 44.5561 21.2562 44.1853 21.6641C44.1176 21.7401 44.0498 21.8161 43.9801 21.8943C43.5428 22.3584 43.0647 22.7592 42.5558 23.1414C42.4985 23.1863 42.4411 23.2311 42.382 23.2774C41.9068 23.6209 41.605 23.6628 41.0405 23.5916C40.7528 23.4462 40.7528 23.4462 40.4952 23.2429C40.4006 23.1686 40.3061 23.0943 40.2087 23.0178C37.6292 20.8593 37.6292 20.8593 37.3884 19.4323C37.2697 17.7445 37.2697 17.7445 37.7941 17.099C38.5704 16.2804 39.7109 15.9789 40.7952 16.3857ZM42.5622 18.1134C42.3906 18.3143 42.2215 18.5172 42.0549 18.7221C41.7939 18.9158 41.679 18.9257 41.3511 18.9187C40.9062 18.7825 40.6689 18.5036 40.4001 18.1325C40.1043 17.9243 39.7651 17.9575 39.4173 18.012C39.146 18.1958 39.1171 18.3039 39.0115 18.6207C39.2107 19.9676 40.3308 20.885 41.3448 21.6641C42.3643 21.3146 43.1523 20.3413 43.6781 19.4323C43.8326 19.04 43.9497 18.7052 43.7997 18.2993C43.6824 18.0854 43.6824 18.0854 43.3928 17.974C43.0136 17.8996 42.8892 17.9122 42.5622 18.1134Z" fill="#626262"/>
<path d="M8.3313 14.7626C8.39969 14.8013 8.46808 14.84 8.53855 14.8799C8.85813 15.1075 8.85813 15.1075 9.15357 15.0067C9.23099 14.9606 9.30841 14.9146 9.38817 14.8672C10.0654 14.5382 10.9507 14.5448 11.6755 14.7305C12.2512 14.9904 12.6732 15.4506 12.9527 16.0116C13.2387 16.9124 13.0962 17.9072 12.6963 18.7452C12.4192 19.2228 12.0923 19.6331 11.7215 20.041C11.6537 20.117 11.586 20.193 11.5162 20.2712C11.0789 20.7353 10.6008 21.1361 10.092 21.5183C10.0346 21.5632 9.97724 21.608 9.91814 21.6542C9.44291 21.9978 9.1411 22.0397 8.57659 21.9685C8.28889 21.8231 8.28889 21.8231 8.03131 21.6198C7.93676 21.5455 7.84222 21.4712 7.7448 21.3947C5.16538 19.2362 5.16538 19.2362 4.92449 17.8092C4.80588 16.1214 4.80588 16.1214 5.33028 15.4759C6.10655 14.6573 7.24699 14.3557 8.3313 14.7626ZM10.0983 16.4903C9.92677 16.6912 9.75761 16.894 9.59107 17.099C9.33002 17.2927 9.21514 17.3026 8.88727 17.2956C8.44238 17.1594 8.20499 16.8805 7.93621 16.5094C7.64044 16.3012 7.30125 16.3344 6.95343 16.3889C6.68213 16.5727 6.65323 16.6808 6.54764 16.9976C6.74688 18.3445 7.86697 19.2619 8.88093 20.041C9.90039 19.6915 10.6884 18.7182 11.2142 17.8092C11.3687 17.4169 11.4858 17.0821 11.3359 16.6762C11.2185 16.4623 11.2185 16.4623 10.9289 16.3509C10.5497 16.2765 10.4254 16.2891 10.0983 16.4903Z" fill="#626262"/>
</svg>
