<svg width="54" height="50" viewBox="0 0 54 50" fill="none" xmlns="http://www.w3.org/2000/svg">
<path d="M2.56501 0.0580884C2.69361 0.0572318 2.8222 0.0563752 2.9547 0.0554927C3.09549 0.0556859 3.23627 0.0558791 3.38133 0.0560782C3.53279 0.0555018 3.68425 0.0548298 3.83572 0.0540704C4.25184 0.0522728 4.66795 0.0518718 5.08408 0.0517071C5.53292 0.051294 5.98176 0.0496107 6.4306 0.0481088C7.41203 0.045081 8.39345 0.0437363 9.37488 0.0427543C9.98781 0.042138 10.6007 0.041193 11.2137 0.0401888C12.911 0.0374699 14.6084 0.035173 16.3057 0.0344184C16.4144 0.0343695 16.523 0.0343205 16.6349 0.0342701C16.7982 0.0341971 16.7982 0.0341971 16.9648 0.0341226C17.1854 0.0340237 17.406 0.0339241 17.6267 0.0338238C17.7361 0.0337744 17.8455 0.033725 17.9583 0.0336742C19.7313 0.0327939 21.5042 0.0289018 23.2772 0.0237083C25.0979 0.0184181 26.9186 0.0156408 28.7394 0.0153808C29.7615 0.0151765 30.7835 0.0138964 31.8056 0.00984588C32.676 0.00640865 33.5464 0.00527101 34.4168 0.0071114C34.8607 0.00798167 35.3045 0.00777998 35.7484 0.00464553C36.1553 0.00179879 36.5621 0.00207642 36.969 0.00477726C37.1849 0.00541804 37.4007 0.0027791 37.6166 0C38.506 0.0100499 39.1466 0.173412 39.836 0.756418C40.3277 1.37212 40.5191 1.89297 40.5184 2.68355C40.5187 2.90378 40.5187 2.90378 40.5189 3.12845C40.5185 3.29153 40.5181 3.45461 40.5177 3.61769C40.5177 3.78912 40.5177 3.96054 40.5177 4.13196C40.5178 4.59775 40.5171 5.06354 40.5163 5.52933C40.5156 6.01596 40.5156 6.50258 40.5154 6.98921C40.5151 7.9109 40.5142 8.83258 40.5131 9.75427C40.5118 10.8035 40.5112 11.8527 40.5106 12.9019C40.5095 15.0605 40.5075 17.219 40.505 19.3775C40.5954 19.3768 40.6858 19.3761 40.7789 19.3754C41.1216 19.3731 41.4643 19.3715 41.807 19.3702C42.0252 19.3692 42.2435 19.3675 42.4618 19.3658C45.7793 19.3558 50.2739 19.8959 52.8096 22.2979C53.8724 23.4639 53.8067 24.8373 53.8028 26.3253C53.8031 26.5205 53.8035 26.7156 53.804 26.9108C53.805 27.4386 53.8046 27.9664 53.8039 28.4942C53.8033 29.0477 53.8039 29.6013 53.8042 30.1549C53.8046 31.0843 53.8041 32.0137 53.803 32.9432C53.8018 34.0162 53.8022 35.0892 53.8034 36.1622C53.8044 37.0851 53.8046 38.0081 53.804 38.931C53.8036 39.4815 53.8036 40.032 53.8043 40.5825C53.805 41.1001 53.8045 41.6178 53.8032 42.1354C53.8029 42.3249 53.803 42.5143 53.8035 42.7038C53.8096 45.2745 53.8096 45.2745 52.8819 46.3613C50.4399 48.8126 46.1364 49.3777 42.8453 49.3945C42.7424 49.3953 42.6395 49.3961 42.5335 49.3969C42.2035 49.3989 41.8734 49.3996 41.5434 49.3998C41.4307 49.3998 41.318 49.3999 41.2019 49.4C39.5712 49.3983 37.9833 49.3574 36.3794 49.0374C36.279 49.0188 36.1786 49.0003 36.0752 48.9812C34.1423 48.6195 32.122 48.0855 30.5812 46.8073C30.517 46.7607 30.4527 46.7142 30.3865 46.6662C29.8291 46.2491 29.4615 45.6782 29.2432 45.0233C29.2333 44.8129 29.2301 44.6022 29.2305 44.3916C29.2305 44.2622 29.2306 44.1327 29.2306 43.9993C29.2311 43.8596 29.2317 43.7199 29.2323 43.5759C29.2325 43.3613 29.2325 43.3613 29.2328 43.1423C29.2332 42.7623 29.2343 42.3823 29.2355 42.0023C29.2367 41.6144 29.2372 41.2265 29.2377 40.8386C29.2389 40.0778 29.2408 39.3169 29.2432 38.5561C29.1391 38.5564 29.035 38.5567 28.9278 38.557C26.3966 38.5644 23.8654 38.5699 21.3342 38.5734C20.1101 38.5751 18.8861 38.5775 17.662 38.5813C16.5952 38.5846 15.5285 38.5868 14.4617 38.5875C13.8967 38.588 13.3318 38.589 12.7668 38.5914C12.2352 38.5937 11.7036 38.5944 11.1719 38.5939C10.9767 38.594 10.7815 38.5947 10.5863 38.5959C10.3198 38.5976 10.0535 38.5972 9.78704 38.5963C9.70971 38.5973 9.63237 38.5982 9.55269 38.5992C8.96358 38.5938 8.61544 38.4334 8.19274 38.0325C7.99785 37.6621 8.00972 37.3065 8.01312 36.8979C8.0128 36.8132 8.01248 36.7286 8.01215 36.6413C8.01192 36.4626 8.01254 36.2839 8.01394 36.1051C8.01573 35.8325 8.01396 35.56 8.01182 35.2874C8.01204 35.1134 8.01247 34.9394 8.01312 34.7654C8.01244 34.6843 8.01177 34.6032 8.01107 34.5197C8.01786 34.0257 8.07806 33.7021 8.39206 33.3154C8.78042 33.021 9.22476 33.0613 9.69221 33.0619C9.86302 33.0596 10.0338 33.0573 10.2046 33.0549C10.4715 33.0524 10.7384 33.0506 11.0053 33.0499C12.4147 33.0441 13.5621 32.9401 14.6855 31.9965C14.8593 31.8659 14.8593 31.8659 15.0823 31.8659C15.1122 31.8033 15.1421 31.7408 15.1729 31.6764C15.3638 31.3065 15.5907 30.9604 15.814 30.6093C15.9994 30.2572 16.0926 29.9072 16.1973 29.5243C16.1246 29.5247 16.0518 29.5251 15.9769 29.5255C14.2049 29.5354 12.4329 29.5428 10.6608 29.5474C9.80388 29.5497 8.94694 29.5528 8.09 29.5579C7.34285 29.5624 6.59571 29.5653 5.84855 29.5663C5.45314 29.5668 5.05777 29.5682 4.66237 29.5715C4.22034 29.5751 3.77834 29.5751 3.3363 29.5749C3.14092 29.5773 3.14092 29.5773 2.9416 29.5798C2.08166 29.5754 1.47706 29.4616 0.807216 28.8836C0.102379 28.0015 0.0123442 27.1694 0.0143965 26.0662C0.0141438 25.9662 0.0138911 25.8662 0.0136308 25.7631C0.012926 25.4285 0.0130164 25.0939 0.0131085 24.7593C0.0127748 24.5192 0.0123952 24.279 0.0119734 24.0389C0.0109885 23.3869 0.0107273 22.7349 0.0106561 22.083C0.0105769 21.6755 0.0103388 21.2681 0.0100432 20.8606C0.00901166 19.4388 0.00855606 18.017 0.00864378 16.5952C0.00871077 15.2704 0.00753426 13.9457 0.0057733 12.6209C0.00431474 11.483 0.00371735 10.3451 0.00378861 9.20726C0.00381702 8.52788 0.00349985 7.8485 0.00231902 7.16912C0.00123853 6.53003 0.00123143 5.89094 0.00204211 5.25185C0.0021586 5.01762 0.00189623 4.7834 0.00122161 4.54917C0.000358673 4.22875 0.000880146 3.90835 0.00173799 3.58793C0.00116446 3.49586 0.000590904 3.40379 0 3.30894C0.00579199 2.32584 0.129361 1.43218 0.856434 0.71112C1.39526 0.234623 1.85279 0.0598726 2.56501 0.0580884ZM2.03637 1.98296C1.74555 2.3718 1.78276 2.8089 1.78654 3.27419C1.78635 3.35972 1.78616 3.44525 1.78596 3.53337C1.7856 3.82015 1.78682 4.1069 1.78804 4.39367C1.78811 4.59917 1.78807 4.80466 1.78794 5.01015C1.78788 5.56832 1.78919 6.12648 1.79075 6.68464C1.79214 7.26785 1.79227 7.85105 1.79254 8.43426C1.79323 9.53878 1.79506 10.6433 1.7973 11.7478C1.79979 13.0052 1.80102 14.2626 1.80214 15.52C1.80447 18.1067 1.80839 20.6934 1.81336 23.2801C5.31527 23.3107 8.81714 23.3343 12.3192 23.3484C12.733 23.3501 13.1468 23.3518 13.5606 23.3536C13.6841 23.3541 13.6841 23.3541 13.8102 23.3547C15.1426 23.3605 16.4749 23.371 17.8073 23.3833C19.1753 23.3959 20.5432 23.4033 21.9113 23.406C22.7549 23.4078 23.5983 23.4136 24.4419 23.4245C25.0897 23.4324 25.7373 23.4332 26.3852 23.4314C26.6502 23.4318 26.9153 23.4345 27.1803 23.4396C28.6117 23.5272 28.6117 23.5272 29.8773 22.9892C30.1004 22.7625 30.2628 22.5416 30.4457 22.2771C31.4138 20.964 33.6618 20.4535 35.1668 20.0813C35.251 20.0601 35.3351 20.0389 35.4219 20.017C36.1575 19.846 36.9012 19.7479 37.649 19.648C37.7629 19.6327 37.8768 19.6173 37.9941 19.6015C38.2736 19.5638 38.553 19.5263 38.8325 19.489C38.8377 17.3033 38.8416 15.1177 38.844 12.9321C38.8452 11.9172 38.8468 10.9024 38.8493 9.88758C38.8515 9.0031 38.853 8.11863 38.8535 7.23414C38.8538 6.76578 38.8544 6.29743 38.8561 5.82907C38.8576 5.38821 38.858 4.94737 38.8577 4.50652C38.8578 4.34475 38.8582 4.18297 38.8591 4.02121C38.8602 3.80021 38.8598 3.57921 38.8593 3.35822C38.8595 3.23457 38.8597 3.11092 38.8599 2.98353C38.8229 2.53645 38.7497 2.22541 38.416 1.91384C38.1046 1.7241 37.9159 1.71814 37.5526 1.71816C37.4277 1.71736 37.3028 1.71656 37.1741 1.71573C37.0369 1.71655 36.8996 1.71737 36.7582 1.71822C36.5396 1.71756 36.5396 1.71756 36.3165 1.71688C35.9115 1.7157 35.5066 1.71661 35.1016 1.71785C34.6651 1.71884 34.2285 1.7179 33.7919 1.7172C32.9364 1.71614 32.081 1.71688 31.2256 1.71823C30.2299 1.71975 29.2342 1.71957 28.2386 1.71933C26.4623 1.71898 24.686 1.72028 22.9097 1.72246C21.1852 1.72458 19.4607 1.72537 17.7361 1.72475C15.8593 1.72407 13.9824 1.72409 12.1056 1.72536C11.9055 1.7255 11.7055 1.72563 11.5055 1.72576C11.407 1.72583 11.3086 1.7259 11.2072 1.72597C10.5127 1.7264 9.81832 1.72636 9.1239 1.72615C8.27789 1.72591 7.43189 1.72649 6.58589 1.72811C6.15405 1.72892 5.72222 1.72937 5.29038 1.72886C4.82278 1.72833 4.3552 1.72951 3.88761 1.73088C3.75038 1.73046 3.61315 1.73004 3.47176 1.7296C3.34685 1.73025 3.22195 1.7309 3.09326 1.73157C2.98528 1.73167 2.8773 1.73177 2.76605 1.73187C2.46835 1.76134 2.28848 1.82494 2.03637 1.98296ZM31.3339 23.5658C31.0333 23.9001 30.8956 24.1551 30.9157 24.6181C31.2738 25.5492 32.2663 26.0693 33.1263 26.4589C38.0234 28.5558 44.7197 28.4815 49.6483 26.5137C51.0705 25.9101 51.0705 25.9101 51.9899 24.7296C51.9899 24.2669 51.9414 24.0299 51.6554 23.6634C47.1703 20.0193 35.7262 19.5217 31.3339 23.5658ZM1.81336 24.9527C1.64714 26.9334 1.64714 26.9334 2.03637 27.6287C2.34498 27.8336 2.58894 27.8796 2.95519 27.8792C3.09635 27.8798 3.09635 27.8798 3.24037 27.8805C3.3946 27.8796 3.3946 27.8796 3.55196 27.8786C3.71645 27.8788 3.71645 27.8788 3.88426 27.8791C4.25271 27.8795 4.62113 27.8783 4.98957 27.8771C5.25329 27.877 5.517 27.877 5.78072 27.8772C6.49761 27.8772 7.2145 27.8759 7.93139 27.8744C8.60439 27.873 9.2774 27.8729 9.9504 27.8726C11.2834 27.8722 12.6165 27.8707 13.9495 27.8686C15.2444 27.8665 16.5393 27.8649 17.8342 27.864C17.954 27.8639 17.954 27.8639 18.0761 27.8638C18.4765 27.8635 18.8769 27.8632 19.2774 27.863C22.5993 27.8607 25.9212 27.8567 29.2432 27.8517C29.2432 26.895 29.2432 25.9383 29.2432 24.9527C20.1913 24.9527 11.1395 24.9527 1.81336 24.9527ZM30.9157 27.1827C30.9047 27.758 30.8966 28.3333 30.8912 28.9086C30.889 29.1042 30.886 29.2997 30.8821 29.4952C30.8767 29.777 30.8741 30.0587 30.8722 30.3405C30.8699 30.4273 30.8676 30.5141 30.8652 30.6035C30.865 31.1886 30.9799 31.5102 31.3618 31.9774C33.1159 33.5804 35.8871 34.0179 38.1635 34.3189C38.2405 34.3296 38.3176 34.3403 38.397 34.3513C39.3785 34.4692 40.3681 34.4576 41.3552 34.4583C41.5002 34.4584 41.5002 34.4584 41.648 34.4585C44.6762 34.4548 49.1733 34.2932 51.5086 32.0174C51.9806 31.4665 52.0053 31.0859 52.0008 30.3841C52.0006 30.2928 52.0005 30.2016 52.0003 30.1076C51.9997 29.8156 51.9983 29.5236 51.9969 29.2316C51.9963 29.0339 51.9958 28.8361 51.9953 28.6384C51.9941 28.1531 51.9922 27.6679 51.9899 27.1827C51.8706 27.2436 51.7514 27.3044 51.6285 27.3671C51.4688 27.4479 51.309 27.5288 51.1493 27.6096C51.032 27.6695 51.032 27.6695 50.9123 27.7307C49.5291 28.4283 48.0431 28.7997 46.5262 29.0783C46.4361 29.0953 46.346 29.1123 46.2531 29.1298C43.1044 29.6948 39.5164 29.6905 36.3794 29.0783C36.2782 29.0586 36.177 29.0388 36.0727 29.0185C34.232 28.6452 32.5872 28.0348 30.9157 27.1827ZM17.9813 29.5243C17.871 29.9658 17.7606 30.4074 17.6468 30.8623C17.3299 31.5931 16.9656 32.1762 16.4599 32.7897C16.2973 32.9549 16.2973 32.9549 16.3088 33.0924C18.9949 33.0924 21.681 33.0924 24.4485 33.0924C24.2278 32.798 24.007 32.5037 23.7795 32.2004C23.5796 31.8676 23.5796 31.8676 23.4241 31.5592C23.3719 31.4586 23.3198 31.358 23.266 31.2543C23.045 30.6972 22.9214 30.1058 22.776 29.5243C21.1938 29.5243 19.6115 29.5243 17.9813 29.5243ZM24.56 29.5243C24.7059 30.5456 25.1069 31.2992 25.8981 31.9774C25.9608 32.0321 26.0234 32.0869 26.088 32.1433C27.0967 32.9695 27.9341 33.0924 29.2432 33.0924C29.2432 31.9149 29.2432 30.7375 29.2432 29.5243C27.6978 29.5243 26.1523 29.5243 24.56 29.5243ZM30.9157 33.8729C30.9047 34.4323 30.8966 34.9917 30.8912 35.5512C30.889 35.7413 30.886 35.9315 30.8821 36.1216C30.8767 36.3956 30.8741 36.6695 30.8722 36.9436C30.8699 37.028 30.8676 37.1123 30.8652 37.1992C30.8649 37.8813 31.0878 38.2764 31.57 38.7686C34.0097 40.7053 37.8377 41.0751 40.8395 41.1206C40.9314 41.1221 41.0232 41.1236 41.1178 41.1251C44.3284 41.1517 49.0915 40.9713 51.5578 38.5839C52.0148 38.0986 52.005 37.7242 52.0008 37.0743C52.0006 36.983 52.0005 36.8918 52.0003 36.7978C51.9997 36.5058 51.9983 36.2138 51.9969 35.9218C51.9963 35.7241 51.9958 35.5263 51.9953 35.3286C51.9941 34.8434 51.9922 34.3581 51.9899 33.8729C51.6833 33.9931 51.3893 34.1175 51.0944 34.2649C48.4927 35.5657 45.5133 36.0354 42.6236 36.103C42.5031 36.1064 42.5031 36.1064 42.3802 36.1099C38.7074 36.2037 34.6439 35.9083 31.4071 34.0201C31.1572 33.855 31.1572 33.855 30.9157 33.8729ZM9.8416 34.8765C9.8416 35.502 9.8416 36.1275 9.8416 36.772C16.2441 36.772 22.6467 36.772 29.2432 36.772C29.2432 36.1465 29.2432 35.5209 29.2432 34.8765C22.8407 34.8765 16.4381 34.8765 9.8416 34.8765ZM30.9157 40.4516C30.9047 41.009 30.8966 41.5663 30.8912 42.1238C30.889 42.3131 30.886 42.5025 30.8821 42.6918C30.8766 42.9651 30.8741 43.2382 30.8722 43.5114C30.8699 43.5952 30.8676 43.679 30.8652 43.7653C30.8649 44.3829 31.0137 44.7351 31.3618 45.2463C34.1741 47.8854 39.5328 47.7885 43.0696 47.6993C45.7811 47.5904 49.2715 47.1578 51.4324 45.3578C51.943 44.7637 52.0057 44.4222 52.0008 43.653C52.0006 43.5617 52.0005 43.4705 52.0003 43.3765C51.9997 43.0845 51.9983 42.7925 51.9969 42.5005C51.9963 42.3028 51.9958 42.105 51.9953 41.9073C51.9941 41.4221 51.9922 40.9368 51.9899 40.4516C51.9308 40.4816 51.8717 40.5116 51.8109 40.5425C46.4799 43.2401 39.3765 43.4559 33.7033 41.6782C32.7423 41.3363 31.8263 40.909 30.9157 40.4516Z" fill="#626262"/>
<path d="M22.2174 7.11209C22.5088 7.28129 22.5404 7.40528 22.6306 7.72793C22.6748 8.2503 22.5536 8.67404 22.4153 9.17559C22.3737 9.33263 22.3737 9.33263 22.3313 9.49285C22.2395 9.83804 22.1457 10.1827 22.0519 10.5273C21.9875 10.7675 21.9231 11.0077 21.8588 11.2479C21.7239 11.751 21.5881 12.2538 21.4516 12.7565C21.2767 13.4005 21.1038 14.045 20.9316 14.6897C20.7989 15.1857 20.6653 15.6814 20.5315 16.1771C20.4675 16.4146 20.4036 16.6522 20.34 16.8899C20.2509 17.2222 20.1607 17.5541 20.0702 17.8859C20.0441 17.984 20.0181 18.0821 19.9912 18.1831C19.8593 18.6619 19.7321 19.0855 19.4298 19.489C19.1162 19.6562 19.1162 19.6562 18.7608 19.712C18.1424 19.4786 18.1424 19.4786 17.9803 19.1545C17.9372 18.5072 18.0613 17.9628 18.2309 17.3458C18.2708 17.1958 18.2708 17.1958 18.3116 17.0428C18.3996 16.7138 18.4889 16.3853 18.5783 16.0568C18.6401 15.8273 18.7018 15.5978 18.7634 15.3682C18.8926 14.8878 19.0225 14.4076 19.1529 13.9275C19.3197 13.3132 19.4851 12.6987 19.65 12.084C19.7773 11.6101 19.9051 11.1365 20.0332 10.6629C20.0943 10.4364 20.1554 10.2098 20.2163 9.98324C20.3016 9.66609 20.3877 9.34915 20.474 9.03226C20.4989 8.93933 20.5237 8.8464 20.5494 8.75065C20.6951 8.21919 20.8599 7.71944 21.1024 7.2236C21.4577 7.04594 21.8307 7.0693 22.2174 7.11209Z" fill="#626262"/>
<path d="M24.5602 9.11919C24.8862 9.36378 25.1659 9.64936 25.451 9.93979C25.5754 10.0638 25.5754 10.0638 25.7023 10.1903C25.877 10.3651 26.051 10.5406 26.2243 10.7167C26.4899 10.9861 26.758 11.2527 27.0266 11.5191C27.1961 11.6894 27.3655 11.8599 27.5347 12.0305C27.6149 12.1102 27.6952 12.1899 27.7779 12.272C27.8516 12.3475 27.9253 12.423 28.0013 12.5008C28.0664 12.5665 28.1315 12.6323 28.1985 12.7001C28.3847 12.9561 28.4275 13.1553 28.4629 13.4678C28.3364 14.0704 27.8595 14.4598 27.4406 14.8808C27.3611 14.9614 27.2816 15.042 27.1997 15.1251C27.0315 15.295 26.8629 15.4644 26.6938 15.6334C26.436 15.8919 26.1809 16.153 25.9259 16.4144C25.762 16.5793 25.5978 16.7441 25.4335 16.9087C25.3578 16.9869 25.282 17.0651 25.204 17.1456C24.8447 17.4998 24.6317 17.6855 24.1359 17.8205C23.7797 17.8165 23.7797 17.8165 23.4522 17.6562C23.1898 17.3302 23.1631 17.1254 23.1752 16.7118C23.2615 16.2832 23.5451 16.0458 23.8564 15.7571C23.9207 15.694 23.9851 15.631 24.0514 15.566C24.2561 15.3661 24.4638 15.1697 24.6717 14.9731C24.8116 14.8377 24.9513 14.7021 25.0907 14.5663C25.432 14.2349 25.7758 13.9064 26.1213 13.5793C25.9456 13.1522 25.6751 12.8861 25.3477 12.5649C25.2941 12.5119 25.2405 12.4589 25.1853 12.4042C25.0146 12.2355 24.8432 12.0676 24.6717 11.8998C24.5003 11.7315 24.3291 11.563 24.1582 11.3942C24.0032 11.2412 23.8477 11.0887 23.6922 10.9363C23.364 10.5961 23.19 10.3718 23.1873 9.89971C23.195 9.60377 23.2 9.48646 23.3685 9.23766C23.7957 8.96874 24.0891 8.97374 24.5602 9.11919Z" fill="#626262"/>
<path d="M17.0892 9.00764C17.3627 9.24586 17.4134 9.40831 17.4934 9.76029C17.3106 10.7106 16.1413 11.5297 15.4793 12.1855C15.3765 12.2878 15.2736 12.3902 15.1677 12.4956C14.9164 12.7456 14.6649 12.9953 14.4131 13.2448C14.979 13.9308 15.5989 14.5512 16.232 15.1752C16.4339 15.3743 16.6356 15.5736 16.837 15.7732C16.9256 15.8605 17.0141 15.9478 17.1054 16.0377C17.3655 16.3115 17.4186 16.4203 17.4515 16.7989C17.4199 17.1945 17.3876 17.3334 17.0892 17.5934C16.7337 17.7258 16.7337 17.7258 16.3086 17.7049C16.1308 17.589 16.1308 17.589 15.9406 17.4144C15.8629 17.3431 15.7853 17.2719 15.7052 17.1985C15.61 17.108 15.5147 17.0176 15.4166 16.9244C15.3574 16.8684 15.2982 16.8125 15.2372 16.7549C14.8097 16.3499 14.3874 15.94 13.9678 15.5268C13.8178 15.3799 13.6671 15.2337 13.5155 15.0883C13.2948 14.8764 13.0767 14.662 12.859 14.4469C12.7911 14.3827 12.7231 14.3184 12.6531 14.2522C12.3411 13.9387 12.1973 13.7478 12.0879 13.3111C12.2306 12.7097 12.5906 12.4035 13.0289 11.9843C13.115 11.899 13.2011 11.8138 13.2898 11.7259C13.5649 11.4544 13.8426 11.1858 14.1204 10.9171C14.3067 10.7338 14.4928 10.5503 14.6788 10.3666C15.0189 10.0321 15.3593 9.69793 15.7021 9.36616C15.7709 9.29944 15.8397 9.23271 15.9106 9.16396C16.3012 8.81504 16.5946 8.89484 17.0892 9.00764Z" fill="#626262"/>
<path d="M33.3683 43.0162C34.0814 43.3275 34.0814 43.3275 34.2603 43.6852C34.2999 44.113 34.3213 44.3706 34.0861 44.7376C33.7088 44.9794 33.4754 44.9651 33.0338 44.9118C32.6805 44.7785 32.445 44.675 32.2045 44.3821C32.1102 44.005 32.158 43.725 32.2532 43.3507C32.5813 42.9741 32.8859 42.95 33.3683 43.0162Z" fill="#626262"/>
<path d="M33.5929 36.4375C34.1133 36.6977 34.1133 36.6977 34.2619 36.995C34.3015 37.4228 34.323 37.6804 34.0877 38.0473C33.7104 38.2892 33.477 38.2749 33.0354 38.2216C32.6822 38.0883 32.4467 37.9848 32.2061 37.6919C32.1107 37.3102 32.1519 37.0383 32.2549 36.6605C32.6872 36.2536 33.038 36.2988 33.5929 36.4375Z" fill="#626262"/>
<path d="M33.9276 29.9703C34.1544 30.147 34.2483 30.2376 34.3065 30.5209C34.3057 30.5968 34.3048 30.6727 34.3039 30.7509C34.3048 30.8268 34.3057 30.9026 34.3065 30.9808C34.2483 31.2643 34.16 31.3614 33.9276 31.5314C33.4201 31.6387 33.003 31.5666 32.5338 31.3572C32.2551 31.0854 32.2551 31.0854 32.1436 30.6951C32.1436 30.1325 32.1436 30.1325 32.3666 29.8588C32.8873 29.4959 33.4004 29.7126 33.9276 29.9703Z" fill="#626262"/>
</svg>
