<svg width="51" height="51" viewBox="0 0 51 51" fill="none" xmlns="http://www.w3.org/2000/svg">
<path d="M5.07489 0.0280801C5.14665 0.0276967 5.2184 0.0273133 5.29234 0.0269183C5.53185 0.025904 5.77134 0.026437 6.01085 0.0269694C6.18469 0.0265606 6.35852 0.0260574 6.53236 0.0254679C7.00937 0.0241312 7.48637 0.0241589 7.96338 0.0244169C8.47812 0.0244615 8.99285 0.0232542 9.50759 0.0222172C10.5158 0.020401 11.5241 0.0197994 12.5323 0.0196775C13.3521 0.0195735 14.1718 0.019124 14.9915 0.0184307C17.3162 0.0165047 19.6408 0.0154957 21.9655 0.0156598C22.0908 0.0156685 22.2161 0.0156772 22.3452 0.0156862C22.4707 0.0156952 22.5961 0.0157041 22.7254 0.0157133C24.7582 0.0158022 26.791 0.0137098 28.8238 0.0106257C30.9117 0.00748303 32.9996 0.00597376 35.0875 0.00616265C36.2595 0.00623522 37.4314 0.00563598 38.6033 0.00328049C39.6013 0.00128761 40.5992 0.000814646 41.5971 0.00229836C42.106 0.00301175 42.6149 0.00302761 43.1238 0.00112756C43.5902 -0.000596147 44.0567 -0.00027598 44.5231 0.00162712C44.6913 0.00196206 44.8595 0.00156854 45.0276 0.00034547C46.6728 -0.0108221 48.053 0.359578 49.2976 1.48124C50.4585 2.6972 50.8343 4.05736 50.83 5.68708C50.8305 5.82479 50.831 5.96251 50.8315 6.10439C50.8329 6.4854 50.8329 6.86639 50.8326 7.2474C50.8325 7.65882 50.8338 8.07024 50.8348 8.48166C50.8366 9.28729 50.8372 10.0929 50.8373 10.8986C50.8374 11.5537 50.8379 12.2088 50.8386 12.8639C50.8405 14.7226 50.8415 16.5814 50.8414 18.4401C50.8413 18.5402 50.8413 18.6404 50.8413 18.7436C50.8413 18.8439 50.8413 18.9441 50.8413 19.0474C50.8412 20.6719 50.8433 22.2963 50.8464 23.9208C50.8495 25.59 50.851 27.2592 50.8508 28.9285C50.8508 29.8651 50.8514 30.8017 50.8537 31.7384C50.8557 32.536 50.8562 33.3336 50.8547 34.1312C50.854 34.5378 50.854 34.9443 50.8559 35.3509C50.8579 35.7927 50.8566 36.2343 50.8549 36.6761C50.856 36.8032 50.8571 36.9304 50.8583 37.0614C50.847 38.4092 50.4515 39.4772 49.5979 40.5174C49.5352 40.595 49.4724 40.6727 49.4078 40.7527C48.569 41.6885 47.2595 42.3074 46.0074 42.3991C45.6432 42.4106 45.2796 42.4153 44.9153 42.417C44.7822 42.418 44.649 42.419 44.5119 42.42C44.2316 42.4216 43.9512 42.4225 43.6709 42.4229C43.2423 42.4242 42.8138 42.4296 42.3852 42.4351C42.1122 42.4362 41.8393 42.437 41.5663 42.4375C41.4385 42.4396 41.3107 42.4418 41.179 42.444C40.1898 42.4385 40.1898 42.4385 39.7868 42.1188C39.4931 41.7784 39.419 41.6222 39.4279 41.1735C39.5865 40.6978 39.6629 40.4701 40.0841 40.1893C40.3354 40.1618 40.3354 40.1618 40.6342 40.1614C40.7464 40.1606 40.8585 40.1599 40.974 40.1591C41.0953 40.1592 41.2166 40.1593 41.3416 40.1594C41.5992 40.1572 41.8568 40.1549 42.1144 40.1526C42.5199 40.1501 42.9254 40.1483 43.3309 40.1477C43.7227 40.1466 44.1143 40.1429 44.5061 40.1389C44.6256 40.1395 44.7452 40.14 44.8683 40.1406C45.9844 40.1265 46.9532 39.873 47.7765 39.0885C48.2677 38.515 48.5168 37.85 48.5195 37.0977C48.5201 37.0046 48.5207 36.9115 48.5213 36.8156C48.5214 36.7139 48.5215 36.6123 48.5217 36.5075C48.5225 36.3453 48.5225 36.3453 48.5233 36.1797C48.525 35.8151 48.5259 35.4505 48.5268 35.0859C48.5279 34.8208 48.529 34.5558 48.5301 34.2908C48.5331 33.5799 48.5354 32.8689 48.5376 32.158C48.5397 31.4913 48.5425 30.8247 48.5451 30.158C48.5526 28.2072 48.5592 26.2564 48.5659 24.3056C48.5895 17.7693 48.5895 17.7693 48.6137 11.101C33.3128 11.101 18.0119 11.101 2.24741 11.101C2.25868 15.4472 2.26996 19.7935 2.28158 24.2714C2.2843 25.644 2.28702 27.0167 2.28983 28.4309C2.29383 29.6607 2.29383 29.6607 2.29826 30.8905C2.30022 31.4385 2.30127 31.9865 2.30177 32.5345C2.30243 33.2336 2.30466 33.9328 2.30801 34.6319C2.30897 34.8884 2.30939 35.1449 2.3092 35.4014C2.30902 35.7482 2.31084 36.095 2.31316 36.4418C2.31263 36.5419 2.3121 36.6419 2.31155 36.745C2.32303 37.7906 2.59109 38.5571 3.31276 39.32C3.90128 39.8281 4.65771 40.0936 5.43289 40.0936C5.52195 40.0939 5.61101 40.0941 5.70278 40.0944C5.79953 40.0942 5.89629 40.094 5.99597 40.0937C6.14994 40.094 6.14994 40.094 6.30702 40.0944C6.52976 40.0948 6.75251 40.095 6.97525 40.0951C7.44864 40.0954 7.92201 40.0978 8.39539 40.1C9.27675 40.1042 10.1581 40.1076 11.0395 40.1073C11.6526 40.1073 12.2657 40.1098 12.8788 40.1141C13.1125 40.1153 13.3461 40.1154 13.5798 40.1146C13.9065 40.1135 14.2331 40.1158 14.5598 40.1189C14.6563 40.1178 14.7529 40.1167 14.8523 40.1156C15.3302 40.1237 15.5291 40.1436 15.9195 40.4432C16.1907 40.811 16.2448 41.046 16.2448 41.5016C16.0688 41.9091 15.8655 42.1604 15.4793 42.3764C15.136 42.4263 14.7948 42.4223 14.4484 42.4206C14.2917 42.4217 14.2917 42.4217 14.1319 42.4229C13.786 42.4249 13.4403 42.4244 13.0944 42.4238C12.8533 42.4243 12.6121 42.4249 12.371 42.4256C11.8647 42.4265 11.3585 42.4263 10.8523 42.4252C10.2066 42.4239 9.56101 42.4261 8.91536 42.4293C8.41671 42.4313 7.91807 42.4313 7.41942 42.4307C7.18161 42.4307 6.9438 42.4313 6.70599 42.4327C4.69523 42.4426 3.02382 42.2606 1.50243 40.8044C0.35499 39.5883 -0.00805432 38.2179 0.00477213 36.5614C0.00374858 36.3547 0.00374853 36.3547 0.0027043 36.1438C0.000896234 35.7655 0.00177286 35.3872 0.00313605 35.0089C0.00413274 34.5993 0.00259438 34.1897 0.00139485 33.7801C-0.000543109 32.9794 -0.000133298 32.1787 0.00113788 31.3779C0.00212846 30.7268 0.00225858 30.0758 0.00178364 29.4247C0.00171661 29.3317 0.00164954 29.2388 0.00158048 29.1431C0.00144062 28.9543 0.00129915 28.7656 0.0011554 28.5768C-8.98221e-05 26.8096 0.00133893 25.0424 0.00369253 23.2752C0.00564697 21.7608 0.00530657 20.2465 0.0032904 18.7321C0.000946454 16.9707 2.95699e-05 15.2094 0.00137107 13.448C0.0015104 13.26 0.00164796 13.072 0.00178364 12.884C0.00185112 12.7915 0.00191851 12.699 0.00198804 12.6037C0.00236476 11.9538 0.00173039 11.3039 0.000699035 10.6539C-0.00053118 9.86135 -0.000188692 9.06877 0.00213405 8.27618C0.00327899 7.87225 0.00374182 7.46836 0.00228756 7.06443C0.000731505 6.62557 0.00259673 6.1868 0.00477213 5.74794C0.00330849 5.55855 0.00330854 5.55856 0.00181534 5.36534C0.0157342 3.91252 0.51007 2.64159 1.48534 1.55941C2.45598 0.632734 3.72466 0.0297152 5.07489 0.0280801ZM3.01289 3.22749C1.74161 4.93787 2.24741 6.43083 2.24741 8.80457C17.5483 8.80457 32.8492 8.80457 48.6137 8.80457C48.8403 5.84451 48.8403 5.8445 47.9918 3.35735C47.2282 2.63506 46.4394 2.21648 45.3753 2.21517C45.3051 2.21479 45.2349 2.2144 45.1625 2.21401C44.9276 2.21299 44.6927 2.21353 44.4577 2.21406C44.2874 2.21365 44.1172 2.21315 43.9469 2.21256C43.4792 2.21122 43.0115 2.21125 42.5438 2.21151C42.0392 2.21155 41.5347 2.21034 41.0302 2.20931C40.0418 2.20749 39.0534 2.20689 38.065 2.20677C37.2616 2.20666 36.4581 2.20621 35.6547 2.20552C33.3767 2.20359 31.0987 2.20259 28.8206 2.20275C28.6978 2.20276 28.575 2.20277 28.4485 2.20278C28.264 2.20279 28.264 2.20279 28.0759 2.2028C26.0832 2.20289 24.0906 2.2008 22.0979 2.19772C20.0518 2.19457 18.0056 2.19306 15.9595 2.19325C14.8108 2.19332 13.6621 2.19272 12.5134 2.19037C11.5353 2.18838 10.5572 2.1879 9.57916 2.18939C9.08026 2.1901 8.58138 2.19011 8.08248 2.18822C7.62538 2.1865 7.16834 2.18681 6.71124 2.18872C6.54626 2.18905 6.38127 2.18866 6.21628 2.18744C4.98104 2.17891 3.90926 2.31027 3.01289 3.22749Z" fill="#626262"/>
<path d="M25.4032 19.268C26.2151 19.7422 26.5868 20.3856 26.8525 21.271C26.9098 21.6507 26.9186 22.0228 26.9192 22.4064C26.921 22.5092 26.9228 22.612 26.9246 22.718C26.9299 23.0421 26.9323 23.3663 26.9345 23.6905C26.9376 23.912 26.9409 24.1336 26.9444 24.3551C26.9524 24.8945 26.9579 25.4338 26.9619 25.9732C27.0495 25.9697 27.1371 25.9661 27.2273 25.9624C28.3526 25.9355 28.3526 25.9355 28.8893 26.2808C29.3041 26.504 29.3041 26.504 29.7491 26.4346C29.9296 26.3309 30.1086 26.2246 30.2861 26.1159C30.8007 25.8578 31.3236 25.8873 31.8828 25.9732C32.1539 26.0723 32.4038 26.1892 32.6611 26.3192C32.9579 26.451 33.1135 26.4168 33.4138 26.3013C33.5424 26.2449 33.6709 26.1885 33.8034 26.1304C34.585 25.8346 35.4108 25.8453 36.175 26.1851C36.8236 26.5533 37.3898 27.0872 37.6875 27.779C37.8202 28.2828 37.8202 28.754 37.8198 29.2728C37.8205 29.3834 37.8212 29.4939 37.822 29.6078C37.8241 29.9726 37.8245 30.3375 37.8247 30.7024C37.8254 30.9574 37.8262 31.2124 37.8269 31.4674C37.8282 32.0023 37.8286 32.5373 37.8285 33.0722C37.8285 33.7538 37.8315 34.4354 37.8352 35.1171C37.8377 35.6443 37.8381 36.1714 37.838 36.6986C37.8383 36.9497 37.8392 37.2007 37.8409 37.4518C37.8514 39.1664 37.7323 40.6201 37.0157 42.1987C36.6485 43.0752 36.4972 43.9541 36.3664 44.8915C36.4645 44.9129 36.4645 44.9129 36.5646 44.9347C37.2108 45.1136 37.5734 45.5306 37.8973 46.0944C38.103 46.7114 38.0402 47.4054 38.045 48.0525C38.0468 48.2321 38.0498 48.4118 38.0539 48.5914C38.0599 48.8513 38.0623 49.1109 38.0639 49.3708C38.0664 49.4507 38.0689 49.5306 38.0714 49.6128C38.0696 50.0479 38.0221 50.2308 37.7453 50.5737C37.3707 50.8664 37.1704 50.8758 36.7115 50.8514C36.3343 50.7639 36.1576 50.55 35.929 50.2499C35.4396 49.2713 35.8196 48.0634 35.8196 46.9693C30.8396 46.9693 25.8596 46.9693 20.7287 46.9693C20.7287 47.9797 20.7287 48.9902 20.7287 50.0312C20.2913 50.6873 20.2913 50.6873 20.0726 50.7967C19.5419 50.8697 19.1978 50.8788 18.7603 50.5506C18.3016 49.9199 18.4082 49.1838 18.4049 48.4319C18.4026 48.3074 18.4004 48.183 18.3981 48.0547C18.3939 47.1536 18.4758 46.3432 18.9517 45.5613C19.2836 45.2478 19.7072 44.8915 20.1819 44.8915C19.7945 43.0647 19.281 41.4343 17.9812 40.0253C17.2258 39.185 16.8914 38.1752 16.8819 37.0662C16.8798 36.8515 16.8798 36.8515 16.8777 36.6325C16.8768 36.477 16.876 36.3214 16.8752 36.1658C16.8748 36.0869 16.8743 36.0079 16.8739 35.9265C16.8716 35.5084 16.87 35.0902 16.869 34.672C16.8678 34.2427 16.864 33.8134 16.8597 33.3841C16.8568 33.0517 16.8559 32.7193 16.8555 32.3869C16.855 32.2288 16.8537 32.0707 16.8517 31.9126C16.8372 30.7166 16.9562 29.6762 17.8 28.7656C18.5093 28.1544 19.2262 27.9236 20.1477 27.9348C20.2245 27.9353 20.3012 27.9358 20.3803 27.9363C20.5694 27.9376 20.7584 27.9395 20.9474 27.9416C20.9469 27.8673 20.9464 27.793 20.9459 27.7165C20.9411 26.9394 20.9378 26.1624 20.9354 25.3853C20.9343 25.0957 20.9328 24.8062 20.9309 24.5166C20.9282 24.0991 20.927 23.6817 20.926 23.2641C20.9249 23.1358 20.9238 23.0075 20.9226 22.8753C20.9225 21.7058 20.9899 20.6282 21.8222 19.74C22.9262 18.9228 24.1196 18.6767 25.4032 19.268ZM23.501 21.3011C23.0922 21.7747 23.1688 22.2605 23.1752 22.8664C23.174 23.0607 23.174 23.0607 23.1728 23.2588C23.1711 23.6136 23.1718 23.9682 23.1735 24.323C23.1747 24.6944 23.1726 25.0657 23.1708 25.4371C23.1678 26.1407 23.1674 26.8442 23.1681 27.5478C23.1693 28.8078 23.1666 30.0677 23.1622 31.3277C23.161 31.6974 23.1605 32.067 23.1611 32.4367C23.1619 32.8487 23.1614 33.2608 23.1607 33.6729C23.1613 33.7954 23.1619 33.9179 23.1626 34.0441C23.1619 34.2124 23.1619 34.2124 23.1613 34.3841C23.1614 34.4816 23.1615 34.579 23.1616 34.6793C23.1322 34.962 23.0647 35.1372 22.9158 35.3777C22.5399 35.6561 22.1666 35.6442 21.7129 35.5964C21.2093 35.2899 21.2093 35.2899 21.0979 34.9522C21.0274 34.5572 21.0395 34.1575 21.0375 33.7575C21.035 33.566 21.0324 33.3746 21.0296 33.1831C21.0258 32.882 21.0226 32.5808 21.0211 32.2796C21.0194 31.9885 21.015 31.6975 21.0102 31.4063C21.0104 31.3161 21.0106 31.2259 21.0108 31.1329C21.0049 30.6382 21.0049 30.6382 20.7448 30.2359C20.4228 30.0889 20.2047 30.0857 19.8538 30.1287C19.4392 30.3172 19.2526 30.4727 19.0884 30.8942C19.0546 31.1928 19.0546 31.1928 19.0583 31.5222C19.0573 31.6485 19.0562 31.7748 19.0552 31.905C19.0553 32.0411 19.0554 32.1772 19.0555 32.3175C19.055 32.458 19.0545 32.5985 19.0541 32.7433C19.0532 33.0408 19.0533 33.3382 19.0538 33.6357C19.0545 34.0149 19.0526 34.394 19.0501 34.7732C19.0481 35.137 19.0485 35.5009 19.0486 35.8647C19.0476 35.9999 19.0466 36.1352 19.0456 36.2745C19.0502 37.1418 19.1035 37.9113 19.6885 38.6028C19.7384 38.6634 19.7883 38.724 19.8397 38.7865C19.8917 38.8479 19.9438 38.9094 19.9974 38.9727C21.3587 40.6511 21.9716 42.3765 22.3268 44.4857C22.3521 44.6754 22.3521 44.6754 22.4784 44.7822C22.6292 44.7913 22.7805 44.7928 22.9316 44.7912C23.0781 44.79 23.0781 44.79 23.2276 44.7889C23.3356 44.7874 23.4436 44.786 23.5548 44.7846C23.6679 44.7835 23.781 44.7825 23.8975 44.7814C24.2732 44.7778 24.649 44.7734 25.0247 44.769C25.2844 44.7663 25.5441 44.7637 25.8039 44.7611C26.489 44.7542 27.1741 44.7467 27.8593 44.739C28.5578 44.7313 29.2563 44.7242 29.9548 44.7171C31.3265 44.7029 32.6982 44.6881 34.0699 44.6728C34.0852 44.6005 34.1005 44.5281 34.1163 44.4535C34.1865 44.1225 34.2574 43.7917 34.3283 43.4608C34.3643 43.29 34.3643 43.29 34.4012 43.1158C34.5681 42.3394 34.7696 41.618 35.0815 40.8864C35.1576 40.7006 35.2333 40.5147 35.3087 40.3286C35.3576 40.2126 35.3576 40.2126 35.4075 40.0942C35.624 39.4941 35.619 38.9057 35.622 38.2756C35.6229 38.1717 35.6238 38.0678 35.6247 37.9607C35.6274 37.6179 35.6292 37.275 35.6308 36.9322C35.6317 36.7564 35.6317 36.7564 35.6326 36.5771C35.6355 35.9576 35.6376 35.3381 35.6392 34.7186C35.6406 34.2055 35.6437 33.6924 35.6481 33.1794C35.6535 32.5598 35.6562 31.9402 35.657 31.3205C35.6578 31.0843 35.6594 30.8481 35.662 30.612C35.6655 30.2821 35.6655 29.9524 35.6647 29.6225C35.6665 29.5247 35.6683 29.4269 35.6701 29.3262C35.6665 28.7644 35.6665 28.7644 35.3415 28.315C35.0664 28.1376 35.0664 28.1376 34.7671 28.1603C34.4499 28.2938 34.3583 28.416 34.1793 28.7071C34.13 28.9614 34.13 28.9614 34.1349 29.2329C34.1313 29.3825 34.1313 29.3825 34.1276 29.5351C34.1266 29.6385 34.1256 29.7419 34.1246 29.8485C34.1125 31.1079 34.1125 31.1079 33.7419 31.5503C33.3965 31.723 33.0194 31.7493 32.6483 31.6597C32.3207 31.435 32.13 31.261 32.0533 30.8614C32.0349 30.5615 32.0307 30.2651 32.0332 29.9647C32.0663 29.0539 32.0663 29.0539 31.6641 28.2697C31.3473 28.1333 31.3473 28.1333 31.008 28.1603C30.7507 28.3059 30.7507 28.3059 30.5706 28.5977C30.5058 28.9547 30.5043 29.3087 30.5022 29.6708C30.4924 30.3385 30.4591 30.9154 30.2425 31.5503C29.819 31.6915 29.3708 31.7275 28.9303 31.6597C28.6644 31.4551 28.5321 31.3008 28.3835 31.0035C28.372 30.8264 28.3665 30.6488 28.3643 30.4713C28.3604 30.3125 28.3604 30.3125 28.3564 30.1505C28.3517 29.9272 28.3483 29.704 28.3461 29.4807C28.3379 28.8538 28.3379 28.8538 28.0717 28.3034C27.8349 28.1322 27.8349 28.1322 27.5018 28.1535C27.1746 28.2424 27.1746 28.2424 26.9991 28.4786C26.7505 29.0518 26.809 29.6582 26.8141 30.2752C26.8055 30.7823 26.8003 31.035 26.4929 31.4538C26.0884 31.7346 26.0884 31.7346 25.759 31.728C25.6541 31.7301 25.6541 31.7301 25.5471 31.7323C25.179 31.6138 25.0158 31.4114 24.7748 31.1129C24.7231 30.7859 24.7045 30.5221 24.7114 30.1962C24.711 30.0598 24.711 30.0598 24.7106 29.9206C24.7103 29.7238 24.7113 29.527 24.7134 29.3301C24.7167 29.0184 24.7166 28.7069 24.7156 28.3952C24.7138 27.6213 24.7179 26.8475 24.7218 26.0736C24.7249 25.4193 24.7257 24.765 24.7236 24.1106C24.7235 23.8038 24.7267 23.497 24.73 23.1902C24.7298 23.0018 24.7294 22.8135 24.7289 22.6251C24.7307 22.54 24.7325 22.4549 24.7343 22.3672C24.7294 21.928 24.6813 21.7289 24.4086 21.3777C24.0396 21.1027 23.9119 21.1032 23.501 21.3011Z" fill="#626262"/>
<path d="M8.18638 4.41504C8.26844 4.41472 8.3505 4.41439 8.43505 4.41406C8.71082 4.41311 8.98659 4.41294 9.26236 4.41278C9.45976 4.41227 9.65716 4.41172 9.85455 4.41113C10.3914 4.4097 10.9282 4.40899 11.465 4.40851C11.8003 4.40819 12.1355 4.40774 12.4708 4.40725C13.5193 4.40575 14.5677 4.4047 15.6162 4.40428C16.8273 4.40378 18.0384 4.40186 19.2496 4.3987C20.1852 4.39634 21.1209 4.39523 22.0566 4.39508C22.6157 4.39497 23.1747 4.39432 23.7338 4.39237C24.2596 4.39057 24.7854 4.39033 25.3112 4.39129C25.5042 4.39138 25.6973 4.3909 25.8903 4.38982C26.1537 4.38843 26.4171 4.38907 26.6805 4.39021C26.7952 4.38889 26.7952 4.38889 26.9123 4.38754C27.3845 4.39234 27.68 4.4686 28.0547 4.75846C28.284 5.10244 28.3094 5.31212 28.3345 5.71745C28.2391 6.09833 28.023 6.36978 27.7267 6.61749C27.4162 6.68356 27.1979 6.70577 26.8883 6.69933C26.8047 6.7002 26.7211 6.70107 26.635 6.70197C26.3553 6.70407 26.0758 6.70149 25.7961 6.69892C25.5954 6.69945 25.3948 6.70026 25.1941 6.70134C24.6493 6.70339 24.1047 6.70133 23.5599 6.69842C22.99 6.69595 22.42 6.69685 21.85 6.69727C20.8929 6.69747 19.9357 6.69504 18.9786 6.69102C17.8718 6.68639 16.7651 6.68562 15.6583 6.68698C14.5938 6.68823 13.5294 6.68699 12.4649 6.68454C12.0118 6.68352 11.5587 6.68333 11.1056 6.68379C10.5721 6.6842 10.0386 6.68243 9.50505 6.67897C9.30919 6.67804 9.11333 6.67785 8.91747 6.67846C8.65018 6.67917 8.38305 6.67718 8.11578 6.67451C7.99938 6.67575 7.99938 6.67575 7.88062 6.67701C7.36041 6.66779 7.09645 6.54751 6.7306 6.18007C6.55541 5.82968 6.56735 5.46671 6.62125 5.08653C7.03298 4.41923 7.45716 4.41414 8.18638 4.41504Z" fill="#626262"/>
<path d="M20.6186 14.0536C20.9064 14.3029 21.0822 14.6025 21.2748 14.9284C21.3455 15.0417 21.4163 15.1551 21.4892 15.2718C22.1045 16.3175 22.1045 16.3175 22.0608 16.8489C21.8989 17.3175 21.7166 17.5507 21.2748 17.7716C20.7992 17.8265 20.5811 17.8225 20.1851 17.5418C19.8411 17.2377 19.6026 16.8866 19.3816 16.4867C19.3441 16.4193 19.3067 16.3519 19.2681 16.2825C18.9997 15.778 18.7538 15.2893 18.869 14.7097C19.2445 13.9977 19.8638 13.7813 20.6186 14.0536Z" fill="#626262"/>
<path d="M28.4922 14.0536C28.7803 14.2841 28.9049 14.4455 28.9637 14.8135C28.9881 15.5201 28.7889 15.9643 28.417 16.5551C28.3457 16.6773 28.3457 16.6773 28.2729 16.802C28.0048 17.2436 27.7852 17.571 27.2893 17.7716C26.7949 17.825 26.4126 17.7488 26.0249 17.4367C25.8255 17.0292 25.8044 16.6828 25.8677 16.2407C25.9891 15.9182 26.1541 15.6325 26.3325 15.3385C26.3757 15.2626 26.419 15.1868 26.4636 15.1087C26.9653 14.2501 27.4307 13.7503 28.4922 14.0536Z" fill="#626262"/>
<path d="M31.2261 16.8968C31.5541 17.054 31.5541 17.054 31.7728 17.3342C31.8871 17.6724 31.9472 17.9659 31.8822 18.3184C31.5033 18.8784 31.0667 19.1837 30.4811 19.5077C30.3706 19.5736 30.3706 19.5736 30.2579 19.6409C29.7169 19.9453 29.331 20.0274 28.7109 19.9587C28.4166 19.7208 28.2237 19.5311 28.0548 19.1933C28.0086 18.6742 28.0689 18.4053 28.3829 17.9904C28.6635 17.7689 28.963 17.5895 29.2714 17.4094C29.3898 17.3349 29.3898 17.3349 29.5106 17.2588C30.0818 16.9209 30.5629 16.793 31.2261 16.8968Z" fill="#626262"/>
<path d="M17.2926 16.8584C17.7409 16.9235 18.0844 17.1272 18.466 17.3616C18.5414 17.4048 18.6167 17.4481 18.6944 17.4927C19.6462 18.0526 19.6462 18.0526 19.8398 18.5781C19.8638 19.0831 19.7384 19.4055 19.4024 19.781C18.9982 20.0095 18.6629 20.0296 18.2132 19.9587C17.8686 19.8207 17.5632 19.6364 17.2495 19.4393C17.1675 19.3908 17.0855 19.3423 17.0011 19.2923C16.2404 18.8301 16.2404 18.8301 16.0261 18.4278C15.9618 17.9295 15.9494 17.5915 16.2379 17.1702C16.6379 16.8437 16.7982 16.8439 17.2926 16.8584Z" fill="#626262"/>
<path d="M16.9558 20.7789C17.1408 20.7764 17.1408 20.7764 17.3296 20.7738C18.2289 20.7781 18.2289 20.7781 18.6747 21.0421C19.0193 21.4471 19.0147 21.7272 18.9789 22.2552C18.7928 22.6739 18.6344 22.8523 18.2134 23.0207C17.8 23.072 17.3857 23.0662 16.9695 23.0685C16.8007 23.0739 16.8007 23.0739 16.6286 23.0794C15.7014 23.086 15.7014 23.086 15.2975 22.758C14.9354 22.3553 14.9354 22.3553 14.9268 22.0339C14.9332 21.9491 14.9397 21.8642 14.9464 21.7768C14.9512 21.6925 14.956 21.6082 14.9609 21.5213C15.251 20.6267 16.1841 20.7683 16.9558 20.7789Z" fill="#626262"/>
<path d="M30.8986 20.7653C31.0914 20.7621 31.0914 20.7621 31.2882 20.7589C32.3347 20.7648 32.3347 20.7648 32.6756 21.095C32.8823 21.4033 32.9763 21.5561 32.9763 21.9272C32.8537 22.3224 32.7521 22.6018 32.4373 22.8772C31.9294 23.0943 31.445 23.0681 30.8986 23.0617C30.7371 23.0636 30.7371 23.0636 30.5723 23.0656C29.5784 23.0615 29.5784 23.0615 29.1489 22.6926C28.9286 22.3622 28.8934 22.2643 28.8824 21.8861C28.878 21.8041 28.8736 21.7221 28.8691 21.6375C29.1093 20.6266 30.0616 20.7515 30.8986 20.7653Z" fill="#626262"/>
<path d="M23.9407 12.9122C24.0638 12.9056 24.0638 12.9056 24.1893 12.899C24.6155 13.0002 24.7444 13.1435 24.9933 13.5068C25.0748 13.9819 25.0695 14.4475 25.0616 14.9284C25.0648 15.1213 25.0648 15.1213 25.068 15.318C25.0621 16.3645 25.0621 16.3645 24.7318 16.7054C24.4236 16.9122 24.2708 17.0062 23.8997 17.0062C23.5044 16.8835 23.225 16.7819 22.9497 16.4671C22.7326 15.9592 22.7587 15.4748 22.7652 14.9284C22.7639 14.8207 22.7626 14.713 22.7613 14.6021C22.7653 13.6083 22.7653 13.6083 23.1342 13.1787C23.4647 12.9584 23.5626 12.9232 23.9407 12.9122Z" fill="#626262"/>
<path d="M43.4742 4.4304C43.8143 4.57492 44.0703 4.74784 44.2397 5.08652C44.3032 5.8618 44.3032 5.8618 44.0346 6.28259C43.5954 6.70892 43.1817 6.65502 42.5917 6.64653C42.2713 6.61749 42.2713 6.61749 41.9227 6.46029C41.6368 6.05602 41.5845 5.68639 41.6152 5.19588C41.7475 4.86843 41.8406 4.71184 42.141 4.52822C42.5747 4.35117 43.0147 4.36962 43.4742 4.4304Z" fill="#626262"/>
<path d="M39.318 4.4304C39.7211 4.60676 39.8378 4.71804 40.0835 5.08653C40.1718 5.58304 40.1431 5.96259 39.899 6.40562C39.3259 6.74078 38.7616 6.71944 38.1151 6.61749C37.6819 6.3426 37.5986 6.17658 37.459 5.68798C37.459 5.25478 37.518 5.09246 37.787 4.75847C38.2628 4.33211 38.7057 4.35597 39.318 4.4304Z" fill="#626262"/>
<path d="M35.4859 4.52563C35.8082 4.76417 35.9273 4.97338 36.0447 5.35305C36.0369 5.79756 35.9511 6.0282 35.7098 6.39876C35.1747 6.75546 34.5848 6.69095 33.9601 6.61747C33.5979 6.40559 33.5979 6.40559 33.4133 6.07069C33.3137 5.56061 33.3412 5.20587 33.6115 4.75844C34.0902 4.32084 34.8952 4.26216 35.4859 4.52563Z" fill="#626262"/>
</svg>
