<svg width="369" height="253" viewBox="0 0 369 253" fill="none" xmlns="http://www.w3.org/2000/svg">
<mask id="mask0_6381_10297" style="mask-type:luminance" maskUnits="userSpaceOnUse" x="0" y="0" width="369" height="253">
<path d="M329.701 240.752C319.122 244.137 306.238 245.055 296.005 244.349C296.005 244.349 107.861 262.46 39.8529 243.892C-10.4819 230.148 -4.40505 181.224 10.9981 149.908C26.5776 118.236 -14.3182 57.0148 51.4212 21.5133C89.2334 1.09489 123.149 33.7711 188.516 9.64784C247.533 -12.1314 323.659 7.34967 342.277 53.0256C355.082 84.4477 338.938 118.32 355.082 134.738C381.265 161.365 369.226 228.103 329.701 240.752Z" fill="white"/>
</mask>
<g mask="url(#mask0_6381_10297)">
<path d="M329.701 240.752C319.122 244.137 306.238 245.055 296.005 244.349C296.005 244.349 107.861 262.46 39.8529 243.892C-10.4819 230.148 -4.40505 181.224 10.9981 149.908C26.5776 118.236 -14.3182 57.0148 51.4212 21.5133C89.2334 1.09489 123.149 33.7711 188.516 9.64784C247.533 -12.1314 323.659 7.34967 342.277 53.0256C355.082 84.4477 338.938 118.32 355.082 134.738C381.265 161.365 369.226 228.103 329.701 240.752Z" fill="#DAE6FF"/>
<path d="M324.607 260.03C324.645 260.024 324.682 260.015 324.717 260C325.011 259.891 325.159 259.563 325.049 259.27C296.259 182.72 271.142 128.999 254.323 108.002C253.95 107.535 253.68 107.199 253.575 107.026C253.411 106.759 253.061 106.676 252.794 106.839C252.528 107.004 252.443 107.352 252.608 107.62C252.751 107.852 253.009 108.175 253.437 108.711C270.183 129.616 295.237 183.228 323.987 259.668C324.083 259.925 324.345 260.071 324.606 260.028L324.607 260.03Z" fill="#BBCFF8"/>
<path d="M243.36 104.703C245.343 107.053 254.789 110.974 255.46 110.408C256.132 109.843 253.859 99.8771 251.876 97.5272C249.893 95.1772 246.38 94.8781 244.029 96.8593C241.677 98.8406 241.378 102.353 243.36 104.702V104.703Z" fill="#BBCFF8"/>
<path d="M261.516 111.031C260.817 114.096 263.426 124.223 264.302 124.423C265.178 124.623 271.926 116.631 272.625 113.565C273.326 110.5 271.406 107.446 268.338 106.747C265.271 106.048 262.216 107.966 261.516 111.031Z" fill="#BBCFF8"/>
<path d="M251.829 129.703C254.976 129.694 264.261 124.873 264.258 123.974C264.255 123.077 254.943 118.306 251.796 118.314C248.649 118.323 246.104 120.879 246.113 124.024C246.122 127.169 248.68 129.71 251.827 129.703H251.829Z" fill="#BBCFF8"/>
<path d="M291.862 161.006C290.139 165.996 292.662 183.365 294.088 183.858C295.513 184.35 308.221 172.233 309.944 167.243C311.668 162.253 309.017 156.812 304.023 155.09C299.031 153.368 293.585 156.017 291.862 161.006Z" fill="#BBCFF8"/>
<path d="M272.32 190.414C277.573 190.968 293.941 184.6 294.1 183.102C294.258 181.603 279.583 171.959 274.33 171.405C269.077 170.851 264.369 174.657 263.813 179.906C263.259 185.156 267.067 189.86 272.32 190.415V190.414Z" fill="#BBCFF8"/>
<path d="M306.882 179.622C303.48 185.115 301.81 206.53 303.379 207.501C304.948 208.471 323.383 197.427 326.785 191.935C330.187 186.443 328.489 179.234 322.993 175.835C317.497 172.435 310.284 174.132 306.882 179.624V179.622Z" fill="#BBCFF8"/>
<path d="M278.713 218.284C285.176 218.298 304.297 208.488 304.302 206.643C304.306 204.799 285.227 194.906 278.763 194.893C272.3 194.879 267.048 200.103 267.033 206.564C267.02 213.023 272.249 218.271 278.713 218.284Z" fill="#BBCFF8"/>
<path d="M317.089 204.529C313.687 210.021 312.017 231.436 313.586 232.407C315.155 233.377 333.59 222.334 336.992 216.841C340.394 211.349 338.696 204.141 333.2 200.741C327.704 197.341 320.491 199.038 317.089 204.53V204.529Z" fill="#BBCFF8"/>
<path d="M288.916 243.195C295.38 243.208 314.502 233.396 314.505 231.553C314.51 229.709 295.43 219.816 288.967 219.803C282.503 219.789 277.252 225.014 277.238 231.474C277.225 237.933 282.453 243.181 288.918 243.195H288.916Z" fill="#BBCFF8"/>
<path d="M337.843 235.291C332.603 239.075 322.897 258.24 323.978 259.734C325.058 261.228 346.314 258.034 351.554 254.251C356.793 250.468 357.971 243.156 354.185 237.921C350.399 232.685 343.082 231.508 337.844 235.291H337.843Z" fill="#BBCFF8"/>
<path d="M298.121 267.888C304.533 268.71 324.731 261.364 324.967 259.535C325.201 257.707 307.51 245.508 301.098 244.686C294.686 243.864 288.823 248.394 288.001 254.8C287.178 261.207 291.71 267.067 298.121 267.888Z" fill="#BBCFF8"/>
<path d="M270.885 126.597C270.174 129.713 272.826 140.001 273.716 140.204C274.605 140.407 281.462 132.287 282.174 129.171C282.885 126.055 280.935 122.955 277.817 122.244C274.699 121.533 271.597 123.482 270.885 126.597Z" fill="#BBCFF8"/>
<path d="M261.474 145.733C264.672 145.724 274.105 140.824 274.103 139.912C274.1 139 264.639 134.153 261.443 134.162C258.245 134.171 255.661 136.768 255.67 139.964C255.679 143.159 258.278 145.742 261.476 145.733H261.474Z" fill="#BBCFF8"/>
<path d="M281.348 140.932C279.978 145.26 282.534 160.136 283.769 160.527C285.005 160.918 295.661 150.22 297.031 145.891C298.402 141.563 296.002 136.944 291.67 135.575C287.341 134.205 282.719 136.604 281.348 140.931V140.932Z" fill="#BBCFF8"/>
<path d="M265.931 168.276C270.473 168.263 283.877 161.303 283.873 160.007C283.87 158.712 270.427 151.826 265.885 151.838C261.342 151.851 257.67 155.54 257.684 160.08C257.697 164.62 261.39 168.289 265.931 168.276Z" fill="#BBCFF8"/>
<path d="M68.8234 263.221C68.8056 263.221 68.7878 263.218 68.7686 263.212C68.6219 263.174 68.533 263.024 68.5715 262.878C78.5009 224.46 87.8406 197.248 94.8673 186.25C95.0229 186.006 95.1355 185.83 95.1784 185.741C95.2436 185.603 95.4081 185.546 95.5444 185.611C95.6823 185.676 95.74 185.84 95.6748 185.978C95.6185 186.098 95.5104 186.267 95.3311 186.547C88.3341 197.497 79.0196 224.654 69.1035 263.015C69.0709 263.144 68.9508 263.228 68.8234 263.221Z" fill="#8DACE2"/>
<path d="M99.9848 184.093C99.1491 185.33 94.7956 187.709 94.4429 187.471C94.0903 187.232 94.6711 182.307 95.5054 181.071C96.3396 179.834 98.02 179.509 99.2573 180.344C100.495 181.179 100.821 182.857 99.9848 184.093Z" fill="#8DACE2"/>
<path d="M91.5482 188.082C92.0446 189.525 91.3081 194.546 90.8962 194.687C90.4843 194.829 86.8154 191.321 86.319 189.879C85.8226 188.436 86.5901 186.864 88.0349 186.368C89.4781 185.872 91.0518 186.639 91.5482 188.082Z" fill="#8DACE2"/>
<path d="M97.1841 196.592C95.6653 196.751 90.9369 194.904 90.891 194.47C90.8451 194.037 95.0919 191.256 96.6092 191.097C98.128 190.939 99.4868 192.04 99.6454 193.558C99.8039 195.076 98.7015 196.434 97.1827 196.592H97.1841Z" fill="#8DACE2"/>
<path d="M79.4956 213.762C80.5847 216.081 80.2661 224.591 79.6038 224.902C78.9414 225.213 72.1845 220.023 71.0954 217.705C70.0063 215.386 71.0035 212.625 73.3225 211.536C75.6415 210.448 78.4065 211.445 79.4956 213.762Z" fill="#8DACE2"/>
<path d="M90.4406 226.937C87.9349 227.476 79.7095 225.249 79.5554 224.534C79.4013 223.819 85.9834 218.408 88.4876 217.87C90.9933 217.331 93.462 218.925 93.9998 221.429C94.5392 223.933 92.9448 226.398 90.4391 226.937H90.4406Z" fill="#8DACE2"/>
<path d="M73.2076 223.514C75.1324 225.988 77.0454 236.232 76.3401 236.782C75.6333 237.331 66.1691 232.955 64.2428 230.481C62.3179 228.007 62.764 224.442 65.24 222.517C67.7161 220.594 71.2827 221.04 73.2091 223.514H73.2076Z" fill="#8DACE2"/>
<path d="M88.7987 240.715C85.6811 241.055 75.9487 237.309 75.8524 236.42C75.7546 235.532 84.4482 229.773 87.5659 229.433C90.6836 229.092 93.4871 231.341 93.8279 234.457C94.1687 237.572 91.9179 240.374 88.8002 240.715H88.7987Z" fill="#8DACE2"/>
<path d="M69.5787 236.059C71.5035 238.533 73.4165 248.777 72.7112 249.327C72.0044 249.876 62.5387 245.5 60.6139 243.026C58.689 240.552 59.135 236.987 61.6111 235.062C64.0872 233.139 67.6538 233.585 69.5802 236.057L69.5787 236.059Z" fill="#8DACE2"/>
<path d="M85.162 253.258C82.0443 253.598 72.312 249.852 72.2157 248.963C72.1179 248.075 80.8115 242.316 83.9292 241.976C87.0469 241.635 89.8504 243.884 90.1912 247C90.532 250.115 88.2812 252.917 85.1635 253.258H85.162Z" fill="#8DACE2"/>
<path d="M61.1547 251.972C63.8782 253.527 69.5519 262.271 69.1074 263.049C68.6629 263.826 58.2444 263.382 55.5209 261.827C52.7974 260.272 51.852 256.806 53.4064 254.084C54.9623 251.362 58.4311 250.416 61.1547 251.971V251.972Z" fill="#8DACE2"/>
<path d="M87.8306 196.078C88.3344 197.544 87.5876 202.645 87.1683 202.789C86.7489 202.933 83.0222 199.37 82.5184 197.904C82.0146 196.438 82.794 194.842 84.261 194.337C85.728 193.833 87.3253 194.612 87.8306 196.078Z" fill="#8DACE2"/>
<path d="M93.363 204.822C91.8205 204.984 87.015 203.106 86.9691 202.666C86.9232 202.226 91.2367 199.4 92.7792 199.238C94.3217 199.077 95.7028 200.196 95.8643 201.739C96.0258 203.281 94.9056 204.661 93.3615 204.822H93.363Z" fill="#8DACE2"/>
<path d="M83.5277 203.532C84.4123 205.549 83.9485 212.858 83.3735 213.111C82.7971 213.363 77.1041 208.752 76.2195 206.735C75.3349 204.718 76.2536 202.365 78.2718 201.481C80.29 200.597 82.643 201.515 83.5291 203.532H83.5277Z" fill="#8DACE2"/>
<path d="M92.3846 215.929C90.1931 216.157 83.3665 213.492 83.3013 212.867C83.2361 212.242 89.3648 208.224 91.5563 207.996C93.7479 207.768 95.7113 209.359 95.9394 211.549C96.1676 213.739 94.5762 215.701 92.3846 215.929Z" fill="#8DACE2"/>
<path d="M28.5297 244.023C28.503 244.024 28.4763 244.024 28.4482 244.021C28.2274 243.994 28.0688 243.793 28.097 243.571C35.1755 185.742 43.5461 144.335 51.6648 126.978C51.8456 126.593 51.976 126.314 52.0189 126.177C52.0886 125.963 52.3168 125.848 52.5272 125.916C52.7391 125.984 52.8562 126.212 52.788 126.424C52.7287 126.609 52.6028 126.876 52.3968 127.318C44.3137 144.6 35.9682 185.92 28.8986 243.667C28.8749 243.861 28.7179 244.006 28.5297 244.021V244.023Z" fill="#BBCFF8"/>
<path d="M58.7069 122.858C57.729 124.817 51.8478 129.117 51.2876 128.837C50.7275 128.559 50.6282 121.276 51.6062 119.317C52.5842 117.358 54.9669 116.561 56.9273 117.539C58.8877 118.516 59.6849 120.897 58.7069 122.858Z" fill="#BBCFF8"/>
<path d="M47.1977 130.282C48.1979 132.287 48.0897 139.737 47.5177 140.021C46.9458 140.307 40.9312 135.905 39.931 133.898C38.9308 131.893 39.7472 129.457 41.7551 128.459C43.7614 127.461 46.1989 128.276 47.1977 130.282Z" fill="#BBCFF8"/>
<path d="M57.0376 141.588C54.8579 142.109 47.6194 140.328 47.4697 139.706C47.3201 139.084 52.9671 134.219 55.1468 133.698C57.3266 133.177 59.5181 134.52 60.0397 136.698C60.5613 138.876 59.2173 141.067 57.0376 141.588Z" fill="#BBCFF8"/>
<path d="M34.5743 169.975C36.6058 173.141 37.7749 185.591 36.871 186.17C35.9671 186.749 25.1338 180.491 23.1023 177.325C21.0707 174.159 21.9924 169.948 25.1605 167.918C28.3285 165.888 32.5427 166.809 34.5743 169.975Z" fill="#BBCFF8"/>
<path d="M53.0408 187.057C49.4964 188.322 37.0953 186.658 36.7338 185.646C36.3722 184.635 44.9147 175.497 48.4577 174.232C52.0021 172.968 55.9007 174.813 57.1661 178.355C58.4316 181.897 56.5853 185.793 53.0408 187.057Z" fill="#BBCFF8"/>
<path d="M27.2967 185.379C30.5744 188.612 35.3265 203.159 34.4033 204.094C33.4802 205.028 18.8609 200.473 15.5832 197.24C12.3055 194.008 12.2699 188.732 15.5047 185.456C18.7394 182.181 24.019 182.145 27.2967 185.378V185.379Z" fill="#BBCFF8"/>
<path d="M53.3015 207.425C48.8279 208.518 33.9419 204.931 33.6293 203.656C33.3166 202.38 44.8657 192.331 49.3392 191.238C53.8127 190.146 58.3262 192.882 59.4198 197.353C60.5133 201.823 57.775 206.332 53.3015 207.426V207.425Z" fill="#BBCFF8"/>
<path d="M24.4198 204.338C27.6975 207.571 32.4495 222.118 31.5264 223.053C30.6032 223.987 15.9839 219.432 12.7062 216.199C9.42852 212.967 9.39296 207.692 12.6277 204.415C15.8624 201.14 21.142 201.104 24.4183 204.337L24.4198 204.338Z" fill="#BBCFF8"/>
<path d="M50.4186 226.384C45.9451 227.477 31.0591 223.89 30.7465 222.615C30.4338 221.339 41.9828 211.29 46.4564 210.197C50.9299 209.105 55.4419 211.841 56.5369 216.312C57.6305 220.782 54.8922 225.291 50.4186 226.385V226.384Z" fill="#BBCFF8"/>
<path d="M15.2142 229.116C19.4773 230.857 29.4157 242.499 28.9178 243.715C28.4214 244.931 13.1679 246.284 8.9048 244.543C4.6417 242.801 2.59832 237.937 4.3409 233.677C6.08348 229.416 10.9511 227.374 15.2142 229.116Z" fill="#BBCFF8"/>
<path d="M48.1925 245.024C43.8909 246.668 28.6729 244.969 28.2032 243.742C27.7335 242.514 37.9341 231.102 42.2357 229.458C46.5373 227.815 51.3576 229.966 53.0024 234.265C54.6471 238.563 52.4941 243.38 48.1925 245.024Z" fill="#BBCFF8"/>
<path d="M43.3269 142.632C44.342 144.669 44.2338 152.238 43.6514 152.528C43.0691 152.818 36.9582 148.345 35.9432 146.307C34.9282 144.269 35.7565 141.795 37.7954 140.781C39.8344 139.766 42.3104 140.594 43.3255 142.632H43.3269Z" fill="#BBCFF8"/>
<path d="M53.0535 154.304C50.8383 154.834 43.4842 153.023 43.333 152.392C43.1819 151.76 48.9179 146.817 51.1331 146.288C53.3484 145.758 55.574 147.123 56.1045 149.337C56.635 151.551 55.2688 153.775 53.0535 154.305V154.304Z" fill="#BBCFF8"/>
<path d="M38.4828 154.314C40.1587 157.08 40.8862 167.81 40.0964 168.288C39.3066 168.766 30.1329 163.145 28.457 160.378C26.7811 157.612 27.6672 154.011 30.4367 152.337C33.2047 150.663 36.8069 151.548 38.4828 154.316V154.314Z" fill="#BBCFF8"/>
<path d="M53.7539 170.658C50.6066 171.41 40.1585 168.838 39.9436 167.94C39.7288 167.043 47.8786 160.021 51.0259 159.268C54.1732 158.515 57.3353 160.454 58.0881 163.599C58.8408 166.744 56.9012 169.904 53.7539 170.656V170.658Z" fill="#BBCFF8"/>
<path d="M140.241 203.692C140.241 203.692 145.395 193.636 144.813 189.81C144.23 185.984 141.095 175.106 141.914 171.05C142.169 169.787 144.833 160.118 147.244 158.798C148.876 157.907 152.47 161.566 151.208 166.51C149.015 175.103 151.629 180.166 153.047 183.816C155.467 190.043 156.399 193.752 156.476 190.73C156.476 190.73 155.345 181.417 155.788 177.358C155.908 176.263 158.331 167.847 160.656 167.074C161.914 166.655 165.861 168.751 164.307 176.485C163.286 181.567 166.135 184.901 168.228 188.415C170.037 191.455 178.864 199.166 178.864 199.166L166.924 208.252L140.238 203.694L140.241 203.692Z" fill="#E96F5F"/>
<path d="M132.566 187.279C132.566 187.279 126.949 171.367 126.525 164.831C126.356 162.21 126.611 153.563 128.755 152.062C132.295 149.585 136.355 155.792 135.979 163.724C135.605 171.596 143.29 177.768 146.991 182.964C156.192 195.881 161.737 203.657 161.737 203.657L132.565 187.279H132.566Z" fill="#F78978"/>
<path d="M150.398 130.426C149.208 129.239 151.588 129.026 151.588 126.536V124.329C151.588 117.207 153.2 111.298 156.424 106.606C159.649 101.913 164.882 97.3036 172.125 92.7798C176.199 90.4076 179.17 88.4826 181.038 87.0122C182.907 85.5418 184.235 84.0166 185.027 82.4307C185.819 80.8478 186.214 78.8117 186.214 76.324C186.214 72.1393 184.657 68.9172 181.547 66.6545C178.435 64.3934 173.936 63.2621 168.053 63.2621C158.773 63.2621 150.456 65.695 143.102 70.5564C141.743 71.3486 140.837 71.7425 140.386 71.7425C139.366 71.7425 135.722 70.1255 135.044 68.8801L131.218 58.5118C130.764 57.721 130.539 57.0443 130.539 56.4757C130.539 55.4584 131.16 54.5537 132.408 53.7614C142.93 46.6389 156.001 43.0762 171.619 43.0762C184.294 43.0762 194.533 45.9889 202.342 51.8127C210.151 57.6366 214.055 65.7513 214.055 76.1537C214.055 82.9371 212.47 88.5359 209.302 92.9472C206.132 97.3584 201.039 101.543 194.023 105.501C188.477 108.667 184.686 111.608 182.651 114.321C180.613 117.035 179.595 120.484 179.595 124.668V126.533C179.595 129.022 179.029 130.861 177.897 132.047C176.765 133.236 174.784 133.828 171.956 133.828H159.225C156.509 133.828 151.586 131.612 150.399 130.423L150.398 130.426ZM150.398 157.337C148.645 155.924 150.398 155.544 150.398 153.169V149.608C150.398 147.12 151.275 145.168 153.028 143.754C154.781 142.341 157.302 141.635 160.584 141.635H170.43C173.822 141.635 176.397 142.341 178.15 143.754C179.903 145.167 180.782 147.12 180.782 149.608V153.169C180.782 155.656 179.903 157.58 178.15 158.936C176.397 160.294 173.822 160.972 170.43 160.972H160.584C157.302 160.972 152.151 158.75 150.398 157.337Z" fill="#1E66BC"/>
<path d="M270.407 210.566C266.385 209.459 262.617 208.4 259.333 207.446C257.503 206.91 255.822 206.408 254.335 205.951C251.935 205.207 250.037 204.577 248.816 204.097C245.694 202.868 240.782 201.665 236.76 199.281L236.757 199.278C234.033 197.667 231.722 195.513 230.648 192.442C227.983 184.833 213.743 171.361 200.868 162.567C193.847 157.768 186.674 149.92 184.078 146.748C182.036 144.251 174.932 133.517 172.216 132.657C170.617 132.153 166.759 136.562 166.279 139.085C165.247 144.49 169.013 151.316 176.545 161.69C183.721 171.575 184.603 177.296 184.293 182.651C184.088 186.129 183.373 189.615 179.147 192.739C178.647 193.105 177.157 194.383 174.996 195.652C170.48 198.313 163.043 200.944 155.763 195.114C155.677 195.045 155.591 194.98 155.503 194.912V194.909C155.503 194.909 155.502 194.909 155.499 194.906C152.347 192.476 148.345 190.955 144.726 189.282C140.939 187.53 137.569 185.609 136.047 182.301C134.195 178.278 130.923 174.69 127.54 170.643L127.538 170.64C125.087 167.716 122.576 164.55 120.506 160.803C115.454 151.673 109.623 152.25 107.606 156.06C106.514 158.129 111.596 172.57 112.597 174.601C113.929 177.316 124.798 195.418 127.137 198.313C132.893 205.443 157.68 226.762 162.402 230.409C170.401 236.589 192.363 238.014 210.531 241.05C211.747 241.252 212.959 241.473 214.169 241.708H214.173C220.814 243.007 227.351 244.791 233.722 247.054C235.742 247.766 237.742 248.529 239.726 249.34C240.62 249.706 241.514 250.081 242.4 250.467C255.15 236.527 264.089 223.228 270.404 210.565L270.407 210.566Z" fill="#FFA089"/>
<path d="M238.051 252.933L214.062 241.658L236.737 199.27L260.124 205.761L238.051 252.933Z" fill="#89B4FD"/>
<path d="M350.359 227.847L255.553 203.518L255.122 204.373L254.334 205.95L233.725 247.055L232.165 250.168L230.742 253.001L301.417 292.872C317.511 277.965 332.68 244.197 350.361 227.847H350.359Z" fill="#100259"/>
<path d="M242.893 206.986C243.638 207.688 244.812 207.654 245.516 206.909C246.218 206.164 246.184 204.991 245.438 204.288C244.693 203.586 243.52 203.62 242.816 204.365C242.113 205.11 242.147 206.283 242.893 206.986Z" fill="#100259"/>
<path d="M149.544 129.743C148.354 128.557 147.762 126.72 147.762 124.229V122.023C147.762 114.9 149.374 108.992 152.598 104.299C155.823 99.6066 161.056 94.997 168.299 90.4732C172.373 88.101 175.344 86.176 177.212 84.7056C179.081 83.2352 180.408 81.71 181.201 80.1241C181.992 78.5411 182.388 76.5051 182.388 74.0174C182.388 69.8327 180.831 66.6105 177.72 64.3479C174.607 62.0868 170.11 60.9554 164.227 60.9554C154.947 60.9554 146.63 63.3884 139.275 68.2497C137.917 69.042 137.011 69.4358 136.559 69.4358C135.54 69.4358 134.691 68.8154 134.014 67.5686L127.392 56.2036C126.938 55.4129 126.713 54.7362 126.713 54.1676C126.713 53.1503 127.334 52.2455 128.581 51.4533C139.104 44.3308 152.174 40.7695 167.792 40.7695C180.468 40.7695 190.707 43.6822 198.516 49.5061C206.325 55.33 210.229 63.4446 210.229 73.8471C210.229 80.6305 208.644 86.2293 205.476 90.6405C202.306 95.0518 197.213 99.2364 190.197 103.195C184.651 106.36 180.86 109.301 178.824 112.016C176.787 114.73 175.769 118.178 175.769 122.363V124.227C175.769 126.717 175.203 128.556 174.071 129.742C172.939 130.931 170.959 131.523 168.13 131.523H155.399C152.683 131.523 150.731 130.931 149.544 129.742V129.743ZM149.203 156.545C147.45 155.133 146.573 153.237 146.573 150.862V147.301C146.573 144.813 147.45 142.862 149.203 141.447C150.956 140.035 153.477 139.328 156.759 139.328H166.606C169.997 139.328 172.573 140.035 174.326 141.447C176.079 142.86 176.957 144.813 176.957 147.301V150.862C176.957 153.35 176.079 155.273 174.326 156.63C172.573 157.988 169.997 158.666 166.606 158.666H156.759C153.477 158.666 150.956 157.959 149.203 156.547V156.545Z" fill="#2A6FD3"/>
<path d="M229.129 189.331C224.442 181.535 212.131 170.26 200.868 162.563C193.848 157.767 186.673 149.92 184.077 146.745C182.039 144.249 174.934 133.513 172.216 132.653C170.616 132.151 166.758 136.56 166.279 139.082C165.248 144.487 169.011 151.315 176.543 161.688C183.721 171.572 184.604 177.294 184.293 182.648C184.286 182.771 184.277 182.891 184.269 183.015L229.129 189.332V189.331Z" fill="#FFA089"/>
<path d="M245.062 51.0389L220.869 59.2498C219.661 59.66 218.348 59.0129 217.938 57.8061C217.527 56.5993 218.175 55.2873 219.383 54.8771L243.576 46.6662C244.783 46.256 246.096 46.9031 246.507 48.11C246.917 49.3168 246.27 50.6288 245.062 51.0389Z" fill="white"/>
<path d="M215.955 29.9542L208.067 44.2573C207.564 45.1691 207.896 46.3156 208.808 46.8181L209.551 47.2269C210.463 47.7294 211.61 47.3976 212.113 46.4858L220.001 32.1827C220.504 31.2709 220.172 30.1244 219.26 29.6219L218.517 29.2131C217.605 28.7106 216.458 29.0424 215.955 29.9542Z" fill="white"/>
<path d="M192.26 26.2585L191.488 37.2113C191.428 38.0654 192.072 38.8066 192.927 38.8668L194.282 38.9622C195.137 39.0224 195.878 38.3788 195.939 37.5246L196.711 26.5718C196.771 25.7177 196.127 24.9765 195.272 24.9163L193.917 24.8209C193.062 24.7607 192.32 25.4044 192.26 26.2585Z" fill="white"/>
</g>
</svg>
