<svg width="91" height="92" viewBox="0 0 91 92" fill="none" xmlns="http://www.w3.org/2000/svg">
<path d="M40.5305 0.235023C42.3517 0.373162 44.1708 0.46198 45.9962 0.520429C46.1267 0.524621 46.2572 0.528812 46.3917 0.533131C46.9167 0.549821 47.4418 0.56619 47.9669 0.582143C51.9423 0.702932 55.915 0.863927 59.8833 1.13404C60.2925 1.16181 60.7018 1.18856 61.1111 1.21422C61.6679 1.24971 62.2242 1.2896 62.7805 1.33107C62.9431 1.34093 63.1056 1.35079 63.273 1.36095C63.9519 1.41659 64.3586 1.45501 64.9232 1.85328C65.1989 2.27461 65.2634 2.47645 65.2608 2.97443C65.2623 3.19197 65.2623 3.19197 65.2638 3.4139C65.26 3.65023 65.26 3.65023 65.2561 3.89134C65.2562 4.05843 65.2563 4.22552 65.2564 4.39767C65.2559 4.94973 65.2504 5.50163 65.2449 6.05366C65.2436 6.4365 65.2426 6.81934 65.2419 7.20218C65.2392 8.20967 65.2322 9.21709 65.2244 10.2245C65.2172 11.2526 65.214 12.2807 65.2104 13.3089C65.2028 15.326 65.1908 17.3431 65.1759 19.3603C64.244 19.3603 63.3121 19.3603 62.3519 19.3603C62.3519 14.4094 62.3519 9.4585 62.3519 4.35758C57.3185 4.02095 52.2948 3.74942 47.2525 3.60484C46.6475 3.58742 46.0425 3.56928 45.4375 3.5507C45.3171 3.54701 45.1968 3.54333 45.0728 3.53953C43.2798 3.48305 41.4949 3.3787 39.7058 3.24699C29.9023 2.54388 20.2412 2.72164 12.4256 9.46883C5.89764 15.2401 3.76848 21.9245 3.22415 30.4663C2.80588 37.7214 3.0848 45.0005 3.40021 52.2537C3.52124 55.0694 3.60039 57.8841 3.65232 60.7019C3.65609 60.9042 3.65986 61.1066 3.66375 61.3151C3.69301 62.8991 3.72027 64.4832 3.74689 66.0674C3.87643 73.7435 4.17913 81.4036 4.45921 89.0786C23.5638 89.0786 42.6684 89.0786 62.3519 89.0786C62.3519 85.5256 62.3519 81.9726 62.3519 78.312C63.2838 78.312 64.2158 78.312 65.1759 78.312C65.1919 79.9797 65.2048 81.6474 65.2125 83.3153C65.2162 84.0897 65.2212 84.8641 65.2292 85.6385C65.2369 86.3858 65.2411 87.133 65.2429 87.8804C65.2442 88.1655 65.2468 88.4507 65.2506 88.7358C65.2557 89.1352 65.2564 89.5343 65.2561 89.9337C65.2577 90.1611 65.2592 90.3884 65.2608 90.6226C65.1583 91.316 65.0153 91.4772 64.4699 91.9026C63.9847 91.9911 63.9847 91.9911 63.4147 91.9915C63.1974 91.9933 62.98 91.9952 62.756 91.9971C62.5144 91.9955 62.2728 91.994 62.0311 91.9923C61.7748 91.9931 61.5184 91.9942 61.262 91.9956C60.5566 91.9986 59.8512 91.9971 59.1458 91.9949C58.3854 91.9933 57.625 91.9958 56.8646 91.9978C55.3746 92.0009 53.8846 92.0002 52.3946 91.9982C51.184 91.9966 49.9733 91.9964 48.7627 91.9971C48.5906 91.9972 48.4184 91.9973 48.2411 91.9974C47.8914 91.9977 47.5418 91.9979 47.1921 91.9981C43.9114 92.0002 40.6307 91.9978 37.3499 91.994C34.5332 91.9909 31.7166 91.9914 28.8999 91.9947C25.6311 91.9985 22.3624 92 19.0936 91.9978C18.7452 91.9976 18.3968 91.9973 18.0484 91.9971C17.877 91.997 17.7056 91.9969 17.529 91.9968C16.3194 91.9962 15.1098 91.9972 13.9002 91.9989C12.4267 92.0008 10.9532 92.0003 9.47967 91.9966C8.72745 91.9947 7.97529 91.994 7.22308 91.9963C6.53499 91.9984 5.84699 91.9973 5.15891 91.9935C4.90949 91.9927 4.66007 91.9931 4.41065 91.9948C4.07256 91.997 3.73445 91.9944 3.39637 91.9915C3.11425 91.9913 3.11425 91.9913 2.82642 91.9911C2.20036 91.877 2.00003 91.7155 1.63517 91.1966C1.52738 90.6662 1.52738 90.6662 1.49949 90.0312C1.49041 89.855 1.49042 89.855 1.48116 89.6752C1.4617 89.2798 1.44717 88.8844 1.43269 88.4887C1.41987 88.2028 1.4068 87.9169 1.3935 87.631C1.35792 86.8433 1.32699 86.0556 1.29708 85.2677C1.27759 84.7636 1.25684 84.2595 1.23566 83.7554C0.957105 77.1085 0.797134 70.4584 0.671835 63.807C0.655552 62.9582 0.638941 62.1094 0.622051 61.2606C0.617866 61.0497 0.613682 60.8388 0.609371 60.6215C0.549046 57.6631 0.445882 54.7089 0.30739 51.7531C-1.21619 19.213 3.22406 17.0313 7.02613 9.97943C14.8845 1.13404 27.7406 -0.747019 40.5305 0.235023Z" fill="black"/>
<path d="M61.1273 21.9031C61.3163 21.9031 61.5053 21.9031 61.7001 21.9031C62.0991 21.904 62.498 21.9071 62.8969 21.9122C63.5078 21.9196 64.1184 21.9195 64.7294 21.9183C65.1172 21.9201 65.505 21.9224 65.8928 21.9252C66.0756 21.9252 66.2584 21.9252 66.4467 21.9253C66.6169 21.9281 66.7872 21.9309 66.9626 21.9338C67.112 21.9353 67.2614 21.9367 67.4153 21.9383C67.9179 22.0242 68.1601 22.1892 68.5286 22.5374C68.7086 23.0773 68.7255 23.4418 68.7224 24.0066C68.7218 24.1881 68.7212 24.3695 68.7206 24.5565C68.7192 24.7457 68.7177 24.9349 68.7162 25.1298C68.7154 25.321 68.7146 25.5122 68.7138 25.7093C68.7117 26.1817 68.7088 26.6541 68.7051 27.1265C68.8523 27.1544 68.9995 27.1824 69.1512 27.2112C71.0093 27.5751 72.7496 28.2769 74.3925 29.2169C74.8571 29.4759 74.8571 29.4759 75.2314 29.2904C75.5898 29.0673 75.8541 28.8405 76.1472 28.5378C76.2468 28.4362 76.3465 28.3346 76.4492 28.2299C76.5511 28.1243 76.653 28.0186 76.758 27.9097C76.9622 27.6995 77.1667 27.4896 77.3717 27.2802C77.4614 27.1872 77.5512 27.0943 77.6437 26.9985C78.0215 26.6435 78.2672 26.592 78.7878 26.5087C80.4411 26.722 81.8193 28.7473 82.9687 29.9064C83.1533 30.0919 83.338 30.2773 83.5227 30.4628C83.8597 30.8012 84.1964 31.1399 84.533 31.4788C84.7708 31.7183 85.0099 31.9563 85.2527 32.1907C85.5747 32.5283 85.6499 32.7777 85.7376 33.2378C85.6024 34.1505 85.0491 34.6069 84.4138 35.2456C84.1981 35.465 84.1981 35.465 83.9781 35.6889C83.5965 36.0735 83.2123 36.455 82.8253 36.8341C83.0253 37.362 83.2492 37.8716 83.4968 38.3785C85.2963 42.0637 85.2963 42.0637 85.2963 43.3646C85.4254 43.36 85.5544 43.3554 85.6874 43.3506C86.274 43.3323 86.8606 43.3208 87.4475 43.3095C87.6505 43.3021 87.8536 43.2947 88.0628 43.2871C88.3572 43.2828 88.3572 43.2828 88.6575 43.2785C88.9278 43.2715 88.9278 43.2715 89.2036 43.2645C89.9354 43.4096 90.1655 43.6349 90.5914 44.2472C90.726 44.8698 90.7313 45.4815 90.7348 46.117C90.7387 46.2978 90.7427 46.4786 90.7467 46.6648C90.754 47.0464 90.7592 47.4279 90.7625 47.8095C90.7679 48.3931 90.7808 48.9761 90.7948 49.5595C90.801 49.9306 90.8067 50.3018 90.812 50.6729C90.8159 50.8471 90.8197 51.0212 90.8236 51.2006C90.8276 52.0877 90.8256 52.7091 90.2384 53.4253C89.8854 53.7783 89.8854 53.7783 89.4403 53.8183C89.2572 53.8165 89.0742 53.8147 88.8857 53.8127C88.6877 53.8116 88.4898 53.8105 88.2858 53.8093C87.9746 53.8049 87.9746 53.8049 87.6571 53.8003C87.4482 53.7987 87.2393 53.7972 87.0241 53.7955C86.507 53.7913 85.9899 53.7855 85.4728 53.7783C85.4406 53.9153 85.4084 54.0523 85.3752 54.1935C85.1196 55.2525 84.8394 56.257 84.4249 57.2642C84.3794 57.3759 84.334 57.4875 84.2873 57.6026C84.0373 58.2089 83.7639 58.7935 83.4541 59.3712C83.1464 59.8998 83.1464 59.8998 83.2024 60.2964C83.4101 60.7944 83.7158 61.0733 84.1049 61.4451C84.2478 61.5834 84.3907 61.7218 84.5379 61.8643C84.6717 61.9917 84.8055 62.1191 84.9433 62.2504C85.9541 63.2329 85.9541 63.2329 86.0906 63.9492C85.869 65.4453 84.0022 66.7368 82.9687 67.755C82.6569 68.0623 82.3455 68.3701 82.0345 68.6782C81.83 68.8797 81.83 68.8797 81.6214 69.0851C81.2252 69.4861 81.2252 69.4861 80.867 69.9567C80.4038 70.5253 80.0951 70.7044 79.3725 70.8438C78.2499 70.8191 77.559 69.8866 76.8242 69.134C76.6966 69.0084 76.569 68.8828 76.4374 68.7534C76.1513 68.4713 75.8686 68.1867 75.5887 67.8984C75.4176 67.9881 75.2465 68.0777 75.0702 68.1701C73.8102 68.8207 72.5479 69.4273 71.2203 69.9282C71.0438 69.9957 71.0438 69.9957 70.8638 70.0645C70.2767 70.2795 69.87 70.3695 69.2346 70.3695C69.2393 70.4985 69.2439 70.6276 69.2486 70.7605C69.267 71.3472 69.2785 71.9338 69.2898 72.5206C69.3009 72.8252 69.3009 72.8252 69.3122 73.1359C69.3335 74.6044 69.3335 74.6044 68.9154 75.3557C68.0702 75.8191 67.2951 75.8031 66.3444 75.808C66.151 75.8117 65.9575 75.8155 65.7582 75.8195C65.3544 75.8266 64.9506 75.8316 64.5468 75.8348C63.9565 75.8409 63.3672 75.8564 62.7771 75.8741C62.4145 75.8819 62.0518 75.8893 61.6892 75.8962C61.5203 75.9015 61.3514 75.9068 61.1773 75.9123C60.4141 75.9185 59.9992 75.9144 59.3367 75.5067C58.8049 74.924 58.7997 74.5947 58.8038 73.8209C58.8046 73.536 58.8046 73.536 58.8055 73.2452C58.8077 72.9466 58.8077 72.9466 58.81 72.6419C58.8108 72.4415 58.8116 72.2411 58.8124 72.0345C58.8145 71.5383 58.8174 71.0422 58.821 70.546C58.5736 70.4972 58.5736 70.4972 58.3212 70.4474C56.6739 70.0927 55.2452 69.5411 53.755 68.7496C53.6202 68.6803 53.4855 68.611 53.3467 68.5396C53.2279 68.4757 53.109 68.4118 52.9866 68.346C52.6379 68.2151 52.6379 68.2151 52.2814 68.3768C51.9365 68.6051 51.6663 68.8378 51.379 69.1347C51.2793 69.2362 51.1797 69.3378 51.077 69.4425C50.9751 69.5482 50.8731 69.6539 50.7681 69.7628C50.564 69.973 50.3594 70.1828 50.1545 70.3922C50.0198 70.5317 50.0198 70.5317 49.8824 70.6739C49.5046 71.0289 49.2589 71.0804 48.7383 71.1637C47.1486 70.9586 45.8378 69.0564 44.756 67.9646C44.593 67.8008 44.43 67.637 44.262 67.4682C43.9591 67.1638 43.6563 66.8591 43.3538 66.5543C43.0558 66.2542 42.755 65.9566 42.4526 65.6609C42.0197 65.2165 41.903 65.0353 41.7886 64.4346C41.9238 63.5219 42.4771 63.0656 43.1123 62.4269C43.2561 62.2806 43.3999 62.1343 43.5481 61.9836C43.9296 61.599 44.3138 61.2175 44.7008 60.8384C44.4435 59.98 44.0793 59.2325 43.6639 58.4446C42.2298 55.6587 42.2298 55.6587 42.2298 54.3078C42.0362 54.3147 42.0362 54.3147 41.8388 54.3218C41.2521 54.3402 40.6655 54.3516 40.0787 54.3629C39.7741 54.374 39.7741 54.374 39.4633 54.3853C39.169 54.3896 39.169 54.3896 38.8687 54.394C38.5983 54.4009 38.5983 54.4009 38.3225 54.408C37.5851 54.2617 37.3588 54.0477 36.9347 53.4253C36.8095 52.7584 36.8195 52.104 36.83 51.4272C36.8299 51.2338 36.8299 51.0405 36.8299 50.8412C36.8309 50.4332 36.834 50.0252 36.8391 49.6173C36.8465 48.9916 36.8463 48.3663 36.8451 47.7407C36.847 47.3442 36.8493 46.9478 36.852 46.5513C36.852 46.3638 36.8521 46.1763 36.8521 45.983C36.8549 45.8092 36.8577 45.6355 36.8606 45.4564C36.8621 45.3034 36.8636 45.1505 36.8651 44.9929C36.9501 44.5135 37.08 44.3619 37.4643 44.0707C38.0042 43.8907 38.3687 43.8738 38.9335 43.8769C39.1149 43.8775 39.2964 43.8781 39.4833 43.8786C39.7671 43.8809 39.7671 43.8809 40.0566 43.8831C40.2479 43.8839 40.4391 43.8847 40.6361 43.8855C41.1085 43.8876 41.5809 43.8905 42.0533 43.8942C42.0831 43.7587 42.1128 43.6233 42.1435 43.4838C42.549 41.676 43.19 39.9269 44.0831 38.3012C44.4097 37.7601 44.4097 37.7601 44.221 37.3619C43.9947 37.0104 43.7646 36.7425 43.4646 36.4521C43.363 36.3525 43.2615 36.2528 43.1568 36.1501C42.9983 35.9972 42.9983 35.9972 42.8365 35.8412C42.6263 35.6371 42.4165 35.4326 42.2071 35.2276C42.1141 35.1378 42.0211 35.0481 41.9254 34.9555C41.5226 34.527 41.4085 34.0834 41.4203 33.4967C41.5633 32.9868 41.8273 32.7264 42.1878 32.3395C42.3319 32.1846 42.4761 32.0296 42.6247 31.87C43.4151 31.0474 44.2143 30.2343 45.0226 29.4292C45.3121 29.1407 45.6007 28.8512 45.8891 28.5616C46.0737 28.3771 46.2584 28.1926 46.4431 28.0083C46.529 27.9221 46.6148 27.8359 46.7033 27.747C47.1878 27.2659 47.4864 26.9909 48.1647 26.8617C49.0774 26.9969 49.5337 27.5502 50.1724 28.1855C50.3187 28.3293 50.465 28.4731 50.6157 28.6212C51.0003 29.0028 51.3818 29.387 51.7609 29.774C52.4191 29.5241 53.0478 29.2303 53.6806 28.9235C57.0334 27.303 57.0334 27.303 58.2915 27.303C58.2869 27.1739 58.2823 27.0449 58.2775 26.9119C58.2591 26.3252 58.2477 25.7387 58.2363 25.1518C58.229 24.9488 58.2216 24.7457 58.2139 24.5365C58.2111 24.3403 58.2083 24.144 58.2053 23.9418C58.2007 23.7616 58.1961 23.5813 58.1913 23.3956C58.5072 21.8028 59.7964 21.882 61.1273 21.9031ZM64.5842 24.8705C64.2984 24.8825 64.2984 24.8825 64.0068 24.8947C63.8062 24.9031 63.6057 24.9115 63.399 24.9202C63.1978 24.9286 62.9966 24.937 62.7892 24.9457C62.2902 24.9666 61.7911 24.9875 61.292 25.0084C61.2895 25.1277 61.2869 25.247 61.2842 25.3699C61.2711 25.9114 61.254 26.4527 61.2369 26.9941C61.2329 27.1818 61.2289 27.3695 61.2248 27.5629C61.2154 27.8342 61.2154 27.8342 61.2059 28.111C61.2012 28.2774 61.1966 28.4438 61.1919 28.6152C61.1016 29.1504 60.9673 29.3901 60.586 29.774C60.2305 29.9289 60.2305 29.9289 59.8228 30.0249C59.6717 30.0632 59.5206 30.1014 59.3649 30.1408C59.2036 30.1799 59.0423 30.219 58.8762 30.2594C56.7392 30.8227 54.9311 31.6856 53.0626 32.8628C52.5972 33.1444 52.2704 33.3092 51.7389 33.4474C50.9175 33.2153 50.4149 32.6606 49.8194 32.0685C49.6861 31.9377 49.5527 31.8069 49.4154 31.6721C49.0765 31.3362 48.7407 30.9978 48.4074 30.6565C47.675 30.937 47.2276 31.4746 46.7196 32.0464C46.6346 32.14 46.5496 32.2335 46.4621 32.3298C46.0256 32.8138 45.6103 33.3039 45.2303 33.8335C45.3412 33.943 45.3412 33.943 45.4544 34.0548C45.7883 34.385 46.1216 34.716 46.4548 35.047C46.5712 35.1619 46.6876 35.2768 46.8075 35.3952C46.9184 35.5055 47.0293 35.6159 47.1436 35.7296C47.2462 35.8312 47.3488 35.9329 47.4545 36.0377C47.8347 36.4487 47.8776 36.6542 47.9289 37.225C47.8692 38.0071 47.6541 38.3914 47.2381 39.0514C46.0801 40.9723 45.3276 42.8889 44.8462 45.0753C44.8142 45.2123 44.7821 45.3492 44.7491 45.4903C44.7226 45.6123 44.696 45.7342 44.6687 45.8599C44.4696 46.3134 44.2461 46.4735 43.8183 46.7182C43.3817 46.7945 43.3817 46.7945 42.9 46.8085C42.7441 46.8144 42.5881 46.8202 42.4275 46.8262C42.1331 46.8328 42.1331 46.8328 41.8327 46.8395C41.2065 46.8577 40.5804 46.8759 39.9353 46.8947C39.9353 48.3508 39.9353 49.807 39.9353 51.3072C41.2394 51.3443 41.2394 51.3443 42.5437 51.3757C42.7883 51.3845 42.7883 51.3845 43.0379 51.3934C43.2042 51.398 43.3706 51.4027 43.542 51.4074C44.0773 51.4976 44.317 51.632 44.7008 52.0133C44.8558 52.3688 44.8558 52.3688 44.9518 52.7765C44.99 52.9276 45.0283 53.0787 45.0676 53.2344C45.1263 53.4763 45.1263 53.4763 45.1862 53.7231C45.7496 55.86 46.6124 57.6681 47.7896 59.5367C48.0712 60.0021 48.2361 60.3289 48.3743 60.8604C48.1422 61.6817 47.5875 62.1844 46.9954 62.7799C46.8645 62.9132 46.7337 63.0465 46.5989 63.1839C46.2631 63.5228 45.9247 63.8586 45.5834 64.1919C45.8718 64.9723 46.4701 65.4377 47.0726 65.979C47.2277 66.1213 47.2277 66.1213 47.3859 66.2665C47.8329 66.6734 48.2553 67.0322 48.7604 67.3689C48.8334 67.295 48.9064 67.2211 48.9816 67.1449C49.3119 66.811 49.6429 66.4777 49.9738 66.1445C50.1462 65.9699 50.1462 65.9699 50.322 65.7918C50.4324 65.6809 50.5427 65.57 50.6564 65.4557C50.7581 65.3531 50.8598 65.2505 50.9645 65.1448C51.3745 64.7655 51.5807 64.7217 52.1498 64.6697C52.9399 64.7307 53.3421 64.9552 54.0113 65.3723C54.2307 65.5036 54.4504 65.6343 54.6705 65.7646C54.777 65.8283 54.8836 65.892 54.9935 65.9577C56.502 66.8487 58.094 67.2784 59.7869 67.6814C59.9505 67.7223 60.1141 67.7632 60.2827 67.8054C60.4302 67.8404 60.5778 67.8755 60.7298 67.9116C61.2209 68.1196 61.3873 68.3163 61.645 68.781C61.7214 69.2176 61.7214 69.2176 61.7354 69.6993C61.7412 69.8552 61.7471 70.0111 61.7531 70.1718C61.7575 70.3681 61.7619 70.5644 61.7664 70.7666C61.7846 71.3928 61.8028 72.0189 61.8215 72.664C63.2777 72.664 64.7338 72.664 66.2341 72.664C66.2711 71.3599 66.2711 71.3599 66.3026 70.0556C66.3084 69.8925 66.3143 69.7294 66.3203 69.5614C66.3249 69.3951 66.3295 69.2287 66.3343 69.0573C66.4245 68.522 66.5588 68.2823 66.9401 67.8984C67.2957 67.7435 67.2957 67.7435 67.7033 67.6475C67.8545 67.6093 68.0056 67.571 68.1613 67.5317C68.3225 67.4925 68.4838 67.4534 68.65 67.4131C70.7869 66.8497 72.595 65.9869 74.4635 64.8097C74.929 64.5281 75.2558 64.3632 75.7873 64.225C76.6086 64.4571 77.1113 65.0118 77.7067 65.6039C77.8401 65.7347 77.9734 65.8656 78.1108 66.0004C78.4496 66.3362 78.7854 66.6746 79.1188 67.0159C79.6743 66.7722 80.0258 66.4956 80.4343 66.0493C80.5981 65.8718 80.5981 65.8718 80.7652 65.6908C80.8771 65.5675 80.9891 65.4442 81.1044 65.3171C81.2191 65.1924 81.3338 65.0677 81.4519 64.9393C81.7341 64.6321 82.0154 64.3242 82.2958 64.0154C81.7128 63.3226 81.1265 62.6494 80.4756 62.0187C79.9455 61.5048 79.6864 61.2387 79.56 60.4964C79.5695 59.8347 79.8211 59.4593 80.1888 58.9189C81.4872 56.9937 82.196 54.8256 82.6889 52.5703C82.72 52.4361 82.7512 52.3019 82.7832 52.1636C82.8087 52.0449 82.8341 51.9263 82.8603 51.8041C83.0582 51.3562 83.2855 51.1968 83.7078 50.9542C84.1444 50.8779 84.1444 50.8779 84.6262 50.8639C84.7821 50.8581 84.938 50.8522 85.0986 50.8462C85.2949 50.8418 85.4912 50.8374 85.6935 50.8329C86.3196 50.8147 86.9457 50.7965 87.5909 50.7777C87.5909 49.3216 87.5909 47.8655 87.5909 46.3652C86.2867 46.3282 86.2867 46.3282 84.9825 46.2967C84.7378 46.2879 84.7378 46.2879 84.4883 46.279C84.3219 46.2744 84.1555 46.2698 83.9841 46.265C83.4489 46.1748 83.2092 46.0405 82.8253 45.6592C82.6703 45.3036 82.6703 45.3036 82.5743 44.8959C82.5361 44.7448 82.4979 44.5937 82.4585 44.438C82.4194 44.2767 82.3802 44.1155 82.3399 43.9493C81.7766 41.8124 80.9137 40.0043 79.7365 38.1358C79.4549 37.6703 79.2901 37.3435 79.1519 36.812C79.384 35.9907 79.9386 35.488 80.5308 34.8925C80.6616 34.7592 80.7924 34.6259 80.9272 34.4885C81.2631 34.1497 81.6015 33.8139 81.9428 33.4805C81.3461 32.1511 80.028 31.2313 78.9423 30.3035C78.1144 30.9933 77.3448 31.7119 76.5946 32.4856C76.2076 32.8584 76.0082 32.943 75.4715 33.0076C74.7182 32.9352 74.2086 32.614 73.581 32.223C71.6076 31.058 69.5655 30.3036 67.3176 29.8565C66.8166 29.7481 66.4775 29.6667 66.1159 29.2927C65.833 28.8093 65.8063 28.4922 65.7908 27.9345C65.7845 27.7536 65.7783 27.5727 65.7718 27.3864C65.7678 27.1987 65.7639 27.011 65.7598 26.8176C65.7537 26.6271 65.7477 26.4367 65.7415 26.2405C65.7269 25.771 65.7147 25.3015 65.7046 24.8319C65.3311 24.8319 64.9573 24.8549 64.5842 24.8705Z" fill="black"/>
<path d="M71.1158 40.0283C73.1083 41.7246 74.6292 44.1032 75.0609 46.7182C75.3437 50.3391 74.8264 53.5885 72.4255 56.4199C70.6068 58.4395 67.993 59.9516 65.249 60.1685C61.6801 60.2963 58.6281 59.7004 55.9105 57.2532C53.8746 55.3272 52.5254 52.6263 52.4094 49.8152C52.3797 47.8988 52.393 46.2024 53.1747 44.4237C53.2706 44.1923 53.2706 44.1923 53.3684 43.9562C54.7299 40.9563 57.2401 39.0891 60.2037 37.8634C64.0171 36.6777 68.0546 37.6037 71.1158 40.0283ZM58.4035 42.3718C58.1279 42.6404 57.8555 42.9122 57.5872 43.1881C57.4319 43.338 57.4319 43.338 57.2735 43.4908C55.6668 45.1629 55.3844 47.4007 55.4202 49.6077C55.5127 51.8663 56.6576 53.6884 58.2588 55.2165C60.2789 56.9203 62.4059 57.3223 64.9774 57.1684C67.041 56.9678 68.7928 55.7736 70.1906 54.2967C71.8538 52.2748 72.2498 50.1746 72.0977 47.6244C71.8862 45.4888 70.6627 43.7722 69.1591 42.3194C66.0569 39.8036 61.436 39.7071 58.4035 42.3718Z" fill="black"/>
<path d="M12.7943 54.3927C12.9964 54.3914 13.1985 54.3902 13.4067 54.3889C14.0757 54.3858 14.7446 54.3879 15.4135 54.3903C15.8778 54.3898 16.342 54.3891 16.8063 54.3882C17.7796 54.3869 18.7529 54.3886 19.7263 54.392C20.8512 54.3958 21.9761 54.3946 23.101 54.3907C24.1837 54.3871 25.2663 54.3875 26.3489 54.3895C26.8095 54.39 27.27 54.3894 27.7305 54.3878C28.3737 54.386 29.0167 54.3887 29.6599 54.3927C29.851 54.3912 30.0421 54.3898 30.239 54.3883C31.5273 54.403 31.5273 54.403 32.1116 54.8207C32.3647 55.2183 32.4423 55.4281 32.435 55.896C32.4377 56.0708 32.4377 56.0708 32.4405 56.249C32.2925 56.8062 32.1161 56.9682 31.6407 57.3081C30.9818 57.4176 30.3264 57.4044 29.6599 57.3994C29.4578 57.4006 29.2557 57.4019 29.0474 57.4032C28.3784 57.4063 27.7096 57.4042 27.0406 57.4018C26.5764 57.4023 26.1121 57.403 25.6479 57.4039C24.6745 57.4052 23.7012 57.4035 22.7279 57.4001C21.6029 57.3963 20.4781 57.3975 19.3531 57.4014C18.2705 57.405 17.1879 57.4046 16.1052 57.4025C15.6447 57.4021 15.1842 57.4026 14.7236 57.4043C14.0805 57.4061 13.4374 57.4033 12.7943 57.3994C12.6032 57.4008 12.4121 57.4023 12.2152 57.4037C10.9268 57.3891 10.9268 57.3891 10.3425 56.9714C10.0894 56.5738 10.0119 56.364 10.0192 55.896C10.0165 55.7213 10.0165 55.7213 10.0137 55.543C10.375 54.1827 11.6501 54.3841 12.7943 54.3927Z" fill="black"/>
<path d="M12.7943 47.3326C12.9964 47.3314 13.1985 47.3301 13.4067 47.3289C14.0757 47.3257 14.7446 47.3278 15.4135 47.3302C15.8778 47.3297 16.342 47.329 16.8063 47.3281C17.7796 47.3269 18.7529 47.3286 19.7263 47.3319C20.8512 47.3358 21.9761 47.3345 23.101 47.3306C24.1837 47.327 25.2663 47.3274 26.3489 47.3295C26.8095 47.33 27.27 47.3294 27.7305 47.3277C28.3737 47.3259 29.0167 47.3287 29.6599 47.3326C29.851 47.3312 30.0421 47.3297 30.239 47.3283C31.5273 47.3429 31.5273 47.3429 32.1116 47.7606C32.3647 48.1583 32.4423 48.368 32.435 48.836C32.4377 49.0107 32.4377 49.0107 32.4405 49.189C32.2925 49.7461 32.1161 49.9081 31.6407 50.248C30.9818 50.3576 30.3264 50.3443 29.6599 50.3393C29.4578 50.3406 29.2557 50.3418 29.0474 50.3431C28.3784 50.3462 27.7096 50.3441 27.0406 50.3418C26.5764 50.3422 26.1121 50.3429 25.6479 50.3438C24.6745 50.3451 23.7012 50.3434 22.7279 50.34C21.6029 50.3362 20.4781 50.3374 19.3531 50.3413C18.2705 50.3449 17.1879 50.3445 16.1052 50.3425C15.6447 50.342 15.1842 50.3426 14.7236 50.3442C14.0805 50.346 13.4374 50.3433 12.7943 50.3393C12.6032 50.3408 12.4121 50.3422 12.2152 50.3437C10.9268 50.329 10.9268 50.329 10.3425 49.9113C10.0894 49.5137 10.0119 49.3039 10.0192 48.836C10.0165 48.6612 10.0165 48.6612 10.0137 48.483C10.375 47.1227 11.6501 47.3241 12.7943 47.3326Z" fill="black"/>
<path d="M12.7943 40.2725C12.9964 40.2713 13.1985 40.2701 13.4067 40.2688C14.0757 40.2657 14.7446 40.2678 15.4135 40.2701C15.8778 40.2697 16.342 40.269 16.8063 40.2681C17.7796 40.2668 18.7529 40.2685 19.7263 40.2719C20.8512 40.2757 21.9761 40.2745 23.101 40.2706C24.1837 40.267 25.2663 40.2674 26.3489 40.2694C26.8095 40.2699 27.27 40.2693 27.7305 40.2677C28.3737 40.2659 29.0167 40.2686 29.6599 40.2725C29.851 40.2711 30.0421 40.2697 30.239 40.2682C31.5273 40.2829 31.5273 40.2829 32.1116 40.7006C32.3647 41.0982 32.4423 41.308 32.435 41.7759C32.4377 41.9507 32.4377 41.9507 32.4405 42.1289C32.2925 42.686 32.1161 42.8481 31.6407 43.1879C30.9818 43.2975 30.3264 43.2843 29.6599 43.2793C29.4578 43.2805 29.2557 43.2818 29.0474 43.283C28.3784 43.2862 27.7096 43.2841 27.0406 43.2817C26.5764 43.2822 26.1121 43.2829 25.6479 43.2838C24.6745 43.285 23.7012 43.2833 22.7279 43.28C21.6029 43.2761 20.4781 43.2774 19.3531 43.2813C18.2705 43.2849 17.1879 43.2845 16.1052 43.2824C15.6447 43.2819 15.1842 43.2825 14.7236 43.2842C14.0805 43.286 13.4374 43.2832 12.7943 43.2793C12.6032 43.2807 12.4121 43.2821 12.2152 43.2836C10.9268 43.269 10.9268 43.269 10.3425 42.8513C10.0894 42.4536 10.0119 42.2439 10.0192 41.7759C10.0165 41.6012 10.0165 41.6012 10.0137 41.4229C10.375 40.0626 11.6501 40.264 12.7943 40.2725Z" fill="black"/>
<path d="M12.7943 33.2125C12.9964 33.2113 13.1985 33.21 13.4067 33.2087C14.0757 33.2056 14.7446 33.2077 15.4135 33.2101C15.8778 33.2096 16.342 33.2089 16.8063 33.208C17.7796 33.2067 18.7529 33.2084 19.7263 33.2118C20.8512 33.2156 21.9761 33.2144 23.101 33.2105C24.1837 33.2069 25.2663 33.2073 26.3489 33.2094C26.8095 33.2098 27.27 33.2093 27.7305 33.2076C28.3737 33.2058 29.0167 33.2086 29.6599 33.2125C29.851 33.2111 30.0421 33.2096 30.239 33.2082C31.5273 33.2228 31.5273 33.2228 32.1116 33.6405C32.3647 34.0381 32.4423 34.2479 32.435 34.7159C32.4377 34.8906 32.4377 34.8906 32.4405 35.0689C32.2925 35.626 32.1161 35.788 31.6407 36.1279C30.9818 36.2374 30.3264 36.2242 29.6599 36.2192C29.4578 36.2205 29.2557 36.2217 29.0474 36.223C28.3784 36.2261 27.7096 36.224 27.0406 36.2216C26.5764 36.2221 26.1121 36.2228 25.6479 36.2237C24.6745 36.225 23.7012 36.2233 22.7279 36.2199C21.6029 36.2161 20.4781 36.2173 19.3531 36.2212C18.2705 36.2248 17.1879 36.2244 16.1052 36.2224C15.6447 36.2219 15.1842 36.2225 14.7236 36.2241C14.0805 36.2259 13.4374 36.2232 12.7943 36.2192C12.6032 36.2207 12.4121 36.2221 12.2152 36.2236C10.9268 36.2089 10.9268 36.2089 10.3425 35.7912C10.0894 35.3936 10.0119 35.1838 10.0192 34.7159C10.0165 34.5411 10.0165 34.5411 10.0137 34.3629C10.375 33.0026 11.6501 33.2039 12.7943 33.2125Z" fill="black"/>
<path d="M12.7943 26.1524C12.9964 26.1512 13.1985 26.15 13.4067 26.1487C14.0757 26.1456 14.7446 26.1476 15.4135 26.15C15.8778 26.1495 16.342 26.1489 16.8063 26.148C17.7796 26.1467 18.7529 26.1484 19.7263 26.1517C20.8512 26.1556 21.9761 26.1543 23.101 26.1505C24.1837 26.1469 25.2663 26.1472 26.3489 26.1493C26.8095 26.1498 27.27 26.1492 27.7305 26.1476C28.3737 26.1458 29.0167 26.1485 29.6599 26.1524C29.851 26.151 30.0421 26.1496 30.239 26.1481C31.5273 26.1627 31.5273 26.1627 32.1116 26.5804C32.3647 26.9781 32.4423 27.1879 32.435 27.6558C32.4377 27.8305 32.4377 27.8305 32.4405 28.0088C32.2925 28.5659 32.1161 28.728 31.6407 29.0678C30.9818 29.1774 30.3264 29.1642 29.6599 29.1592C29.4578 29.1604 29.2557 29.1616 29.0474 29.1629C28.3784 29.166 27.7096 29.164 27.0406 29.1616C26.5764 29.1621 26.1121 29.1627 25.6479 29.1636C24.6745 29.1649 23.7012 29.1632 22.7279 29.1599C21.6029 29.156 20.4781 29.1573 19.3531 29.1612C18.2705 29.1647 17.1879 29.1644 16.1052 29.1623C15.6447 29.1618 15.1842 29.1624 14.7236 29.164C14.0805 29.1658 13.4374 29.1631 12.7943 29.1592C12.6032 29.1606 12.4121 29.162 12.2152 29.1635C10.9268 29.1489 10.9268 29.1489 10.3425 28.7312C10.0894 28.3335 10.0119 28.1237 10.0192 27.6558C10.0165 27.4811 10.0165 27.4811 10.0137 27.3028C10.375 25.9425 11.6501 26.1439 12.7943 26.1524Z" fill="black"/>
</svg>
