<svg width="95" height="94" viewBox="0 0 95 94" fill="none" xmlns="http://www.w3.org/2000/svg">
<path d="M60.2754 32.6088C60.61 32.7164 60.61 32.7164 60.9513 32.8261C63.4413 33.7027 65.6043 35.0547 67.6007 36.7664C67.7293 36.8642 67.858 36.9619 67.9905 37.0626C71.6453 39.946 73.8894 44.9209 74.5301 49.4372C74.7058 52.5795 74.7503 55.7357 73.7381 58.7423C73.6664 58.9653 73.5947 59.1884 73.5208 59.4182C73.0483 60.7605 72.4167 61.9705 71.6773 63.1812C71.2547 63.8784 71.2547 63.8784 71.1644 64.6817C71.4399 65.0395 71.4399 65.0395 71.814 65.3893C72.015 65.5875 72.015 65.5875 72.22 65.7896C72.3617 65.9262 72.5033 66.0629 72.6492 66.2037C72.7909 66.3427 72.9325 66.4816 73.0784 66.6248C73.429 66.9684 73.7809 67.3105 74.1341 67.6514C74.2576 67.5754 74.3811 67.4993 74.5084 67.4209C75.9103 66.5829 77.2761 66.4005 78.8856 66.6615C80.0207 67.1031 80.8563 67.7262 81.6996 68.5905C81.8115 68.702 81.9234 68.8135 82.0388 68.9284C82.4046 69.2938 82.7676 69.662 83.1306 70.0303C83.3868 70.2874 83.6431 70.5444 83.8995 70.8012C84.4354 71.3385 84.9699 71.8771 85.5034 72.4168C86.1838 73.105 86.8663 73.791 87.5496 74.4763C88.2056 75.1343 88.8606 75.7932 89.5155 76.4523C89.6388 76.5762 89.762 76.7001 89.889 76.8278C94.5405 81.5099 94.5405 81.5099 94.588 83.824C94.5954 84.0575 94.6028 84.291 94.6104 84.5316C94.4371 86.0533 93.6069 87.1039 92.5432 88.1517C92.4294 88.2663 92.3157 88.3808 92.1985 88.4988C91.9592 88.7386 91.7189 88.9775 91.4776 89.2154C91.1119 89.5769 90.7505 89.9425 90.3894 90.3086C90.1548 90.5427 89.92 90.7765 89.6849 91.0101C89.5786 91.1179 89.4723 91.2258 89.3628 91.337C88.2615 92.412 87.0909 93.1075 85.518 93.092C82.3205 92.9705 80.1204 89.9075 77.9901 87.789C77.8662 87.6659 77.7423 87.5429 77.6147 87.4161C76.9611 86.7666 76.3081 86.1164 75.6556 85.4658C74.9849 84.7974 74.312 84.1313 73.6386 83.4657C73.1172 82.9494 72.5976 82.4315 72.0784 81.913C71.8311 81.6666 71.5831 81.4209 71.3344 81.1759C70.9867 80.8331 70.6417 80.4879 70.2971 80.142C70.1957 80.0431 70.0943 79.9442 69.9898 79.8423C68.9098 78.7466 68.266 77.4698 68.1452 75.9295C68.2325 74.5974 68.6781 73.5277 69.3825 72.403C68.9081 71.8999 68.4283 71.4024 67.9472 70.9057C67.8122 70.7624 67.6772 70.6191 67.5381 70.4715C67.4066 70.3369 67.2752 70.2023 67.1398 70.0636C67.0195 69.9381 66.8993 69.8126 66.7753 69.6834C66.43 69.3876 66.43 69.3876 66.0072 69.4726C65.4288 69.7101 64.9169 70.0357 64.3835 70.3613C61.1636 72.2556 57.712 73.1139 53.9772 73.0835C53.7172 73.082 53.4573 73.0805 53.1894 73.079C51.2205 73.0457 49.4652 72.843 47.6046 72.205C47.4771 72.1615 47.3496 72.118 47.2182 72.0732C44.6128 71.1643 42.3829 69.8279 40.2794 68.0474C40.0857 67.9004 40.0857 67.9004 39.888 67.7504C36.2349 64.864 33.9909 59.8942 33.35 55.3766C33.1743 52.2343 33.1298 49.0781 34.1419 46.0715C34.2137 45.8485 34.2854 45.6254 34.3593 45.3956C35.1929 43.0274 36.4756 40.8537 38.1016 38.9442C38.2233 38.7962 38.345 38.6482 38.4705 38.4957C43.5868 32.4667 52.8147 30.0972 60.2754 32.6088ZM41.4425 40.2558C39.4971 42.2795 38.1875 44.6085 37.3096 47.2594C37.2425 47.45 37.1754 47.6407 37.1062 47.8371C35.9189 51.8915 36.544 56.6324 38.4975 60.3261C38.5948 60.5168 38.692 60.7074 38.7922 60.9038C39.6692 62.5219 40.7708 63.7854 42.0612 65.0777C42.1913 65.2101 42.3215 65.3426 42.4556 65.4791C45.4954 68.3558 50.0245 69.8292 54.138 69.8292C59.1197 69.5918 63.4494 67.6474 66.931 64.0483C67.8086 63.0168 68.5015 61.8885 69.1846 60.7221C69.2823 60.5621 69.3801 60.4021 69.4808 60.2372C71.4683 56.6894 71.8129 51.9631 70.8303 48.0637C70.4561 46.8143 69.9921 45.6402 69.3825 44.4877C69.2853 44.297 69.1881 44.1064 69.0879 43.91C68.2111 42.2925 67.11 41.0272 65.8189 39.7361C65.6864 39.6037 65.554 39.4712 65.4175 39.3348C63.0388 37.117 59.7471 35.5774 56.5138 35.1826C56.3099 35.1563 56.106 35.13 55.8959 35.1029C50.4312 34.5509 45.4209 36.5191 41.4425 40.2558ZM75.4465 71.1045C75.278 71.2709 75.278 71.2709 75.1062 71.4408C74.8704 71.6756 74.6364 71.9122 74.404 72.1503C74.0485 72.5133 73.6861 72.8683 73.3224 73.2231C73.0937 73.4528 72.8654 73.6828 72.6376 73.9134C72.5294 74.0188 72.4211 74.1242 72.3096 74.2329C71.8102 74.7544 71.5715 75.1037 71.4584 75.8222C71.5976 76.8301 72.0306 77.2254 72.741 77.9174C72.9293 78.1089 72.9293 78.1089 73.1214 78.3042C73.5365 78.7244 73.9565 79.1394 74.3769 79.5543C74.6673 79.845 74.9574 80.136 75.2473 80.4272C75.8552 81.0363 76.4656 81.6429 77.0778 82.2478C77.8625 83.0235 78.6413 83.8048 79.4184 84.588C80.0165 85.1896 80.6174 85.7883 81.2192 86.3861C81.5075 86.6731 81.795 86.961 82.0816 87.2498C82.4825 87.6527 82.887 88.0517 83.2927 88.4498C83.4106 88.5698 83.5286 88.6898 83.65 88.8135C84.2151 89.3601 84.481 89.6075 85.2796 89.7158C85.8932 89.6144 86.12 89.4772 86.5644 89.0496C86.6984 88.9229 86.8324 88.7962 86.9705 88.6657C87.1118 88.5257 87.2532 88.3857 87.3988 88.2414C87.625 88.0226 87.625 88.0226 87.8558 87.7994C88.3305 87.3362 88.7994 86.8679 89.2673 86.3977C89.4284 86.2373 89.5896 86.0769 89.7556 85.9117C89.9086 85.7584 90.0616 85.6052 90.2193 85.4473C90.4265 85.2397 90.4265 85.2397 90.638 85.0279C91.0477 84.5858 91.1503 84.3451 91.2464 83.7465C91.1225 82.8061 90.6428 82.4079 89.983 81.7596C89.8577 81.632 89.7325 81.5044 89.6035 81.3729C89.1889 80.952 88.7701 80.5357 88.3508 80.1196C88.061 79.8285 87.7714 79.5372 87.4819 79.2458C86.8745 78.6358 86.265 78.028 85.6539 77.4216C84.871 76.6444 84.094 75.8615 83.3186 75.0767C82.7217 74.474 82.1215 73.8746 81.5204 73.2761C81.2326 72.9888 80.9458 72.7003 80.6601 72.4108C80.2602 72.0064 79.8561 71.6067 79.4505 71.2078C79.3333 71.0875 79.2161 70.9672 79.0954 70.8432C78.4899 70.2574 78.2155 70.044 77.3553 69.9253C76.4843 70.0624 76.0398 70.4954 75.4465 71.1045Z" fill="black"/>
<path d="M2.66189 27.4617C2.9976 27.7869 3.32485 28.1177 3.6518 28.4516C3.79216 28.5881 3.93253 28.7246 4.07715 28.8653C4.22262 29.0146 4.36809 29.1639 4.51796 29.3177C4.65833 29.4581 4.7987 29.5985 4.94331 29.7431C5.35955 30.4412 5.2178 30.8395 5.03766 31.6193C4.91882 32.0866 4.79472 32.5527 4.66645 33.0175C4.1694 34.8929 3.94345 36.802 3.71623 38.7256C3.6518 39.1425 3.6518 39.1425 3.45382 39.7365C8.09251 39.7365 12.7312 39.7365 17.5105 39.7365C17.5105 38.6911 17.5105 37.6458 17.5105 36.5688C18.073 35.7545 18.4447 35.2989 19.1686 34.688C19.3258 34.5417 19.483 34.3955 19.6449 34.2448C20.7852 33.2031 20.7852 33.2031 21.2721 33.2031C21.1414 35.2938 21.0108 37.3845 20.8761 39.5385C25.1228 39.5385 29.3695 39.5385 33.7449 39.5385C32.752 42.0207 32.752 42.0207 31.9631 42.9042C31.0906 43.2288 30.2801 43.1833 29.3592 43.1362C29.1106 43.1328 28.8621 43.1295 28.6061 43.126C27.9487 43.115 27.2934 43.0937 26.6367 43.0673C25.9652 43.0429 25.2936 43.0321 24.6219 43.0202C23.3068 42.994 21.9926 42.9543 20.6782 42.9042C21.0465 48.119 21.4393 53.2905 22.8559 58.3467C24.4083 58.1731 25.9444 57.903 27.4837 57.6414C28.0214 57.55 28.5592 57.4591 29.097 57.3684C29.3337 57.3282 29.5703 57.288 29.8142 57.2465C30.3792 57.1588 30.3792 57.1588 30.7752 57.1588C31.2652 58.8248 31.2652 58.8248 31.7651 60.5245C30.298 60.8588 28.825 61.1545 27.3476 61.4401C27.1168 61.4856 26.886 61.531 26.6481 61.5778C26.4265 61.6207 26.2048 61.6636 25.9765 61.7077C25.7763 61.7467 25.5761 61.7856 25.3699 61.8258C24.8358 61.9103 24.8358 61.9103 24.0438 61.9103C25.9768 66.69 28.11 71.2181 32.9367 73.626C33.5203 73.8571 34.1313 74.0127 34.7348 74.1852C34.8001 71.7025 34.8655 69.2198 34.9328 66.6619C35.2594 66.9886 35.5861 67.3152 35.9227 67.6518C36.1118 67.7904 36.3009 67.9289 36.4957 68.0717C37.3327 68.7361 37.9948 69.2665 38.1993 70.3559C38.2912 71.6355 38.2212 72.9094 38.1005 74.1852C39.6651 73.6998 39.6651 73.6998 41.1568 73.0344C41.7845 72.7435 41.9964 72.8136 42.654 72.9973C43.0094 73.1692 43.3597 73.3518 43.7058 73.5417C44.8167 74.1158 45.9263 74.5012 47.122 74.8485C47.779 75.0397 48.3912 75.2353 48.9894 75.571C47.7333 76.1627 46.4328 76.541 45.0917 76.8827C44.9357 76.9234 44.7797 76.9642 44.619 77.0061C41.9399 77.6689 39.2744 77.8301 36.529 77.8231C36.2895 77.8229 36.2895 77.8229 36.0451 77.8227C33.3045 77.8143 30.675 77.6081 28.0034 76.9569C27.7488 76.8948 27.7488 76.8948 27.489 76.8315C21.6939 75.359 16.2135 72.4872 11.8904 68.3393C11.5176 67.9866 11.1479 67.6583 10.752 67.3339C10.0069 66.7108 9.41814 66.0221 8.7993 65.276C8.71189 65.1723 8.62448 65.0686 8.53442 64.9617C5.1329 60.9125 2.73985 56.2399 1.23891 51.1699C1.19179 51.0147 1.14467 50.8595 1.09612 50.6995C0.225963 47.6369 -0.0222061 44.5395 0.00152555 41.3698C0.00212768 41.1977 0.00272982 41.0257 0.0033502 40.8484C0.02722 36.218 0.755517 31.7157 2.66189 27.4617ZM3.45382 42.9042C4.10942 49.788 5.92828 55.832 10.1852 61.3164C10.314 61.491 10.4429 61.6655 10.5757 61.8454C10.6918 61.9934 10.808 62.1414 10.9276 62.2939C11.0246 62.4182 11.1216 62.5425 11.2215 62.6706C11.5785 62.9581 11.5785 62.9581 12.1194 62.8422C12.7351 62.7075 13.2597 62.5259 13.8378 62.2777C14.0385 62.1926 14.2392 62.1075 14.446 62.0198C14.7563 61.886 14.7563 61.886 15.0728 61.7495C15.4817 61.5745 15.8908 61.3999 16.3001 61.2259C16.4998 61.1408 16.6995 61.0556 16.9052 60.9679C17.6848 60.6518 18.4777 60.3838 19.2782 60.1257C19.4135 60.0613 19.5488 59.9969 19.6883 59.9305C19.918 59.2412 19.8433 58.9913 19.6736 58.2956C19.6233 58.081 19.5731 57.8663 19.5213 57.6451C19.4662 57.4111 19.411 57.1771 19.3542 56.9361C18.4359 52.8587 17.8975 48.6753 17.7432 44.4973C17.7185 43.8249 17.7185 43.8249 17.5105 42.9042C12.8718 42.9042 8.23308 42.9042 3.45382 42.9042ZM19.2606 63.3666C19.1043 63.4241 18.9481 63.4817 18.7871 63.5409C18.5411 63.6342 18.5411 63.6342 18.29 63.7293C18.1225 63.7918 17.955 63.8544 17.7824 63.9188C16.5444 64.3865 15.3348 64.8937 14.1448 65.474C14.9065 66.4285 15.6873 67.2037 16.6814 67.9116C16.8737 68.0498 16.8737 68.0498 17.0698 68.1907C19.1733 69.6762 21.354 70.9308 23.7221 71.9455C23.8835 72.0151 24.0448 72.0847 24.2111 72.1564C24.4368 72.2491 24.4368 72.2491 24.6672 72.3438C24.8002 72.3986 24.9333 72.4534 25.0704 72.5098C25.4722 72.6466 25.4722 72.6466 26.0236 72.4033C25.8644 72.2359 25.7051 72.0685 25.5411 71.896C23.4102 69.3941 21.9921 66.162 20.8761 63.0982C20.1872 63.0982 19.8764 63.1382 19.2606 63.3666Z" fill="black"/>
<path d="M34.3692 4.84454C34.5975 4.84163 34.5975 4.84163 34.8304 4.83866C38.2962 4.80365 41.6434 4.85305 45.03 5.68364C45.1995 5.72501 45.369 5.76639 45.5436 5.80902C51.5377 7.33178 57.1316 10.3469 61.5485 14.6859C61.864 14.9942 62.1844 15.2967 62.5057 15.5989C68.6678 21.4754 72.1472 29.7619 72.9453 38.1525C72.3266 37.6763 71.7875 37.2049 71.2872 36.6058C70.1803 35.2293 70.1803 35.2293 68.7877 34.1929C68.6588 33.8453 68.6588 33.8453 68.5449 33.3894C68.5008 33.2207 68.4567 33.0521 68.4112 32.8783C68.364 32.6955 68.3167 32.5128 68.268 32.3244C67.1983 28.4085 65.3865 24.8035 62.9844 21.5345C62.8847 21.3973 62.7849 21.2601 62.6822 21.1187C62.5867 20.9928 62.4912 20.8669 62.3928 20.7371C62.3087 20.6256 62.2247 20.5141 62.1381 20.3992C61.7721 20.0551 61.569 19.9782 61.0665 19.9383C60.4998 20.0987 60.4998 20.0987 59.8964 20.3675C59.6676 20.4628 59.4388 20.5581 59.203 20.6563C58.9645 20.7583 58.726 20.8602 58.4803 20.9653C58.0121 21.1624 57.5437 21.3591 57.0751 21.5554C56.8487 21.6504 56.6223 21.7454 56.3891 21.8433C55.4503 22.2265 54.5001 22.5731 53.5432 22.908C53.7191 23.8974 53.897 24.886 54.0977 25.8707C54.1247 26.0032 54.1516 26.1356 54.1794 26.2721C54.2581 26.6563 54.3376 27.0403 54.4171 27.4244C54.5331 28.0555 54.5331 28.0555 54.5331 28.6494C53.7734 28.8284 53.073 28.8683 52.2934 28.8598C52.0819 28.858 51.8703 28.8562 51.6523 28.8544C51.4123 28.8509 51.4123 28.8509 51.1674 28.8474C50.8832 27.7275 50.5996 26.6073 50.3384 25.4817C50.307 25.347 50.2756 25.2122 50.2432 25.0734C50.1775 24.6898 50.1775 24.6898 50.1775 23.8979C49.9325 23.9624 49.6875 24.027 49.4351 24.0935C47.4967 24.5887 45.5677 24.9927 43.5823 25.2466C43.3068 25.2833 43.3068 25.2833 43.0258 25.3207C41.3834 25.5157 39.7515 25.504 38.1007 25.4817C38.1055 25.5959 38.1103 25.7102 38.1153 25.8278C38.1638 27.0258 38.1965 28.2235 38.2203 29.4223C38.2312 29.8684 38.246 30.3145 38.265 30.7604C38.4352 34.8718 38.4352 34.8718 37.3602 36.0489C36.9083 36.46 36.4215 36.8106 35.9229 37.1626C35.5962 37.4893 35.2695 37.8159 34.933 38.1525C34.933 33.9711 34.933 29.7898 34.933 25.4817C33.757 25.4817 32.581 25.4817 31.3693 25.4817C30.7224 25.43 30.102 25.376 29.4638 25.2837C29.3193 25.2649 29.1749 25.246 29.026 25.2265C28.685 25.1816 28.3442 25.1341 28.0036 25.0858C27.8621 24.7733 27.8621 24.7733 27.8057 24.2938C28.0163 23.8186 28.2265 23.4029 28.4862 22.9575C28.8354 22.345 28.8354 22.345 29.1915 21.7201C31.9355 21.9161 31.9355 21.9161 34.735 22.1161C34.8003 17.608 34.8657 13.1 34.933 8.45537C33.4239 8.99309 33.4239 8.99309 31.9633 9.64326C31.7673 9.64326 31.5713 9.64326 31.3693 9.64326C31.2078 9.13612 31.0471 8.62878 30.8867 8.12128C30.8412 7.97849 30.7956 7.8357 30.7487 7.68858C30.5186 6.95828 30.3112 6.24202 30.1814 5.48566C31.5636 4.97998 32.9063 4.85996 34.3692 4.84454ZM38.1007 8.25739C38.1007 12.8307 38.1007 17.4041 38.1007 22.1161C40.0825 22.1161 41.8421 22.0666 43.7679 21.7572C43.9879 21.7244 44.2079 21.6916 44.4345 21.6578C45.9715 21.421 47.4791 21.0989 48.9896 20.7302C47.9292 16.4029 45.0966 11.772 41.2684 9.44528C40.194 8.81642 39.3588 8.57193 38.1007 8.25739ZM47.0098 10.0392C47.0772 10.1237 47.1446 10.2082 47.214 10.2952C49.3713 13.0779 50.963 16.2382 52.1573 19.5423C53.1938 19.4295 54.1048 19.1797 55.0775 18.7999C55.2829 18.7213 55.2829 18.7213 55.4924 18.6412C56.6453 18.1949 57.7736 17.7005 58.8887 17.1665C58.1269 16.212 57.3462 15.4368 56.352 14.7289C56.2239 14.6368 56.0957 14.5447 55.9636 14.4499C51.7989 11.4132 51.7989 11.4132 47.0098 10.0392Z" fill="black"/>
<path d="M23.3979 2.76612C26.1282 4.93614 27.8849 7.82148 28.5968 11.2271C28.6774 11.9885 28.6891 12.7387 28.6834 13.5039C28.6873 13.693 28.6913 13.8821 28.6954 14.0769C28.6944 15.5127 28.3729 16.6472 27.8049 17.9585C27.7287 18.1367 27.6525 18.315 27.574 18.4987C26.3827 21.2027 24.9898 23.6884 23.2513 26.0757C23.1669 26.1923 23.0825 26.309 22.9955 26.4292C22.4424 27.1869 21.8653 27.9232 21.2715 28.6494C21.1384 28.8131 21.1384 28.8131 21.0025 28.9801C19.677 30.5953 18.2517 32.1168 16.7893 33.608C16.602 33.7994 16.4155 33.9916 16.2298 34.1846C15.9679 34.4559 15.7022 34.7235 15.4365 34.991C15.206 35.2255 15.206 35.2255 14.9708 35.4647C14.5401 35.7767 14.5401 35.7767 14.1333 35.7653C13.687 35.5491 13.3856 35.3051 13.0251 34.9639C12.889 34.8359 12.7529 34.7079 12.6126 34.576C12.3969 34.368 12.3969 34.368 12.1767 34.1558C12.0273 34.013 11.8778 33.8702 11.7238 33.7232C9.50204 31.5831 7.48205 29.3347 5.63099 26.8676C5.54709 26.7575 5.46319 26.6473 5.37675 26.5339C1.82908 21.86 -0.61837 16.7704 0.144661 10.7785C0.74691 7.53924 2.8686 4.45499 5.5784 2.58786C11.0213 -0.687247 18.0784 -1.09556 23.3979 2.76612ZM5.82897 6.87152C3.69048 9.47014 3.20483 12.1103 3.4532 15.3847C3.61029 16.1781 3.89324 16.8368 4.24513 17.5625C4.35771 17.8205 4.46952 18.0788 4.58077 18.3374C6.74628 23.2671 10.3281 27.2958 14.1442 31.0252C14.9803 30.6992 15.5443 30.081 16.1611 29.4537C16.2754 29.3381 16.3897 29.2224 16.5075 29.1033C17.506 28.0808 18.4223 27.0126 19.2917 25.8777C19.3758 25.7691 19.4599 25.6605 19.5466 25.5486C22.44 21.7963 25.8971 16.9693 25.2912 12.0056C24.8728 9.3436 23.4418 7.06819 21.2715 5.48565C16.5509 2.38419 9.82092 2.60047 5.82897 6.87152Z" fill="black"/>
<path d="M18.7373 7.52833C20.5468 8.7874 21.7826 10.4501 22.2623 12.6124C22.4195 15.2134 22.3382 17.4679 20.6173 19.5727C19.1594 21.1619 17.5383 22.228 15.3445 22.3607C12.7897 22.4221 10.7511 22.1239 8.79956 20.3337C7.23472 18.8169 6.41845 17.1342 6.36588 14.9498C6.34351 12.3028 6.89552 10.4067 8.7694 8.47338C11.4138 5.99191 15.6507 5.672 18.7373 7.52833ZM10.8103 11.2791C9.7763 12.7911 9.59195 13.934 9.78946 15.7801C10.2478 17.1426 11.1166 18.0814 12.3818 18.7483C13.6845 19.2 15.0016 19.2 16.3043 18.7483C17.5766 18.0776 18.424 17.1428 18.8966 15.7801C19.1751 14.1166 19.0062 12.8135 18.0351 11.423C17.2173 10.4347 16.3666 9.91385 15.0885 9.76721C13.3232 9.73387 11.9742 9.84886 10.8103 11.2791Z" fill="black"/>
</svg>
