<svg width="51" height="41" viewBox="0 0 51 41" fill="none" xmlns="http://www.w3.org/2000/svg">
<path d="M14.6628 0.00318808C14.7895 0.00273223 14.9162 0.00227637 15.0467 0.00180671C15.3957 0.000593966 15.7448 0.00118652 16.0939 0.0020949C16.4713 0.00275869 16.8487 0.00173423 17.2261 0.000931902C17.9645 -0.000364925 18.7029 -8.79433e-05 19.4413 0.000760266C20.0416 0.0014212 20.6419 0.00150927 21.2422 0.00119163C21.3278 0.00114685 21.4133 0.00110208 21.5015 0.00105594C21.6753 0.000962509 21.8492 0.000867769 22.023 0.000771736C23.6516 -6.07848e-05 25.2802 0.00089538 26.9089 0.00246669C28.3052 0.00377217 29.7014 0.00354538 31.0977 0.00219822C32.7207 0.000633107 34.3436 1.94682e-05 35.9666 0.000916052C36.1398 0.00100913 36.3129 0.001101 36.4861 0.00119163C36.5713 0.00123671 36.6565 0.00128179 36.7443 0.00132824C37.3436 0.00158015 37.9429 0.00115553 38.5423 0.000467066C39.273 -0.000353942 40.0038 -0.00012768 40.7345 0.00142575C41.1071 0.00219176 41.4797 0.0024978 41.8522 0.00152827C42.2567 0.000491785 42.6611 0.00173249 43.0655 0.00318808C43.1825 0.00253623 43.2994 0.00188438 43.42 0.00121277C44.6214 0.00959071 45.4752 0.271032 46.3348 1.10414C47.0232 1.8331 47.2466 2.53981 47.2459 3.53006C47.246 3.62853 47.246 3.62853 47.2461 3.729C47.2463 3.94825 47.2457 4.16749 47.2452 4.38674C47.2452 4.54419 47.2452 4.70164 47.2453 4.8591C47.2453 5.28611 47.2447 5.71312 47.244 6.14013C47.2434 6.58654 47.2433 7.03296 47.2432 7.47938C47.2429 8.32454 47.2421 9.16969 47.2411 10.0149C47.24 10.9771 47.2394 11.9394 47.2389 12.9017C47.2379 14.8809 47.2361 16.8602 47.2339 18.8395C47.334 18.8367 47.434 18.8338 47.5371 18.8309C47.6708 18.8286 47.8046 18.8264 47.9383 18.8243C48.0691 18.8214 48.1998 18.8186 48.3345 18.8157C49.1299 18.8643 49.7766 19.24 50.3183 19.8014C50.9643 20.5463 50.9518 21.3875 50.9496 22.3161C50.9503 22.45 50.9512 22.5838 50.9521 22.7177C50.9543 23.0793 50.9546 23.441 50.9544 23.8026C50.9544 24.1054 50.9553 24.4082 50.9561 24.711C50.958 25.4259 50.9583 26.1407 50.9576 26.8555C50.957 27.591 50.9592 28.3264 50.9629 29.0618C50.966 29.6951 50.9671 30.3284 50.9667 30.9616C50.9665 31.339 50.967 31.7164 50.9695 32.0938C50.9717 32.449 50.9715 32.8041 50.9695 33.1593C50.969 33.3503 50.9709 33.5414 50.973 33.7324C50.9639 34.6785 50.7312 35.3525 50.0949 36.068C49.2005 36.8612 48.1098 36.8227 46.9741 36.8206C46.8047 36.8214 46.6353 36.8222 46.4659 36.8231C46.1122 36.8246 45.7586 36.8245 45.4049 36.8235C44.9546 36.8224 44.5045 36.8257 44.0542 36.8302C43.7047 36.8331 43.3553 36.8332 43.0058 36.8326C42.84 36.8327 42.6741 36.8337 42.5083 36.8357C41.4828 36.8465 40.6552 36.7856 39.7867 36.1776C39.0671 35.4801 38.7816 34.7402 38.76 33.7525C38.76 33.4932 38.7616 33.2343 38.7647 32.975C38.7652 32.8365 38.7657 32.698 38.766 32.5595C38.7671 32.1977 38.77 31.836 38.7733 31.4743C38.7769 31.0388 38.7783 30.6032 38.78 30.1677C38.7829 29.5086 38.7886 28.8495 38.7938 28.1904C36.926 28.1904 35.0583 28.1904 33.1339 28.1904C33.1339 29.3154 33.1339 30.4404 33.1339 31.5996C33.9613 31.5803 33.9613 31.5803 34.7885 31.5557C35.7406 31.5445 35.7406 31.5445 36.043 31.8233C36.2649 32.1688 36.279 32.3672 36.2121 32.7684C35.9918 33.0516 35.8626 33.1424 35.517 33.2554C35.338 33.2649 35.1587 33.2686 34.9794 33.2691C34.8677 33.2697 34.7561 33.2702 34.6411 33.2708C34.5185 33.2709 34.3959 33.271 34.2696 33.2711C34.0761 33.2719 34.0761 33.2719 33.8787 33.2726C33.5246 33.2739 33.1705 33.2745 32.8163 33.2749C32.5951 33.2752 32.3739 33.2756 32.1526 33.2761C31.4604 33.2774 30.7681 33.2783 30.0759 33.2787C29.2768 33.2791 28.4778 33.2809 27.6787 33.2837C27.061 33.2858 26.4433 33.2868 25.8256 33.2869C25.4567 33.287 25.0878 33.2876 24.7189 33.2893C24.3074 33.2912 23.8959 33.2908 23.4844 33.2902C23.3622 33.2911 23.2401 33.292 23.1142 33.2929C23.002 33.2923 22.8898 33.2918 22.7742 33.2912C22.6283 33.2914 22.6283 33.2914 22.4794 33.2917C22.1585 33.2483 21.9749 33.1502 21.7149 32.9632C21.5163 32.671 21.5163 32.671 21.5349 32.3301C21.6127 32.0011 21.6422 31.8885 21.9134 31.697C22.1778 31.5673 22.3789 31.5886 22.6745 31.59C22.7748 31.5903 22.8751 31.5905 22.9784 31.5908C23.1062 31.5917 23.234 31.5925 23.3657 31.5935C23.9739 31.5965 23.9739 31.5965 24.5944 31.5996C24.5944 30.4745 24.5944 29.3495 24.5944 28.1904C22.7922 28.1904 20.99 28.1904 19.1332 28.1904C19.1366 28.8682 19.1401 29.5459 19.1436 30.2442C19.1452 30.6748 19.1466 31.1054 19.1477 31.536C19.1495 32.2188 19.1516 32.9015 19.1556 33.5842C19.1589 34.135 19.1606 34.6857 19.1614 35.2364C19.162 35.446 19.163 35.6556 19.1647 35.8653C19.1668 36.1599 19.1671 36.4546 19.167 36.7492C19.168 36.835 19.1691 36.9207 19.1702 37.0091C19.1648 38.0886 18.7963 39.0686 18.0626 39.8797C17.3084 40.5802 16.3609 40.96 15.326 40.9648C15.2209 40.9655 15.1158 40.9662 15.0076 40.9669C14.8362 40.9673 14.8362 40.9673 14.6613 40.9677C14.5402 40.9683 14.419 40.969 14.2942 40.9696C13.8932 40.9715 13.4922 40.9727 13.0912 40.9737C12.9527 40.974 12.8141 40.9744 12.6755 40.9749C12.024 40.9767 11.3726 40.9781 10.7211 40.9789C9.9717 40.9799 9.22236 40.9824 8.473 40.9864C7.89212 40.9893 7.31126 40.9907 6.73038 40.9911C6.38425 40.9913 6.03815 40.9921 5.69203 40.9946C5.30494 40.9973 4.91789 40.9969 4.5308 40.9962C4.36152 40.9981 4.36152 40.9981 4.18881 41C2.93948 40.9921 1.98205 40.6374 1.07447 39.8067C-0.00832634 38.708 -0.00395188 37.4428 0.00407668 36.0096C0.00340293 35.8069 0.00251838 35.6042 0.00144034 35.4016C-0.000812862 34.854 4.99829e-05 34.3064 0.00162821 33.7588C0.00289042 33.1841 0.00171834 32.6094 0.000940343 32.0347C3.86085e-05 31.0698 0.00122348 30.105 0.00359183 29.1401C0.0062935 28.0266 0.0054189 26.9132 0.00268578 25.7997C0.000428446 24.8415 0.000115883 23.8833 0.00141307 22.9251C0.00218472 22.3538 0.00229755 21.7825 0.000650951 21.2112C-0.000789539 20.6739 0.000221935 20.1366 0.00307972 19.5994C0.00373284 19.4029 0.00355456 19.2064 0.00245396 19.0099C-0.00481184 17.5804 0.129785 16.439 1.18656 15.3588C2.0277 14.6761 2.97058 14.3459 4.05774 14.3478C4.12754 14.3478 4.19734 14.3478 4.26926 14.3477C4.49867 14.3478 4.72808 14.3486 4.95748 14.3493C5.11706 14.3495 5.27664 14.3497 5.43622 14.3498C5.85526 14.3501 6.27429 14.3511 6.69333 14.3522C7.12131 14.3532 7.5493 14.3536 7.97729 14.3541C8.81633 14.3551 9.65536 14.3568 10.4944 14.3588C10.494 14.3001 10.4937 14.2413 10.4933 14.1808C10.4845 12.7474 10.4779 11.3139 10.4738 9.88044C10.4718 9.18721 10.469 8.49399 10.4644 7.80077C10.4605 7.19613 10.4579 6.59151 10.457 5.98687C10.4565 5.66708 10.4551 5.34734 10.4524 5.02757C10.4495 4.66946 10.4491 4.31143 10.4493 3.95331C10.4479 3.84878 10.4465 3.74424 10.445 3.63654C10.4504 2.65353 10.69 1.80899 11.397 1.09044C12.3935 0.178835 13.3166 -0.00431431 14.6628 0.00318808ZM12.4475 2.35212C12.1665 2.80743 12.0706 3.19956 12.0712 3.72307C12.0711 3.81704 12.0709 3.91101 12.0708 4.00783C12.0711 4.11026 12.0715 4.21269 12.0719 4.31822C12.0719 4.42659 12.0718 4.53495 12.0718 4.64659C12.0719 5.00498 12.0727 5.36337 12.0734 5.72175C12.0736 5.97015 12.0738 6.21856 12.0739 6.46696C12.0742 7.05408 12.075 7.64121 12.076 8.22833C12.0771 8.89686 12.0776 9.56538 12.0781 10.2339C12.0792 11.6089 12.0809 12.9839 12.0831 14.3588C12.2497 14.3602 12.2497 14.3602 12.4197 14.3616C12.8373 14.3655 13.2547 14.3719 13.6722 14.3791C13.8519 14.3818 14.0316 14.3839 14.2113 14.3852C15.6055 14.3966 16.8225 14.4677 17.9226 15.4048C19.6112 17.1144 19.0836 19.8174 19.1332 21.9564C25.6212 21.9564 32.1092 21.9564 38.7938 21.9564C38.8593 21.5707 38.9248 21.185 38.9924 20.7876C39.3401 19.9525 39.8722 19.3891 40.7326 19.0258C41.2023 18.9048 41.6512 18.9022 42.1349 18.8966C42.2857 18.8937 42.2857 18.8937 42.4396 18.8908C42.7593 18.885 43.0789 18.8805 43.3986 18.876C43.616 18.8723 43.8333 18.8685 44.0506 18.8646C44.5821 18.8553 45.1137 18.847 45.6452 18.8395C45.6498 16.8463 45.6533 14.8532 45.6555 12.86C45.6565 11.9345 45.6579 11.0091 45.6602 10.0836C45.6622 9.27679 45.6634 8.47 45.6639 7.66321C45.6641 7.23615 45.6647 6.80909 45.6662 6.38203C45.6675 5.97973 45.668 5.57743 45.6677 5.17513C45.6677 5.02781 45.6681 4.88049 45.6689 4.73317C45.7177 3.39269 45.7177 3.39269 45.1115 2.24409C45.0534 2.18105 44.9953 2.11802 44.9354 2.05308C44.5815 1.74107 44.2956 1.67181 43.8239 1.67085C43.7156 1.67016 43.6074 1.66947 43.4959 1.66876C43.3177 1.66912 43.3177 1.66912 43.1358 1.66948C43.0095 1.66897 42.8832 1.66846 42.7531 1.66793C42.4023 1.66655 42.0515 1.66639 41.7007 1.66643C41.3225 1.66627 40.9442 1.665 40.566 1.66388C39.7388 1.66165 38.9116 1.66088 38.0844 1.66039C37.5679 1.66007 37.0514 1.65944 36.5349 1.65873C35.1049 1.65683 33.6749 1.65523 32.2449 1.65495C32.1533 1.65493 32.0618 1.65491 31.9675 1.65489C31.782 1.65486 31.5964 1.65482 31.4109 1.65479C31.2727 1.65476 31.2727 1.65476 31.1318 1.65473C31.0396 1.65471 30.9473 1.6547 30.8523 1.65468C29.3581 1.65433 27.8638 1.6517 26.3696 1.64806C24.8355 1.64435 23.3014 1.64246 21.7673 1.64244C20.906 1.64238 20.0446 1.64155 19.1833 1.63873C18.4498 1.63635 17.7164 1.63564 16.9829 1.6371C16.6087 1.6378 16.2346 1.63772 15.8605 1.6355C15.4546 1.63313 15.0488 1.63453 14.643 1.6363C14.525 1.63502 14.4071 1.63373 14.2855 1.63241C13.539 1.63985 12.9245 1.74236 12.4475 2.35212ZM2.16595 16.7818C2.08339 16.8748 2.08339 16.8748 1.99916 16.9698C1.65917 17.4763 1.62793 17.9916 1.62983 18.5824C1.62931 18.663 1.62879 18.7435 1.62826 18.8265C1.62677 19.0957 1.6267 19.3649 1.62663 19.634C1.62587 19.8273 1.62504 20.0207 1.62413 20.214C1.62195 20.7387 1.62107 21.2633 1.62057 21.788C1.62021 22.116 1.61959 22.444 1.61888 22.772C1.61645 23.9169 1.61515 25.0618 1.6148 26.2066C1.61444 27.2729 1.61147 28.339 1.60731 29.4052C1.60387 30.3214 1.60233 31.2376 1.60226 32.1537C1.60219 32.7006 1.60132 33.2474 1.59849 33.7942C1.59589 34.3088 1.59568 34.8233 1.59727 35.3379C1.59745 35.5263 1.59678 35.7147 1.5952 35.9031C1.5692 37.4215 1.5692 37.4215 2.33366 38.7019C2.79068 39.1233 3.23834 39.3183 3.87065 39.3206C3.97463 39.3214 4.0786 39.3223 4.18572 39.3231C4.29875 39.323 4.41177 39.3229 4.52823 39.3229C4.64809 39.3235 4.76794 39.3242 4.89143 39.3248C5.2195 39.3264 5.54754 39.327 5.87561 39.3271C6.08086 39.3273 6.2861 39.3277 6.49134 39.3282C7.20819 39.33 7.92503 39.3308 8.64189 39.3307C9.30876 39.3305 9.9756 39.3326 10.6425 39.3357C11.2161 39.3382 11.7897 39.3393 12.3633 39.3391C12.7054 39.3391 13.0475 39.3396 13.3896 39.3417C13.7716 39.3439 14.1535 39.3431 14.5354 39.3419C14.6478 39.343 14.7603 39.3441 14.8761 39.3452C15.6806 39.3389 16.202 39.1854 16.8245 38.6858C17.321 38.0906 17.5046 37.5563 17.4962 36.7934C17.4973 36.6712 17.4973 36.6712 17.4983 36.5464C17.5001 36.2751 17.4991 36.0039 17.4981 35.7327C17.4988 35.5374 17.4997 35.3421 17.5007 35.1469C17.5029 34.6178 17.5026 34.0887 17.5017 33.5596C17.5012 33.1174 17.502 32.6751 17.5027 32.2329C17.5044 31.1893 17.504 30.1457 17.5024 29.1021C17.5007 28.0267 17.5023 26.9514 17.5055 25.876C17.5081 24.9515 17.5088 24.0271 17.508 23.1026C17.5075 22.551 17.5077 21.9994 17.5098 21.4478C17.5116 20.9289 17.511 20.4101 17.5085 19.8912C17.508 19.7012 17.5084 19.5112 17.5097 19.3213C17.5404 17.9312 17.5404 17.9312 16.9486 16.6966C16.727 16.4739 16.727 16.4739 16.4832 16.3496C16.369 16.2831 16.369 16.2831 16.2524 16.2152C15.9241 16.0438 15.7372 16.0021 15.3629 16.0004C15.2063 15.9994 15.2063 15.9994 15.0465 15.9983C14.9315 15.998 14.8165 15.9978 14.698 15.9975C14.5772 15.9969 14.4564 15.9962 14.3319 15.9956C13.9307 15.9936 13.5294 15.9925 13.1281 15.9915C12.9898 15.9911 12.8516 15.9907 12.7134 15.9903C12.0636 15.9885 11.4138 15.9871 10.764 15.9863C10.0147 15.9853 9.2655 15.9828 8.51624 15.9788C7.93673 15.9759 7.35722 15.9744 6.7777 15.9741C6.43181 15.9739 6.08594 15.973 5.74005 15.9706C5.35356 15.9679 4.96711 15.9683 4.58062 15.969C4.40988 15.9671 4.40988 15.9671 4.2357 15.9652C3.39277 15.9705 2.7338 16.1182 2.16595 16.7818ZM40.637 20.9702C40.4151 21.4055 40.3702 21.7902 40.3686 22.2728C40.368 22.3739 40.3674 22.4749 40.3668 22.579C40.3667 22.6888 40.3666 22.7986 40.3665 22.9118C40.366 23.0282 40.3655 23.1447 40.365 23.2647C40.3638 23.5835 40.3631 23.9023 40.3626 24.2211C40.3623 24.4206 40.3619 24.6201 40.3615 24.8196C40.3601 25.4448 40.3592 26.07 40.3588 26.6952C40.3583 27.4151 40.3566 28.1349 40.3537 28.8548C40.3516 29.4125 40.3506 29.9701 40.3504 30.5277C40.3503 30.8602 40.3498 31.1927 40.348 31.5252C40.3463 31.8966 40.3465 32.2679 40.3471 32.6393C40.3462 32.7484 40.3453 32.8574 40.3443 32.9697C40.3483 33.7002 40.3789 34.4207 40.9286 34.96C41.3378 35.2009 41.6495 35.2166 42.119 35.2192C42.1839 35.2197 42.2488 35.2202 42.3157 35.2207C42.5305 35.2221 42.7452 35.2228 42.9599 35.2233C43.1095 35.2239 43.259 35.2244 43.4085 35.225C43.7221 35.226 44.0357 35.2266 44.3493 35.2269C44.7503 35.2275 45.1513 35.2298 45.5523 35.2326C45.8613 35.2344 46.1702 35.2349 46.4792 35.2351C46.627 35.2354 46.7748 35.2361 46.9225 35.2374C47.1298 35.2391 47.3369 35.2389 47.5442 35.2383C47.6619 35.2386 47.7796 35.239 47.9009 35.2393C48.3945 35.1851 48.7164 35.0241 49.0523 34.6678C49.2999 34.308 49.3318 34.0403 49.3338 33.6165C49.3345 33.5095 49.3352 33.4026 49.3359 33.2924C49.3362 33.1751 49.3365 33.0578 49.3367 32.9368C49.3374 32.8133 49.338 32.6897 49.3387 32.5624C49.3408 32.1526 49.3418 31.7427 49.3428 31.3328C49.3432 31.1916 49.3436 31.0504 49.344 30.9093C49.3459 30.2459 49.3473 29.5826 49.3482 28.9193C49.3491 28.154 49.3518 27.3887 49.3558 26.6234C49.3588 26.0316 49.3602 25.4398 49.3606 24.848C49.3608 24.4946 49.3617 24.1413 49.3642 23.788C49.3669 23.3937 49.3665 22.9994 49.3658 22.6051C49.3671 22.4883 49.3684 22.3715 49.3697 22.2513C49.3657 21.6367 49.3492 21.2519 48.922 20.7876C48.4836 20.3979 48.0792 20.3857 47.5026 20.3823C47.376 20.3813 47.2494 20.3804 47.1189 20.3794C46.9809 20.379 46.8429 20.3785 46.7049 20.3782C46.5626 20.3776 46.4204 20.3771 46.2782 20.3765C45.98 20.3755 45.6819 20.3749 45.3837 20.3746C45.0033 20.374 44.623 20.3717 44.2426 20.3689C43.9487 20.3671 43.6548 20.3666 43.3609 20.3664C43.2208 20.3662 43.0806 20.3654 42.9405 20.3641C41.6602 20.3199 41.6602 20.3199 40.637 20.9702ZM19.1332 23.5149C19.1332 24.5435 19.1332 25.5721 19.1332 26.6319C25.6212 26.6319 32.1092 26.6319 38.7938 26.6319C38.7938 25.6033 38.7938 24.5747 38.7938 23.5149C32.3058 23.5149 25.8178 23.5149 19.1332 23.5149ZM26.1832 28.1904C26.1832 29.3154 26.1832 30.4404 26.1832 31.5996C27.9199 31.5996 29.6565 31.5996 31.4459 31.5996C31.4459 30.4745 31.4459 29.3495 31.4459 28.1904C29.7092 28.1904 27.9725 28.1904 26.1832 28.1904Z" fill="#626262"/>
</svg>
