<svg width="93" height="93" viewBox="0 0 93 93" fill="none" xmlns="http://www.w3.org/2000/svg">
<path d="M50.8327 5.46368C50.9743 5.45994 51.116 5.45621 51.262 5.45235C52.2353 5.44585 52.9048 5.59206 53.7664 6.0527C54.1779 6.54383 54.2953 6.85954 54.3894 7.49127C54.2891 8.19355 54.0217 8.58173 53.5852 9.13373C52.8227 9.51497 51.829 9.36458 50.9912 9.3716C50.7844 9.37686 50.5775 9.38212 50.3643 9.38753C48.8353 9.39915 48.8353 9.39915 48.1063 8.97161C47.6068 8.37723 47.5321 7.94094 47.5407 7.15924C47.6557 6.47005 48.005 6.16129 48.5106 5.69023C49.2674 5.43456 50.0422 5.46882 50.8327 5.46368Z" fill="black"/>
<path d="M8.45551 0.024625C8.65014 0.0239316 8.84478 0.0232383 9.0453 0.022524C9.69431 0.0206611 10.3433 0.0213735 10.9923 0.0220946C11.4589 0.0213063 11.9255 0.0203668 12.3921 0.0192876C13.5261 0.0169826 14.6601 0.0166517 15.7941 0.0170766C16.7163 0.0174004 17.6385 0.0170814 18.5607 0.016311C18.6922 0.0162031 18.8237 0.0160952 18.9591 0.0159841C19.2263 0.0157645 19.4935 0.0155444 19.7606 0.015324C22.2635 0.0133549 24.7663 0.0137439 27.2692 0.01485C29.556 0.0157867 31.8428 0.013747 34.1296 0.0103013C36.481 0.00678559 38.8324 0.00529353 41.1837 0.00597393C42.5026 0.00631991 43.8214 0.00587492 45.1402 0.00330711C46.3805 0.000916375 47.6209 0.00138114 48.8612 0.00374405C49.3157 0.00417243 49.7702 0.00367859 50.2247 0.00218122C50.8466 0.000280607 51.4683 0.0017552 52.0902 0.00404998C52.2687 0.00271348 52.4473 0.00137699 52.6312 0C54.9276 0.0177467 56.8988 0.727034 58.6141 2.26937C60.4551 4.24094 60.7119 6.7082 60.6884 9.27672C60.6877 9.59872 60.6877 9.59872 60.6869 9.92722C60.6849 10.6067 60.6803 11.2861 60.6757 11.9655C60.6739 12.4288 60.6722 12.892 60.6707 13.3553C60.6668 14.4854 60.6607 15.6155 60.653 16.7457C60.7529 16.7448 60.8527 16.744 60.9555 16.7431C63.3928 16.7231 65.8301 16.7082 68.2675 16.6987C69.4462 16.694 70.6249 16.6876 71.8036 16.6773C72.9423 16.6674 74.081 16.662 75.2197 16.6597C75.653 16.658 76.0862 16.6548 76.5194 16.6499C79.4062 16.6184 81.6819 16.5991 83.8691 18.723C85.7706 20.812 85.7484 23.3934 85.7423 26.0673C85.7432 26.3877 85.7441 26.7081 85.7452 27.0285C85.7468 27.6967 85.7464 28.3649 85.7446 29.0332C85.7425 29.8834 85.7462 30.7335 85.7514 31.5837C85.7548 32.2444 85.7547 32.905 85.7537 33.5657C85.7537 33.8789 85.7547 34.1921 85.757 34.5053C85.7723 36.955 85.6355 39.3429 83.8514 41.2126C82.489 42.5879 81.0513 43.1618 79.1392 43.3875C78.9 43.3875 78.6607 43.3875 78.4143 43.3875C78.4741 45.8994 78.5339 48.4114 78.5955 50.9994C80.8237 51.0445 80.8237 51.0445 83.0519 51.0861C85.9731 51.147 88.6374 51.2927 90.897 53.3782C92.1621 54.733 92.9277 56.3683 92.9453 58.2184C92.9476 58.4315 92.95 58.6446 92.9523 58.8641C92.9544 59.2093 92.9544 59.2093 92.9564 59.5615C92.9579 59.7998 92.9593 60.0382 92.9608 60.2837C92.9636 60.7892 92.9653 61.2947 92.9667 61.8002C92.9687 62.4408 92.9749 63.0812 92.9821 63.7218C92.9869 64.22 92.9884 64.7182 92.9891 65.2165C92.9903 65.5652 92.9951 65.9138 93 66.2625C92.9925 69.363 91.9762 71.8888 89.8655 74.1347C88.4643 75.6412 87.992 76.8671 87.8386 78.9099C88.0236 78.966 88.0236 78.966 88.2124 79.0232C89.3274 79.5451 90.1122 80.2854 90.5571 81.4472C90.696 82.0406 90.7628 82.5957 90.7705 83.2043C90.7728 83.3677 90.7751 83.531 90.7775 83.6993C90.7795 83.9607 90.7795 83.9607 90.7816 84.2274C90.783 84.4086 90.7845 84.5898 90.786 84.7764C90.7885 85.1589 90.7904 85.5414 90.7919 85.924C90.794 86.3147 90.7977 86.7054 90.803 87.0962C90.8107 87.6616 90.8137 88.2268 90.8155 88.7923C90.8187 88.9662 90.8219 89.1401 90.8252 89.3193C90.8218 90.3466 90.7306 90.9808 90.0134 91.7777C89.453 92.1279 89.0235 92.1859 88.368 92.1875C88.0894 92.1894 88.0894 92.1894 87.8052 92.1914C87.6024 92.1909 87.3997 92.1905 87.1908 92.19C86.8694 92.1914 86.8694 92.1914 86.5414 92.1928C85.9543 92.1949 85.3671 92.1953 84.78 92.1949C84.2895 92.1947 83.799 92.1956 83.3086 92.1964C82.1513 92.1984 80.994 92.1985 79.8368 92.1974C78.6436 92.1963 77.4504 92.1986 76.2572 92.2024C75.2321 92.2056 74.207 92.2067 73.1819 92.2061C72.57 92.2058 71.958 92.2063 71.3461 92.2088C70.6636 92.211 69.9812 92.2098 69.2987 92.2077C69.0963 92.2091 68.8939 92.2105 68.6855 92.2119C68.4992 92.2106 68.313 92.2093 68.1211 92.208C67.9598 92.2081 67.7985 92.2081 67.6324 92.2081C67.0731 92.1246 66.7304 91.921 66.2714 91.5965C65.9075 91.0667 65.8626 90.6314 65.8591 89.9971C65.8574 89.824 65.8557 89.6509 65.8539 89.4726C65.8542 89.1937 65.8542 89.1937 65.8544 88.9091C65.8536 88.7164 65.8529 88.5238 65.8521 88.3253C65.851 87.9176 65.8509 87.51 65.8517 87.1023C65.8523 86.4814 65.848 85.8606 65.8434 85.2398C65.843 84.8431 65.8429 84.4464 65.8431 84.0497C65.8406 83.7729 65.8406 83.7729 65.838 83.4906C65.8462 82.2258 65.9839 81.1751 66.7578 80.1283C66.8627 80.029 66.9676 79.9297 67.0756 79.8274C67.2323 79.6736 67.2323 79.6736 67.3921 79.5166C67.7457 79.2543 68.0158 79.1659 68.4462 79.0912C68.4302 78.7285 68.4106 78.3661 68.3896 78.0037C68.3791 77.8019 68.3686 77.6 68.3577 77.3921C68.1607 75.9966 67.6453 75.0784 66.7018 74.0505C66.5051 73.8286 66.3085 73.6065 66.1121 73.3843C66.0156 73.2762 65.9191 73.1682 65.8196 73.0568C65.1596 72.3104 64.5401 71.5301 63.9153 70.7543C63.8332 70.6542 63.7511 70.5542 63.6666 70.4512C61.3534 67.6323 60.3703 65.1378 60.391 61.465C60.3925 61.0466 60.3873 60.6287 60.3815 60.2103C60.3711 58.0065 60.717 56.0902 62.2842 54.4429C64.0226 52.8127 65.2706 52.6306 67.7213 52.6306C67.7213 49.5804 67.7213 46.5301 67.7213 43.3875C65.3888 43.3875 63.0563 43.3875 60.653 43.3875C60.653 43.866 60.653 44.3444 60.653 44.8374C60.5067 46.647 59.7757 48.4333 58.4782 49.7308C56.6671 51.2411 54.7484 51.8374 52.407 51.8164C52.2091 51.8176 52.0112 51.8187 51.8072 51.8199C51.1503 51.8227 50.4935 51.8205 49.8365 51.8182C49.363 51.8192 48.8895 51.8205 48.4159 51.822C47.267 51.8252 46.1182 51.8246 44.9693 51.8225C44.0349 51.8208 43.1006 51.8206 42.1662 51.8214C42.0328 51.8215 41.8994 51.8216 41.762 51.8217C41.491 51.822 41.22 51.8222 40.949 51.8224C38.4122 51.8245 35.8755 51.8221 33.3388 51.8182C31.1658 51.815 28.9929 51.8156 26.8199 51.8189C24.2918 51.8228 21.7636 51.8243 19.2355 51.8221C18.9655 51.8219 18.6955 51.8216 18.4256 51.8214C18.2927 51.8213 18.1599 51.8212 18.0231 51.8211C17.0907 51.8204 16.1583 51.8215 15.2259 51.8232C13.9692 51.8254 12.7125 51.8238 11.4557 51.8196C10.9955 51.8187 10.5352 51.819 10.0749 51.8206C9.44481 51.8226 8.81485 51.82 8.18473 51.8164C7.91403 51.8189 7.91403 51.8189 7.63786 51.8213C5.41614 51.7969 3.69632 51.0593 2.09725 49.5559C-0.00783142 47.3881 -0.0116304 45.0427 0.0055477 42.1974C0.00461522 41.8039 0.00329478 41.4104 0.00161799 41.0169C-0.00172499 39.9535 0.000599841 38.8901 0.00417189 37.8266C0.00715185 36.7111 0.0055429 35.5955 0.00462128 34.4799C0.00380311 32.607 0.0066709 30.7342 0.0117423 28.8614C0.0175523 26.6992 0.0175475 24.5371 0.0144221 22.375C0.0115425 20.2908 0.0127692 18.2066 0.0158601 16.1224C0.0171024 15.2372 0.0169218 14.3522 0.0155808 13.467C0.0141878 12.4241 0.0164036 11.3811 0.021353 10.3382C0.0225963 9.95646 0.0226226 9.57472 0.0213136 9.193C0.0127667 6.37513 0.204644 4.17711 2.27353 2.08247C4.09989 0.392196 6.02455 0.015341 8.45551 0.024625ZM4.46961 5.32774C3.64208 6.61184 3.71771 8.11076 3.73334 9.58681C3.73416 9.73586 3.73497 9.88492 3.73582 10.0385C3.73793 10.4014 3.74118 10.7644 3.74466 11.1273C3.92829 11.1362 4.11192 11.1451 4.30112 11.1542C4.54608 11.1678 4.79103 11.1815 5.03598 11.1953C5.2168 11.2037 5.2168 11.2037 5.40128 11.2123C6.17202 11.2576 6.84109 11.3615 7.55064 11.671C7.9329 12.2444 7.97539 12.444 7.9924 13.1096C7.99965 13.2645 8.00689 13.4194 8.01435 13.579C7.91311 14.0271 7.91311 14.0271 7.55918 14.4091C6.80881 14.8751 6.18624 14.8729 5.31916 14.888C5.16765 14.8934 5.01615 14.8987 4.86005 14.9043C4.48835 14.917 4.11651 14.9256 3.74466 14.9333C3.73619 18.7332 3.7298 22.5332 3.72588 26.3331C3.72402 28.0976 3.72147 29.8621 3.71732 31.6265C3.7137 33.1648 3.71137 34.703 3.71056 36.2413C3.71009 37.0555 3.70898 37.8696 3.70634 38.6838C3.70387 39.4509 3.70312 40.2181 3.70367 40.9852C3.70357 41.266 3.70285 41.5467 3.70146 41.8275C3.59414 44.4469 3.59414 44.4469 4.68483 46.7177C4.78459 46.8313 4.88435 46.9448 4.98713 47.0618C6.10822 47.9644 7.1995 47.9971 8.58306 47.9887C8.77628 47.9896 8.96951 47.9906 9.16859 47.9916C9.81499 47.9942 10.4613 47.9929 11.1077 47.9916C11.5716 47.9927 12.0355 47.9939 12.4993 47.9954C13.6279 47.9983 14.7564 47.9987 15.8849 47.9977C16.8024 47.997 17.7198 47.9973 18.6373 47.9982C18.8333 47.9984 18.8333 47.9984 19.0333 47.9986C19.2988 47.9989 19.5644 47.9992 19.8299 47.9995C22.3185 48.002 24.8072 48.001 27.2958 47.9989C29.5713 47.9971 31.8468 47.9994 34.1223 48.0038C36.4604 48.0082 38.7984 48.0099 41.1364 48.0087C42.4485 48.0081 43.7605 48.0085 45.0725 48.0117C46.3061 48.0146 47.5397 48.0138 48.7734 48.0104C49.2261 48.0097 49.6788 48.0103 50.1314 48.0121C50.7496 48.0145 51.3675 48.0125 51.9857 48.0092C52.2541 48.0119 52.2541 48.0119 52.528 48.0145C53.8137 48.0008 54.766 47.7162 55.7639 46.8897C56.681 45.7791 56.8642 44.8219 56.8471 43.3875C56.6609 43.3609 56.4747 43.3342 56.2828 43.3068C54.1489 42.9735 52.3488 42.442 50.9448 40.6845C50.0209 39.3401 49.7524 38.2081 49.7439 36.5865C49.7417 36.3529 49.7417 36.3529 49.7394 36.1147C49.7349 35.5995 49.7319 35.0844 49.7293 34.5692C49.7283 34.3926 49.7274 34.216 49.7264 34.0341C49.7215 33.0986 49.718 32.163 49.7154 31.2274C49.713 30.4561 49.7079 29.6848 49.7005 28.9135C49.6915 27.9796 49.6871 27.0458 49.6858 26.1118C49.6846 25.7575 49.6819 25.4032 49.6775 25.0489C49.6501 22.6893 49.7224 20.4753 51.4461 18.6536C53.0989 17.2518 54.7355 16.8755 56.8471 16.7457C56.8471 16.1476 56.8471 15.5495 56.8471 14.9333C56.6583 14.933 56.4695 14.9328 56.275 14.9325C51.6844 14.9259 47.0938 14.9151 42.5031 14.9C40.2832 14.8927 38.0632 14.8869 35.8432 14.8842C33.9085 14.8818 31.9739 14.877 30.0393 14.869C29.0146 14.8649 27.99 14.8621 26.9654 14.8623C26.0012 14.8624 25.0372 14.8592 24.0731 14.8533C23.719 14.8518 23.3649 14.8515 23.0107 14.8525C22.5276 14.8537 22.0448 14.8505 21.5617 14.8461C21.3509 14.8482 21.3509 14.8482 21.1359 14.8504C20.4681 14.8397 20.0861 14.771 19.5159 14.4113C19.1498 14.0271 19.1498 14.0271 19.0358 13.5853C19.0682 12.3342 19.0682 12.3342 19.467 11.7503C20.2834 11.2287 21.1186 11.2811 22.063 11.2799C22.2859 11.2785 22.2859 11.2785 22.5134 11.2772C23.0121 11.2744 23.5107 11.2729 24.0094 11.2713C24.3666 11.2696 24.7238 11.2678 25.081 11.2659C26.0516 11.261 27.0221 11.2572 27.9926 11.2536C29.0066 11.2496 30.0205 11.2447 31.0345 11.2398C32.955 11.2308 34.8754 11.2226 36.7959 11.2148C38.9821 11.2058 41.1683 11.1959 43.3545 11.1858C47.852 11.1652 52.3495 11.1459 56.8471 11.1273C56.863 10.493 56.8726 9.85878 56.8811 9.22434C56.8856 9.04631 56.8902 8.86829 56.8949 8.68487C56.9086 7.30873 56.742 6.08941 55.8163 4.99925C55.7371 4.90089 55.6579 4.80254 55.5763 4.7012C54.4452 3.82343 53.1865 3.79946 51.8182 3.80881C51.5302 3.80753 51.5302 3.80753 51.2363 3.80624C50.595 3.80407 49.9539 3.80578 49.3126 3.80749C48.852 3.80676 48.3914 3.80579 47.9308 3.80461C46.8109 3.80239 45.6911 3.80271 44.5712 3.80429C43.6609 3.80552 42.7507 3.80568 41.8404 3.80509C41.7107 3.80501 41.5809 3.80492 41.4473 3.80484C41.1838 3.80466 40.9202 3.80449 40.6567 3.80431C38.1876 3.80276 35.7185 3.80454 33.2494 3.80746C31.1319 3.80989 29.0144 3.80947 26.8968 3.80696C24.4361 3.80405 21.9753 3.80291 19.5146 3.80458C19.2521 3.80475 18.9896 3.80492 18.7271 3.80509C18.598 3.80517 18.4688 3.80526 18.3358 3.80534C17.4267 3.80581 16.5177 3.80502 15.6087 3.80374C14.3848 3.80206 13.161 3.80326 11.9372 3.8064C11.4879 3.80712 11.0387 3.80692 10.5894 3.80572C9.97644 3.80423 9.36353 3.80609 8.75053 3.80881C8.57258 3.80759 8.39462 3.80638 8.21127 3.80513C6.64732 3.81856 5.61729 4.20615 4.46961 5.32774ZM53.8524 21.593C53.3097 22.6709 53.1997 23.5306 53.196 24.7292C53.1954 24.8542 53.1948 24.9793 53.1942 25.1082C53.1925 25.5199 53.1921 25.9317 53.1919 26.3434C53.1913 26.6312 53.1907 26.919 53.1901 27.2068C53.189 27.8096 53.1886 28.4125 53.1888 29.0153C53.1888 29.7849 53.1863 30.5546 53.1832 31.3242C53.1812 31.9186 53.1808 32.513 53.1809 33.1075C53.1807 33.3911 53.1799 33.6747 53.1785 33.9583C53.1164 36.3598 53.1164 36.3598 53.9699 38.5507C55.3176 39.8105 56.92 39.6545 58.6594 39.6346C58.9215 39.6336 59.1835 39.6328 59.4456 39.6323C60.1309 39.6302 60.8161 39.6249 61.5014 39.6188C62.2024 39.6133 62.9035 39.6108 63.6045 39.6081C64.9768 39.6023 66.349 39.593 67.7213 39.5815C67.757 39.4315 67.7927 39.2815 67.8295 39.1269C67.8772 38.9304 67.9249 38.734 67.974 38.5316C68.0209 38.3367 68.0679 38.1418 68.1162 37.941C68.472 36.6632 69.3787 35.797 70.4398 35.0506C71.8023 34.3534 73.2911 34.2897 74.7442 34.7334C75.9912 35.2068 76.9526 35.9303 77.6893 37.0442C78.0484 37.8556 78.273 38.706 78.4143 39.5815C79.4728 39.5085 80.1138 39.3798 80.9516 38.6753C81.7057 37.6766 81.885 36.9476 81.887 35.7244C81.8879 35.5906 81.8888 35.4567 81.8897 35.3188C81.8923 34.8756 81.8936 34.4325 81.8946 33.9894C81.8956 33.6807 81.8967 33.3721 81.8977 33.0635C81.8996 32.4158 81.9007 31.7682 81.9013 31.1205C81.9023 30.2931 81.9066 29.4658 81.9118 28.6385C81.9152 28.0005 81.9161 27.3626 81.9164 26.7246C81.917 26.4198 81.9184 26.1149 81.9208 25.8101C81.9239 25.382 81.9235 24.9541 81.9224 24.526C81.9249 24.3393 81.9249 24.3393 81.9274 24.1489C81.919 23.157 81.7404 22.1117 81.0573 21.3545C80.2854 20.688 79.6977 20.5293 78.7041 20.525C78.3992 20.523 78.3992 20.523 78.0882 20.521C77.7534 20.5203 77.7534 20.5203 77.412 20.5196C77.1771 20.5184 76.9421 20.5172 76.7001 20.516C75.9207 20.5121 75.1413 20.5103 74.3619 20.5085C74.0934 20.5077 73.8248 20.507 73.5563 20.5062C72.2945 20.5028 71.0328 20.5002 69.771 20.4987C68.3156 20.4969 66.8603 20.4921 65.4049 20.4848C64.2793 20.4793 63.1537 20.4767 62.0281 20.4761C61.3562 20.4756 60.6843 20.474 60.0123 20.4695C59.2622 20.4644 58.5121 20.4652 57.7619 20.4665C57.5403 20.4641 57.3186 20.4618 57.0902 20.4594C55.7701 20.4675 54.7684 20.5431 53.8524 21.593ZM71.7552 38.7062C71.2605 39.4259 71.3814 40.329 71.3929 41.1698C71.3916 41.3856 71.3902 41.6014 71.3889 41.8238C71.3862 42.4144 71.3883 43.0047 71.3923 43.5953C71.3954 44.2143 71.392 44.8332 71.3892 45.4522C71.3849 46.6248 71.3857 47.7974 71.3887 48.9701C71.3939 51.0691 71.3902 53.1681 71.3847 55.2672C71.3832 55.8829 71.3828 56.4985 71.3847 57.1143C71.3867 57.801 71.3868 58.4878 71.3866 59.1745C71.3885 59.4792 71.3885 59.4792 71.3905 59.79C71.3863 61.5615 71.3863 61.5615 70.9836 62.4174C70.689 62.5759 70.689 62.5759 70.2586 62.5986C70.0231 62.621 69.7876 62.6435 69.545 62.6666C68.958 62.7109 68.8114 62.6008 68.3399 62.2194C67.8019 61.5711 67.785 61.2476 67.7744 60.4146C67.7716 60.2952 67.7689 60.1758 67.7661 60.0527C67.7583 59.6742 67.7567 59.2959 67.7553 58.9172C67.7511 58.6594 67.7465 58.4016 67.7415 58.1438C67.7301 57.5143 67.7242 56.8849 67.7213 56.2553C67.4618 56.2779 67.2025 56.3024 66.9432 56.3275C66.7988 56.3409 66.6544 56.3543 66.5056 56.3681C65.6316 56.512 65.1493 56.976 64.6162 57.6507C64.0828 58.6222 64.1632 59.7282 64.1733 60.8068C64.1758 61.1789 64.1697 61.5501 64.1627 61.9221C64.1485 64.2018 64.7453 65.9383 66.3167 67.5939C66.5267 67.8257 66.7365 68.0577 66.9461 68.2899C67.0477 68.4008 67.1494 68.5118 67.2541 68.6261C67.926 69.3682 68.5474 70.1529 69.1712 70.9355C69.2481 71.0313 69.325 71.1271 69.4043 71.2258C71.3387 73.6435 72.0055 75.3398 72.2522 78.5474C76.1397 78.5474 80.0273 78.5474 84.0326 78.5474C84.212 77.4111 84.3915 76.2747 84.5763 75.1039C85.0634 73.7798 85.7732 72.9319 86.7335 71.9261C88.837 69.7068 89.3148 67.311 89.3189 64.3543C89.3195 64.1996 89.3201 64.0449 89.3208 63.8854C89.3217 63.5607 89.3221 63.236 89.3221 62.9113C89.3225 62.4186 89.3258 61.926 89.3292 61.4333C89.3297 61.1157 89.3301 60.798 89.3302 60.4804C89.3322 60.2628 89.3322 60.2628 89.3342 60.0409C89.3278 58.4369 89.1265 57.1924 87.9957 56.0125C86.7714 54.9239 85.3916 54.9629 83.8485 54.9612C83.4872 54.9578 83.1259 54.9543 82.7647 54.9505C82.1983 54.9453 81.6322 54.9413 81.0658 54.9413C80.517 54.9406 79.9684 54.9344 79.4196 54.9272C79.2524 54.9285 79.0853 54.9297 78.9131 54.9311C77.727 54.909 76.8238 54.6337 75.8769 53.8992C74.9939 52.8082 74.7679 51.9013 74.7638 50.5085C74.7632 50.3879 74.7626 50.2673 74.7619 50.143C74.7606 49.8818 74.7596 49.6207 74.759 49.3595C74.7577 48.9458 74.7548 48.5321 74.7515 48.1184C74.742 46.9424 74.7333 45.7665 74.7305 44.5904C74.7286 43.8704 74.7233 43.1504 74.7157 42.4304C74.7135 42.1565 74.7126 41.8826 74.713 41.6086C74.7134 41.2251 74.7094 40.8419 74.7044 40.4584C74.7033 40.2404 74.7022 40.0224 74.7011 39.7979C74.5896 39.1026 74.3815 38.8031 73.8833 38.3129C72.9875 38.0142 72.4718 38.0651 71.7552 38.7062ZM69.7149 82.7159C69.7149 84.5699 69.7149 86.424 69.7149 88.3342C75.3967 88.3342 81.0784 88.3342 86.9324 88.3342C86.9324 86.54 86.9324 84.7457 86.9324 82.8971C86.3213 82.2861 86.1176 82.2894 85.2899 82.2817C85.1399 82.2831 84.9899 82.2845 84.8354 82.2859C84.6768 82.2853 84.5182 82.2846 84.3548 82.2839C83.8299 82.2825 83.3051 82.2849 82.7802 82.2876C82.4162 82.2877 82.0521 82.2876 81.6881 82.2873C80.9249 82.2873 80.1618 82.2892 79.3986 82.2925C78.4188 82.2966 77.439 82.2967 76.4592 82.2955C75.7074 82.2949 74.9557 82.2961 74.204 82.2979C73.8426 82.2986 73.4812 82.2988 73.1199 82.2985C72.6156 82.2984 72.1114 82.3007 71.6072 82.3036C71.4569 82.3032 71.3065 82.3027 71.1516 82.3023C70.3479 82.2769 70.3479 82.2769 69.7149 82.7159Z" fill="black"/>
<path d="M19.8748 22.9076C20.3154 23.3057 20.5706 23.6128 20.6573 24.2103C20.6711 24.673 20.663 25.1296 20.6451 25.5922C20.6418 25.7523 20.6385 25.9125 20.6352 26.0775C20.6267 26.4708 20.6137 26.8641 20.5998 27.2573C20.7574 27.2502 20.7574 27.2502 20.9181 27.2429C21.3972 27.224 21.8762 27.2123 22.3555 27.2006C22.5208 27.193 22.6861 27.1855 22.8564 27.1776C23.7009 27.1623 24.0919 27.1566 24.7831 27.6813C25.1923 28.2489 25.3119 28.5509 25.3119 29.2509C25.0985 29.9917 24.9539 30.3969 24.3031 30.8268C23.5276 31.1215 22.8921 31.1243 22.0723 31.0972C21.8593 31.0936 21.8593 31.0936 21.6419 31.0898C21.2945 31.0834 20.9471 31.0737 20.5998 31.0633C20.6103 31.3013 20.6208 31.5394 20.6316 31.7847C20.6401 32.0992 20.6484 32.4138 20.6564 32.7284C20.664 32.885 20.6716 33.0417 20.6794 33.2031C20.6953 34.0338 20.6948 34.3857 20.1658 35.0597C19.4092 35.6257 19.0151 35.6298 18.0979 35.5177C17.7 35.4129 17.7 35.4129 17.2469 34.9825C16.7669 34.1426 16.7718 33.4202 16.7825 32.4792C16.7833 32.3433 16.7841 32.2075 16.785 32.0675C16.7871 31.7327 16.7903 31.398 16.7938 31.0633C16.4987 31.0727 16.4987 31.0727 16.1977 31.0824C15.9358 31.0875 15.6738 31.0924 15.4119 31.0972C15.2827 31.1018 15.1535 31.1063 15.0204 31.111C14.1461 31.1231 13.5666 30.998 12.8066 30.5195C12.4082 30.0282 12.2767 29.7059 12.1836 29.081C12.2839 28.3787 12.5514 27.9905 12.9878 27.4385C13.4135 27.2257 13.6652 27.2364 14.139 27.2396C14.2932 27.2402 14.4474 27.2407 14.6062 27.2414C14.7674 27.2429 14.9286 27.2444 15.0947 27.246C15.2573 27.2468 15.4199 27.2476 15.5874 27.2484C15.9896 27.2506 16.3917 27.2536 16.7938 27.2573C16.7875 27.0475 16.7812 26.8377 16.7747 26.6215C16.7696 26.3426 16.7646 26.0637 16.7598 25.7847C16.7553 25.6469 16.7507 25.5091 16.746 25.367C16.7344 24.472 16.8304 23.8594 17.3375 23.0888C18.282 22.5076 18.8631 22.4494 19.8748 22.9076Z" fill="black"/>
<path d="M42.3486 22.6472C42.4682 22.6699 42.5878 22.6925 42.7111 22.7159C43.3026 23.029 43.499 23.4021 43.7985 23.9952C43.8809 24.5657 43.8676 25.1194 43.8438 25.6943C43.8405 25.845 43.8373 25.9956 43.8339 26.1509C43.8254 26.5198 43.8124 26.8887 43.7985 27.2574C44.1556 27.2448 44.1556 27.2448 44.5199 27.2319C44.8345 27.2251 45.149 27.2185 45.4636 27.2121C45.6203 27.2061 45.7769 27.2 45.9383 27.1937C46.7018 27.182 47.1271 27.1886 47.7949 27.5888C48.2516 28.0976 48.3209 28.4508 48.3974 29.1264C48.3064 30.0213 48.0678 30.2669 47.4232 30.8822C46.6988 31.1293 45.9596 31.0834 45.2031 31.0747C45.068 31.0739 44.933 31.0731 44.7939 31.0723C44.4621 31.0701 44.1303 31.0669 43.7985 31.0634C43.808 31.3813 43.808 31.3813 43.8176 31.7055C43.8227 31.9861 43.8277 32.2667 43.8325 32.5473C43.837 32.6866 43.8416 32.826 43.8463 32.9696C43.8572 33.8185 43.8024 34.3589 43.2548 35.0506C42.7548 35.4425 42.4364 35.5834 41.8049 35.6623C41.1796 35.5841 40.851 35.4364 40.355 35.0506C40.0359 34.5307 39.9485 34.1473 39.9571 33.5413C39.9583 33.3964 39.9595 33.2516 39.9607 33.1023C39.9637 32.9528 39.9667 32.8033 39.9699 32.6492C39.9715 32.4969 39.9731 32.3446 39.9748 32.1876C39.9791 31.8129 39.9856 31.4381 39.9925 31.0634C39.6778 31.0729 39.6778 31.0729 39.3568 31.0825C39.0778 31.0876 38.7989 31.0926 38.52 31.0974C38.3821 31.1019 38.2443 31.1065 38.1023 31.1112C37.2063 31.1228 36.5972 31.0237 35.8241 30.5197C35.3385 29.7914 35.3354 29.2009 35.4616 28.3449C35.7867 27.8247 36.0022 27.5309 36.549 27.2574C36.8115 27.2423 37.0747 27.238 37.3377 27.2397C37.4919 27.2403 37.6461 27.2409 37.8049 27.2415C37.9661 27.243 38.1273 27.2445 38.2934 27.2461C38.456 27.2469 38.6186 27.2477 38.7862 27.2486C39.1883 27.2507 39.5904 27.2537 39.9925 27.2574C39.982 27.0215 39.9715 26.7855 39.9607 26.5424C39.9522 26.2295 39.9439 25.9166 39.9359 25.6036C39.9283 25.4485 39.9207 25.2934 39.9129 25.1336C39.8979 24.3524 39.9116 23.8005 40.4038 23.1697C41.0779 22.566 41.4766 22.4582 42.3486 22.6472Z" fill="black"/>
<path d="M68.4465 24.7201C69.1015 25.2013 69.3939 25.5624 69.5339 26.3512C69.5459 26.6682 69.5494 26.9855 69.5452 27.3027C69.5436 27.4644 69.542 27.626 69.5403 27.7926C69.5382 27.915 69.5361 28.0374 69.5339 28.1636C69.6935 28.1531 69.853 28.1425 70.0174 28.1317C71.7301 28.0652 71.7301 28.0652 72.479 28.526C72.873 29.2014 73.0541 29.7358 72.9774 30.5196C72.6624 31.2 72.4339 31.5142 71.7654 31.8563C71.013 31.9982 70.2968 32.0001 69.5339 31.9695C69.5434 32.1469 69.5434 32.1469 69.553 32.3278C69.5834 33.3075 69.5914 34.0477 68.9902 34.8693C68.3717 35.3051 68.0148 35.413 67.2571 35.413C66.455 35.1797 66.1801 35.0382 65.7279 34.3256C65.6531 33.5345 65.6757 32.7616 65.7279 31.9695C65.6118 31.9758 65.4957 31.9822 65.3761 31.9887C64.3185 32.0218 63.5526 31.9988 62.6469 31.4258C62.1892 30.7046 62.0759 30.3359 62.2051 29.4889C62.4779 28.8603 62.6508 28.5767 63.1906 28.1636C63.8164 28.0928 63.8164 28.0928 64.5046 28.1183C64.7335 28.1248 64.9625 28.1313 65.1984 28.1381C65.4605 28.1507 65.4605 28.1507 65.7279 28.1636C65.7174 27.9909 65.7069 27.8183 65.6961 27.6404C65.63 25.8026 65.63 25.8026 66.0677 25.0146C66.8714 24.5967 67.5597 24.5366 68.4465 24.7201Z" fill="black"/>
<path d="M14.8001 11.4898C15.3095 11.9663 15.4756 12.4292 15.525 13.1209C15.3905 13.7803 15.2271 14.1362 14.7774 14.6388C14.1062 15.0182 13.55 15.0941 12.8065 14.9333C12.0131 14.5083 12.0131 14.5083 11.7191 14.0271C11.5748 13.394 11.5786 12.8483 11.7191 12.2147C12.5914 11.0274 13.5044 10.977 14.8001 11.4898Z" fill="black"/>
</svg>
