<svg width="93" height="77" viewBox="0 0 93 77" fill="none" xmlns="http://www.w3.org/2000/svg">
<path d="M4.80366 0.052806C4.94856 0.0521344 5.09345 0.0514627 5.24274 0.0507707C5.72991 0.0489836 6.21703 0.0499303 6.7042 0.0508603C7.05635 0.0501447 7.4085 0.0492633 7.76066 0.04823C8.72967 0.0458819 9.69867 0.0459377 10.6677 0.0463888C11.7122 0.0464669 12.7568 0.0443536 13.8014 0.0425355C15.8484 0.0393505 17.8953 0.0382999 19.9423 0.0380864C21.6059 0.0379044 23.2694 0.0371178 24.933 0.0359023C29.6475 0.0325275 34.3621 0.0307587 39.0766 0.0310482C39.2672 0.0310596 39.2672 0.0310596 39.4617 0.0310713C39.7187 0.0310868 39.9757 0.0311028 40.2327 0.0311194C44.2311 0.0313541 48.2296 0.0284782 52.228 0.0232374C56.7197 0.0173524 61.2115 0.01406 65.7032 0.0144112C68.0817 0.0145385 70.4602 0.0134811 72.8386 0.0093623C74.8636 0.00587818 76.8885 0.00503691 78.9135 0.00764181C79.9469 0.00889501 80.9802 0.00890671 82.0136 0.00559081C82.9595 0.00258669 83.9054 0.00311634 84.8513 0.00646594C85.1936 0.00705609 85.5359 0.00635052 85.8781 0.00422075C89.3179 -0.0157666 89.3179 -0.0157667 90.7563 1.24475C90.8595 1.36946 90.9627 1.49416 91.0691 1.62265C91.1753 1.74686 91.2815 1.87107 91.3909 1.99904C91.9684 2.8372 92.0989 3.55851 92.1002 4.56728C92.1014 4.81247 92.1026 5.05766 92.1039 5.31029C92.1033 5.58198 92.1027 5.85366 92.1021 6.12535C92.1028 6.41429 92.1037 6.70323 92.1047 6.99216C92.1071 7.78645 92.107 8.58071 92.1066 9.375C92.1065 10.2315 92.1086 11.088 92.1104 11.9446C92.1136 13.6228 92.1147 15.301 92.1149 16.9792C92.1151 18.3432 92.1158 19.7072 92.1171 21.0712C92.1204 24.9377 92.1222 28.8041 92.1219 32.6706C92.1219 32.8791 92.1219 33.0876 92.1219 33.3024C92.1219 33.5111 92.1218 33.7198 92.1218 33.9349C92.1217 37.3181 92.1253 40.7013 92.1307 44.0846C92.1362 47.5577 92.1389 51.0308 92.1385 54.5039C92.1384 56.4541 92.1395 58.4043 92.1436 60.3545C92.1471 62.0149 92.1479 63.6753 92.1453 65.3357C92.1441 66.1828 92.144 67.0299 92.1474 67.8771C92.1504 68.6529 92.1498 69.4286 92.1465 70.2043C92.1459 70.4847 92.1466 70.7651 92.1487 71.0455C92.1612 72.8007 92.1041 74.0693 90.9082 75.434C90.7835 75.5372 90.6588 75.6404 90.5303 75.7468C90.4061 75.8529 90.2819 75.9591 90.1539 76.0685C89.3441 76.6265 88.6353 76.7769 87.6601 76.7842C87.4364 76.7866 87.2127 76.7891 86.9822 76.7916C86.6223 76.7922 86.6223 76.7922 86.2552 76.7929C86.0076 76.7942 85.7599 76.7954 85.5047 76.7967C84.9815 76.799 84.4583 76.7998 83.9352 76.7995C83.2654 76.7995 82.5958 76.8047 81.9261 76.8113C81.2859 76.8166 80.6457 76.8164 80.0054 76.8168C79.7651 76.8196 79.5249 76.8223 79.2773 76.8252C79.0542 76.824 78.8311 76.8228 78.6012 76.8216C78.405 76.8221 78.2088 76.8227 78.0066 76.8233C77.3575 76.7038 77.1318 76.4714 76.7256 75.9623C76.6238 75.5791 76.6238 75.5791 76.6298 75.196C76.6278 75.0696 76.6258 74.9431 76.6238 74.8129C76.7717 74.2561 77.0532 74.029 77.4918 73.6635C77.9557 73.5666 77.9557 73.5666 78.4781 73.565C78.6744 73.5624 78.8706 73.5599 79.0729 73.5573C79.3893 73.5587 79.3893 73.5587 79.7121 73.5602C80.0387 73.5568 80.0387 73.5568 80.3719 73.5534C81.0682 73.5466 81.7643 73.5448 82.4606 73.5437C83.1562 73.5406 83.8517 73.5364 84.5472 73.53C84.98 73.5263 85.4128 73.5245 85.8456 73.5249C86.141 73.5229 86.141 73.5229 86.4423 73.5208C86.7011 73.5205 86.7011 73.5205 86.9651 73.5201C87.5291 73.4644 87.9162 73.3684 88.4111 73.0888C88.746 72.4192 88.8425 71.8711 88.8444 71.1275C88.8458 70.928 88.8472 70.7285 88.8487 70.523C88.8483 70.3052 88.848 70.0875 88.8476 69.8631C88.8487 69.6313 88.8498 69.3995 88.851 69.1606C88.8536 68.5165 88.8546 67.8725 88.8549 67.2284C88.8556 66.5234 88.8586 65.8184 88.8612 65.1134C88.866 63.7448 88.8689 62.3762 88.8711 61.0076C88.8737 59.4246 88.8788 57.8416 88.8838 56.2586C88.8959 52.0788 88.9048 47.8991 88.914 43.7193C88.9377 34.383 88.9614 25.0466 88.9858 15.4274C60.6647 15.4274 32.3435 15.4274 3.16419 15.4274C3.1879 24.7637 3.2116 34.1 3.23603 43.7193C3.24254 46.6709 3.24905 49.6225 3.25576 52.6636C3.26341 55.3017 3.26341 55.3017 3.27155 57.9398C3.27518 59.1179 3.27776 60.296 3.27965 61.474C3.28182 62.832 3.2853 64.1899 3.29042 65.5478C3.293 66.2428 3.29497 66.9377 3.29527 67.6327C3.2956 68.3762 3.29886 69.1196 3.30241 69.8631C3.30204 70.0809 3.30167 70.2986 3.30129 70.523C3.30272 70.7225 3.30415 70.922 3.30562 71.1275C3.30606 71.2994 3.30649 71.4713 3.30694 71.6484C3.36201 72.1928 3.49595 72.5994 3.73889 73.0888C4.50069 73.5457 5.24374 73.5199 6.11581 73.5201C6.2569 73.5207 6.39799 73.5212 6.54335 73.5218C7.01512 73.5233 7.48685 73.522 7.95863 73.5208C8.29724 73.5214 8.63586 73.5221 8.97448 73.5229C9.70315 73.5245 10.4318 73.5249 11.1605 73.5245C12.3123 73.5239 13.4641 73.5267 14.6159 73.53C17.891 73.539 21.1661 73.5436 24.4412 73.5449C26.2504 73.5456 28.0595 73.549 29.8687 73.5554C31.0141 73.5593 32.1595 73.5597 33.3049 73.5577C34.0168 73.5572 34.7287 73.5598 35.4405 73.5634C35.7711 73.5644 36.1016 73.5642 36.4321 73.5625C36.8828 73.5603 37.3332 73.5629 37.7839 73.5666C38.1623 73.5669 38.1623 73.5669 38.5485 73.5673C39.2794 73.6789 39.5056 73.847 39.9449 74.4297C40.0467 74.8129 40.0467 74.8129 40.0407 75.196C40.0426 75.3224 40.0446 75.4489 40.0467 75.5791C39.8944 76.1525 39.6447 76.3639 39.1786 76.7285C38.6714 76.8038 38.2437 76.8322 37.7368 76.8258C37.518 76.8276 37.518 76.8276 37.2948 76.8295C36.8057 76.8325 36.3167 76.8301 35.8275 76.8277C35.477 76.8287 35.1264 76.8301 34.7759 76.8317C33.8231 76.8352 32.8704 76.8339 31.9177 76.8315C30.9206 76.8295 29.9234 76.8313 28.9262 76.8325C27.2508 76.8339 25.5753 76.8321 23.8998 76.8284C21.9642 76.8243 20.0286 76.8256 18.093 76.8298C16.4307 76.8333 14.7685 76.8338 13.1063 76.8318C12.1137 76.8306 11.1212 76.8304 10.1286 76.833C9.19461 76.8352 8.26068 76.8336 7.32668 76.8292C6.98444 76.8282 6.64218 76.8285 6.29994 76.8302C5.83149 76.8323 5.3633 76.8296 4.89487 76.8258C4.69327 76.8284 4.69327 76.8284 4.4876 76.831C3.27134 76.8119 2.29868 76.3789 1.3937 75.5859C1.29048 75.4612 1.18726 75.3365 1.08091 75.208C0.974723 75.0838 0.868539 74.9596 0.759137 74.8316C0.181635 73.9934 0.0511333 73.2721 0.0498479 72.2633C0.0486125 72.0182 0.047377 71.773 0.0461042 71.5203C0.0466678 71.2486 0.0472685 70.977 0.0479022 70.7053C0.0471864 70.4163 0.0463049 70.1274 0.0452718 69.8385C0.0429259 69.0442 0.0429792 68.2499 0.0434306 67.4556C0.0435088 66.5991 0.0413945 65.7426 0.0395769 64.8861C0.0363932 63.2079 0.0353416 61.5297 0.035128 59.8515C0.034946 58.4874 0.0341593 57.1234 0.0329441 55.7594C0.0295697 51.893 0.0278028 48.0265 0.02809 44.16C0.0281053 43.9515 0.0281203 43.743 0.0281361 43.5282C0.0281517 43.3195 0.0281674 43.1108 0.0281836 42.8957C0.0283393 39.5125 0.0246728 36.1293 0.0192711 32.7461C0.0137696 29.2729 0.0111219 25.7998 0.011453 22.3267C0.0115803 20.3765 0.0105249 18.4263 0.00640379 16.4761C0.0029176 14.8157 0.00208036 13.1554 0.00468356 11.495C0.00593573 10.6478 0.00595232 9.8007 0.00263267 8.95355C-0.000376064 8.17776 0.000162844 7.40206 0.00350776 6.62627C0.0040969 6.34588 0.00339602 6.06549 0.00126248 5.78512C-0.0112072 4.02994 0.0459084 2.76135 1.24179 1.39666C1.3665 1.29344 1.4912 1.19022 1.61969 1.08387C1.7439 0.977682 1.86811 0.871497 1.99609 0.762095C2.90088 0.138681 3.72727 0.0464861 4.80366 0.052806ZM3.54732 3.74185C2.47908 6.41245 3.16419 9.48599 3.16419 12.3623C31.4853 12.3623 59.8065 12.3623 88.9858 12.3623C89.3567 7.80092 89.3567 7.80092 88.4111 3.55028C87.6558 3.08962 86.9153 3.11897 86.0462 3.1184C85.8355 3.11748 85.8355 3.11748 85.6205 3.11654C85.1483 3.11494 84.6762 3.11608 84.2041 3.11721C83.8627 3.11663 83.5214 3.11588 83.18 3.11499C82.2408 3.11301 81.3017 3.11344 80.3625 3.11425C79.35 3.11473 78.3376 3.113 77.3252 3.11157C75.3413 3.10912 73.3575 3.10878 71.3736 3.10923C69.7616 3.10957 68.1495 3.10924 66.5374 3.10842C66.3082 3.1083 66.079 3.10819 65.8428 3.10807C65.3772 3.10784 64.9116 3.10761 64.446 3.10738C60.0771 3.10529 55.7082 3.10571 51.3393 3.10687C47.3402 3.10787 43.341 3.10571 39.3419 3.10207C35.238 3.09836 31.1341 3.09677 27.0302 3.09749C24.7251 3.09786 22.4202 3.09738 20.1151 3.09467C18.153 3.0924 16.1908 3.09212 14.2287 3.09444C13.2272 3.09557 12.2257 3.09577 11.2242 3.09348C10.3078 3.09141 9.39148 3.09199 8.47512 3.09468C8.14318 3.09519 7.81123 3.09473 7.47929 3.0932C7.02878 3.09127 6.57842 3.09287 6.12791 3.09536C5.87747 3.09535 5.62704 3.09534 5.36901 3.09533C4.62265 3.17506 4.16961 3.323 3.54732 3.74185Z" fill="black"/>
<path d="M40.52 31.1362C41.321 31.6295 41.7123 32.2085 42.158 33.025C42.2759 33.2386 42.3939 33.4522 42.5154 33.6723C42.6352 33.8943 42.7551 34.1163 42.8787 34.345C43.0033 34.5723 43.1281 34.7996 43.2532 35.0267C43.5572 35.5807 43.8587 36.136 44.1598 36.6917C45.4241 36.6917 46.6884 36.6917 47.9911 36.6917C48.162 36.3687 48.3328 36.0457 48.5089 35.7129C48.7353 35.2888 48.9618 34.8648 49.1884 34.4408C49.3569 34.1215 49.3569 34.1215 49.5288 33.7957C49.6387 33.5908 49.7486 33.3858 49.8618 33.1746C49.9622 32.986 50.0625 32.7974 50.1658 32.6031C50.5579 31.9707 50.959 31.4721 51.6308 31.1362C53.1974 31.2068 54.6125 31.6725 56.0967 32.1539C56.3408 32.2297 56.5848 32.3054 56.8289 32.3811C57.0607 32.4555 57.2924 32.53 57.5312 32.6067C57.7409 32.6737 57.9507 32.7407 58.1668 32.8097C58.7725 33.0755 59.0881 33.2898 59.485 33.8182C59.7052 34.6239 59.6751 35.3254 59.5763 36.1491C59.5507 36.3676 59.525 36.586 59.4985 36.811C59.4704 37.0364 59.4422 37.2617 59.4132 37.4938C59.3732 37.8352 59.3732 37.8352 59.3324 38.1834C59.1305 39.8626 59.1305 39.8626 58.9103 40.523C59.0469 40.5694 59.1835 40.6158 59.3242 40.6637C60.1333 41.0243 60.7559 41.5933 61.4359 42.1543C61.9514 42.4955 61.9514 42.4955 62.4857 42.3541C63.5876 41.8393 64.6891 41.3242 65.7794 40.7853C67.575 39.9372 67.575 39.9372 68.6802 40.3314C69.455 40.9625 70.0059 41.7551 70.5719 42.5703C70.7388 42.8088 70.9057 43.0473 71.0726 43.2857C71.1537 43.4022 71.2349 43.5186 71.3185 43.6386C71.5301 43.9378 71.7491 44.2317 71.969 44.5249C73.1505 46.1133 73.1505 46.1133 73.0862 47.2278C72.6357 48.1484 71.916 48.8023 71.1893 49.5086C70.6728 50.0241 70.1979 50.5695 69.7234 51.1235C69.5128 51.3659 69.2904 51.5983 69.0634 51.8254C69.1741 52.8183 69.5585 53.7768 69.8603 54.7251C70.0212 55.2736 70.0212 55.2736 70.0212 55.6567C70.2308 55.6849 70.2308 55.6849 70.4447 55.7136C71.753 55.9009 73.0495 56.1306 74.3434 56.399C74.4915 56.4276 74.6397 56.4562 74.7923 56.4856C74.9328 56.5158 75.0734 56.546 75.2182 56.5771C75.3428 56.6028 75.4674 56.6284 75.5957 56.6549C76.1396 56.8808 76.3785 57.0898 76.726 57.5724C76.8392 58.1471 76.8334 58.7122 76.8278 59.2965C76.8285 59.4636 76.8292 59.6308 76.83 59.8031C76.8305 60.156 76.8291 60.509 76.8259 60.8619C76.8218 61.4019 76.8259 61.9413 76.8308 62.4812C76.8303 62.8245 76.8293 63.1677 76.8278 63.5109C76.8293 63.6722 76.8309 63.8334 76.8325 63.9996C76.8212 64.7014 76.8079 65.1118 76.4133 65.7055C75.8551 66.0695 75.3848 66.1947 74.7318 66.3275C74.4948 66.3769 74.2579 66.4263 74.0138 66.4772C73.7669 66.5256 73.5201 66.574 73.2658 66.6239C72.8945 66.7009 72.8945 66.7009 72.5157 66.7795C70.7006 67.1507 70.7006 67.1507 70.0212 67.1507C69.9841 67.3055 69.9471 67.4603 69.9089 67.6199C69.8341 67.9269 69.8341 67.9269 69.7578 68.2402C69.6844 68.5436 69.6844 68.5436 69.6096 68.8531C69.4465 69.4495 69.4465 69.4495 69.2235 69.9561C69.037 70.4815 69.0263 70.6687 69.2549 71.1736C69.6065 71.5805 69.6065 71.5805 70.0451 71.9757C72.2046 74.0765 72.2046 74.0765 72.4517 75.2443C72.2759 75.9473 72.1166 76.2622 71.5537 76.729C70.8316 76.8811 70.1232 76.9043 69.4774 76.5186C69.1464 76.2227 68.8535 75.9131 68.5605 75.5796C68.4013 75.4094 68.4013 75.4094 68.2388 75.2358C67.9339 74.9076 67.6357 74.5745 67.3393 74.2386C67.195 74.0781 67.0508 73.9176 66.9022 73.7522C66.6856 73.5071 66.471 73.2601 66.2602 73.0099C66.0097 72.6973 66.0097 72.6973 65.6885 72.4741C65.2495 71.9061 65.2062 71.2935 65.232 70.5989C65.3801 69.9781 65.6102 69.4035 65.8546 68.8149C65.9811 68.4947 66.1068 68.1741 66.2318 67.8533C66.3218 67.6234 66.3218 67.6234 66.4136 67.3889C66.6738 66.6873 66.8514 65.9706 67.013 65.241C67.1786 64.7625 67.3252 64.5934 67.7224 64.2772C68.2709 64.1064 68.2709 64.1064 68.9317 63.9696C69.1692 63.9196 69.4068 63.8696 69.6515 63.8181C69.7751 63.7932 69.8986 63.7684 70.0259 63.7427C70.4034 63.6667 70.7803 63.5878 71.1571 63.5083C72.992 63.1278 72.992 63.1278 73.6609 63.1278C73.6609 61.9899 73.6609 60.852 73.6609 59.6796C73.1513 59.6085 73.1513 59.6085 72.6313 59.5359C71.5226 59.3638 70.4243 59.1579 69.3268 58.9253C69.1021 58.88 69.1021 58.88 68.873 58.8338C67.6225 58.5609 67.6225 58.5609 67.1477 57.9555C66.9685 57.5071 66.9685 57.5071 66.8184 56.9827C66.7624 56.7918 66.7063 56.6009 66.6486 56.4043C66.592 56.205 66.5355 56.0057 66.4772 55.8004C66.0503 54.2674 66.0503 54.2674 65.4805 52.7847C65.2202 52.1812 65.138 51.732 65.2515 51.0786C65.5572 50.3636 66.1194 49.9008 66.6837 49.3814C67.2343 48.8717 67.7139 48.3205 68.1998 47.7501C68.4758 47.4341 68.7632 47.1376 69.0634 46.8447C68.8049 46.1097 68.4738 45.5704 67.9858 44.9649C67.8043 44.7379 67.8043 44.7379 67.6191 44.5062C67.5268 44.3929 67.4344 44.2795 67.3393 44.1627C65.9722 44.5832 64.7064 45.1355 63.4264 45.7701C62.4862 46.2103 61.8606 46.3975 60.826 46.0784C60.2865 45.7013 60.2865 45.7013 59.7604 45.2164C58.8007 44.3595 57.797 43.6574 56.6991 42.9883C55.8631 42.4743 55.8631 42.4743 55.6537 42.0555C55.4477 39.944 55.8991 37.8112 56.2284 35.7338C56.1152 35.7098 56.002 35.6857 55.8854 35.661C55.0872 35.4882 54.3067 35.309 53.5345 35.0394C53.3901 34.9895 53.2456 34.9396 53.0968 34.8882C52.9923 34.8512 52.8879 34.8142 52.7802 34.776C52.7385 34.9274 52.6968 35.0788 52.6538 35.2347C52.3157 36.1444 51.8456 36.9459 51.3555 37.7812C51.2615 37.9448 51.1675 38.1084 51.0707 38.2769C50.5445 39.1809 50.5445 39.1809 50.2899 39.5652C50.218 39.6747 50.1461 39.7843 50.072 39.8972C49.4753 40.303 48.7984 40.2335 48.1003 40.2364C47.9418 40.2383 47.7833 40.2402 47.6201 40.2422C47.2848 40.2451 46.9495 40.2464 46.6143 40.2463C46.1024 40.2476 45.5912 40.258 45.0794 40.2689C44.7534 40.2706 44.4274 40.2718 44.1014 40.2723C43.9489 40.2764 43.7964 40.2806 43.6393 40.2848C42.7889 40.2744 42.5278 40.228 41.8873 39.6154C41.5496 39.1 41.2191 38.5938 40.9233 38.0536C40.8313 37.8862 40.7394 37.7187 40.6446 37.5462C40.5521 37.3748 40.4596 37.2035 40.3643 37.0269C40.2682 36.8526 40.172 36.6782 40.0729 36.4986C39.3706 35.2106 39.3706 35.2106 39.3706 34.776C39.1698 34.8451 38.9691 34.9143 38.7622 34.9855C38.4981 35.0754 38.2339 35.1652 37.9698 35.2549C37.8375 35.3006 37.7053 35.3463 37.5691 35.3934C36.9972 35.5867 36.5303 35.7338 35.9224 35.7338C35.9485 35.8986 35.9485 35.8986 35.9752 36.0666C36.831 41.5374 36.831 41.5374 36.1499 42.5943C35.4545 43.0715 34.7474 43.523 34.027 43.9614C33.5869 44.252 33.1975 44.5373 32.7952 44.8729C32.6879 44.9614 32.5806 45.0498 32.4701 45.141C32.262 45.315 32.0568 45.4925 31.855 45.6737C31.2926 46.1403 30.969 46.2692 30.2345 46.2902C28.9721 46.0438 27.8259 45.3702 26.6853 44.8007C26.5046 44.7139 26.3238 44.6271 26.1376 44.5376C25.9748 44.4566 25.812 44.3756 25.6442 44.2921C25.1979 44.1177 25.1979 44.1177 24.7757 44.3023C24.2961 44.6387 24.0339 45.0419 23.7101 45.5276C23.5337 45.7892 23.5337 45.7892 23.3539 46.056C23.266 46.1898 23.1781 46.3236 23.0875 46.4615C23.3442 47.0375 23.6236 47.4189 24.0812 47.8504C24.7079 48.4575 25.283 49.0944 25.8502 49.7571C26.1348 50.1046 26.1348 50.1046 26.4668 50.3378C26.9026 50.9038 26.9445 51.5174 26.9188 52.2085C26.7708 52.8293 26.5407 53.4039 26.2962 53.9925C26.1698 54.3127 26.0441 54.6332 25.9191 54.954C25.8291 55.1839 25.8291 55.1839 25.7372 55.4185C25.477 56.1201 25.2995 56.8367 25.1378 57.5664C24.9722 58.0448 24.8257 58.2139 24.4284 58.5302C23.8799 58.701 23.8799 58.701 23.2192 58.8378C22.9816 58.8878 22.7441 58.9378 22.4993 58.9893C22.3758 59.0141 22.2522 59.039 22.125 59.0646C21.7474 59.1406 21.3706 59.2196 20.9937 59.2991C19.1589 59.6796 19.1589 59.6796 18.4899 59.6796C18.4899 60.8175 18.4899 61.9554 18.4899 63.1278C18.9996 63.1989 18.9996 63.1989 19.5196 63.2715C20.6282 63.4436 21.7265 63.6495 22.8241 63.8821C22.9738 63.9123 23.1235 63.9425 23.2778 63.9736C24.0279 64.1373 24.5157 64.2513 25.0031 64.8519C25.1981 65.3763 25.3654 65.8841 25.518 66.4203C25.5611 66.5602 25.6042 66.7001 25.6486 66.8442C25.9288 67.8061 26.0294 68.639 25.961 69.641C25.5696 70.2281 25.3018 70.3731 24.632 70.5869C23.887 70.6021 23.6449 70.5229 23.0875 70.0242C22.5483 69.0996 22.2822 68.2078 22.1296 67.1507C21.92 67.1225 21.92 67.1225 21.7061 67.0938C20.3979 66.9064 19.1014 66.6767 17.8074 66.4084C17.6593 66.3798 17.5112 66.3512 17.3585 66.3217C17.218 66.2915 17.0775 66.2614 16.9327 66.2303C16.8081 66.2046 16.6835 66.179 16.5551 66.1525C16.0112 65.9265 15.7723 65.7176 15.4248 65.235C15.3116 64.6603 15.3174 64.0952 15.3231 63.5109C15.3223 63.3437 15.3216 63.1766 15.3208 63.0043C15.3203 62.6514 15.3217 62.2984 15.3249 61.9455C15.329 61.4055 15.325 60.8661 15.3201 60.3261C15.3206 59.9829 15.3216 59.6397 15.3231 59.2965C15.3215 59.1352 15.32 58.974 15.3184 58.8078C15.3296 58.106 15.3429 57.6956 15.7376 57.1019C16.2957 56.7379 16.766 56.6127 17.4191 56.4798C17.7745 56.4058 17.7745 56.4058 18.1371 56.3302C18.3839 56.2818 18.6307 56.2334 18.885 56.1835C19.2563 56.1065 19.2563 56.1065 19.6352 56.0279C21.4503 55.6567 21.4503 55.6567 22.1296 55.6567C22.1852 55.4245 22.1852 55.4245 22.2419 55.1875C22.2918 54.9828 22.3417 54.7781 22.393 54.5672C22.4419 54.3649 22.4908 54.1627 22.5412 53.9543C22.7043 53.3579 22.7043 53.3579 22.9273 52.8513C23.1139 52.3256 23.1243 52.1391 22.8959 51.6338C22.5448 51.2202 22.5448 51.2202 22.1057 50.8197C21.4048 50.1433 20.7511 49.4492 20.1197 48.7079C19.8379 48.3737 19.8379 48.3737 19.5196 48.0883C19.1449 47.6818 19.0519 47.2633 19.0055 46.7212C19.2197 45.0861 20.8701 43.5283 21.8745 42.2553C22.1769 41.8607 22.4654 41.4551 22.7403 41.0408C23.2383 40.2981 23.2383 40.2981 23.8537 40.1399C25.426 40.1996 26.7595 41.0411 28.1393 41.7326C28.3376 41.8281 28.5359 41.9235 28.7402 42.0218C28.9192 42.1109 29.0983 42.2 29.2828 42.2917C29.9243 42.4767 30.1713 42.3675 30.7501 42.0555C31.1196 41.801 31.4827 41.5371 31.8397 41.2653C32.8158 40.523 32.8158 40.523 33.2405 40.523C33.1773 40.3966 33.114 40.2701 33.0489 40.1399C32.9185 39.3333 32.8324 38.5207 32.7376 37.7094C32.7095 37.4848 32.6813 37.2602 32.6523 37.0288C32.3888 34.785 32.3888 34.785 32.6658 33.8182C33.2611 33.0741 33.8699 32.8456 34.7655 32.558C34.9575 32.4959 34.9575 32.4959 35.1534 32.4325C35.4232 32.3457 35.6934 32.2601 35.9639 32.1756C36.3757 32.0467 36.7858 31.9136 37.196 31.7798C39.5947 31.014 39.5947 31.014 40.52 31.1362Z" fill="black"/>
<path d="M55.4247 49.0118C55.6971 49.2414 55.9642 49.4775 56.2269 49.7182C56.4 49.876 56.5731 50.0338 56.7514 50.1963C58.522 51.8854 59.7579 53.7559 60.6329 56.0398C60.7084 56.2367 60.784 56.4335 60.8619 56.6362C62.1137 60.5012 61.6563 64.7647 59.9025 68.3719C59.303 69.5365 58.6465 70.5863 57.7594 71.5567C57.606 71.7276 57.4527 71.8985 57.2947 72.0745C54.7046 74.8183 51.0909 76.681 47.2803 76.8047C47.135 76.8074 46.9898 76.81 46.8401 76.8128C46.7002 76.8171 46.5602 76.8213 46.4161 76.8258C45.7577 76.8229 45.3746 76.7772 44.8347 76.3885C44.5258 75.9401 44.4372 75.7335 44.4455 75.1965C44.4426 75.0068 44.4426 75.0068 44.4396 74.8133C44.5968 74.2214 44.8084 74.0232 45.3076 73.6639C45.8956 73.5143 46.4888 73.4613 47.0916 73.4005C50.4853 72.9668 53.2825 71.6151 55.5107 68.9301C57.7087 66.0358 58.3439 62.8754 57.951 59.2965C57.6254 57.3712 56.8389 55.6744 55.6522 54.1242C55.5284 53.9612 55.4047 53.7982 55.2773 53.6303C53.2044 51.1229 50.336 49.7594 47.1359 49.4084C43.8602 49.1299 40.8894 50.0985 38.3446 52.1412C36.138 54.0976 34.4084 56.7368 34.1598 59.7434C34.0504 63.0104 34.4282 65.3903 36.0922 68.235C36.423 68.9351 36.3684 69.3015 36.1124 70.0242C35.7797 70.5787 35.5279 70.6014 34.8912 70.7665C34.0826 70.7944 33.8719 70.701 33.2389 70.2157C32.9426 69.7753 32.6984 69.3682 32.4607 68.8987C32.3949 68.7721 32.329 68.6454 32.2612 68.5149C30.495 65.0076 30.0319 60.4646 31.2477 56.7013C32.0542 54.7042 32.9702 52.8883 34.3883 51.2507C34.5027 51.0988 34.617 50.947 34.7348 50.7905C36.3056 48.9284 38.461 47.698 40.71 46.8447C40.9229 46.7617 41.1357 46.6787 41.355 46.5932C46.0697 45.0538 51.4749 46.0829 55.4247 49.0118Z" fill="black"/>
<path d="M8.89965 24.5233C9.09285 24.5219 9.28605 24.5206 9.48511 24.5192C10.1241 24.5158 10.763 24.518 11.402 24.5206C11.8457 24.5201 12.2895 24.5194 12.7332 24.5184C13.6634 24.5173 14.5935 24.5189 15.5236 24.5225C16.7167 24.5269 17.9097 24.5244 19.1027 24.5198C20.0191 24.517 20.9354 24.5179 21.8518 24.5199C22.2917 24.5204 22.7317 24.5197 23.1716 24.518C23.7862 24.516 24.4006 24.519 25.0151 24.5233C25.2887 24.5209 25.2887 24.5209 25.5677 24.5186C26.7995 24.5344 26.7995 24.5344 27.4146 24.9878C27.7068 25.4208 27.789 25.6373 27.7809 26.1549C27.7838 26.3446 27.7838 26.3446 27.7869 26.5381C27.6293 27.1311 27.4164 27.3208 26.9188 27.6875C26.2855 27.8045 25.6577 27.7921 25.0151 27.7866C24.8219 27.788 24.6287 27.7893 24.4297 27.7907C23.7907 27.7941 23.1518 27.7918 22.5128 27.7892C22.0691 27.7897 21.6253 27.7905 21.1816 27.7914C20.2514 27.7926 19.3213 27.7909 18.3912 27.7874C17.1981 27.783 16.0051 27.7855 14.8121 27.7901C13.8957 27.7929 12.9794 27.792 12.063 27.79C11.6231 27.7895 11.1831 27.7901 10.7432 27.7919C10.1286 27.7938 9.51423 27.7909 8.89965 27.7866C8.71732 27.7882 8.53498 27.7897 8.34712 27.7913C7.11532 27.7754 7.11532 27.7754 6.50021 27.3221C6.20803 26.8891 6.12583 26.6725 6.13392 26.1549C6.13095 25.9653 6.13095 25.9653 6.12793 25.7718C6.49862 24.3762 7.71413 24.5132 8.89965 24.5233Z" fill="black"/>
<path d="M8.05556 30.6538C8.26781 30.6514 8.48006 30.649 8.69873 30.6465C8.92703 30.648 9.15533 30.6496 9.39054 30.6512C9.62575 30.6505 9.86096 30.6497 10.1033 30.649C10.6006 30.6484 11.0978 30.6499 11.595 30.6531C12.3569 30.6572 13.1185 30.6531 13.8804 30.6482C14.3633 30.6487 14.8462 30.6497 15.3291 30.6512C15.5574 30.6496 15.7857 30.6481 16.0209 30.6465C16.3393 30.6501 16.3393 30.6501 16.6641 30.6538C16.8506 30.6544 17.0372 30.655 17.2294 30.6557C17.8619 30.7802 18.0907 31.0241 18.4899 31.5192C18.5917 31.9024 18.5917 31.9024 18.5857 32.2855C18.5887 32.4751 18.5887 32.4751 18.5917 32.6686C18.4432 33.2278 18.1664 33.4528 17.7237 33.818C17.2294 33.9153 17.2294 33.9153 16.6641 33.9172C16.4518 33.9196 16.2396 33.922 16.0209 33.9245C15.7926 33.9229 15.5643 33.9214 15.3291 33.9198C14.9763 33.9209 14.9763 33.9209 14.6163 33.922C14.1191 33.9225 13.6218 33.9211 13.1246 33.9179C12.3627 33.9138 11.6011 33.9179 10.8393 33.9228C10.3564 33.9223 9.87345 33.9213 9.39054 33.9198C9.16224 33.9213 8.93395 33.9229 8.69873 33.9245C8.38036 33.9209 8.38036 33.9209 8.05556 33.9172C7.869 33.9166 7.68244 33.9159 7.49022 33.9153C6.85776 33.7908 6.62897 33.5469 6.2297 33.0517C6.12793 32.6686 6.12793 32.6686 6.13392 32.2855C6.13095 32.0958 6.13095 32.0958 6.12793 31.9024C6.39341 30.9029 7.10604 30.6569 8.05556 30.6538Z" fill="black"/>
<path d="M20.7864 6.23276C21.2654 6.52011 21.2654 6.52011 21.5527 6.99902C21.7042 7.76931 21.6718 8.33311 21.2654 9.01047C20.588 9.41688 20.0242 9.44935 19.2539 9.29782C18.775 9.01047 18.775 9.01047 18.4876 8.53155C18.3361 7.76127 18.3686 7.19747 18.775 6.52011C19.4523 6.11369 20.0162 6.08123 20.7864 6.23276Z" fill="black"/>
<path d="M14.6595 6.23276C15.1384 6.52011 15.1384 6.52011 15.4257 6.99902C15.5773 7.76931 15.5448 8.33311 15.1384 9.01047C14.461 9.41688 13.8972 9.44935 13.127 9.29782C12.648 9.01047 12.648 9.01047 12.3607 8.53155C12.2092 7.76127 12.2416 7.19747 12.648 6.52011C13.3254 6.11369 13.8892 6.08123 14.6595 6.23276Z" fill="black"/>
<path d="M8.52862 6.23276C9.00754 6.52011 9.00754 6.52011 9.29489 6.99902C9.44642 7.76931 9.41395 8.33311 9.00754 9.01047C8.33018 9.41688 7.76638 9.44935 6.99609 9.29782C6.51718 9.01047 6.51718 9.01047 6.22983 8.53155C6.0783 7.76127 6.11076 7.19747 6.51718 6.52011C7.19454 6.11369 7.75834 6.08123 8.52862 6.23276Z" fill="black"/>
</svg>
